SplineFontDB: 3.0
FontName: Boon-300
FullName: Boon 300
FamilyName: Boon
Weight: 300
Copyright: Copyright 2013-2015, Sungsit Sawaiwan (https://fontuni.com | uni@fontuni.com). This Font Software is licensed under the SIL Open Font License, Version 1.1 (http://scripts.sil.org/OFL).
Version: 1.0-beta2
ItalicAngle: 0
UnderlinePosition: -120
UnderlineWidth: 60
Ascent: 960
Descent: 240
InvalidEm: 0
woffMajor: 1
woffMinor: 0
UFOAscent: 960
UFODescent: -240
LayerCount: 2
Layer: 0 0 "Back" 1
Layer: 1 0 "Fore" 0
StyleMap: 0x0000
FSType: 0
OS2Version: 0
OS2_WeightWidthSlopeOnly: 0
OS2_UseTypoMetrics: 0
CreationTime: 1369324892
ModificationTime: 1445514075
PfmFamily: 33
TTFWeight: 300
TTFWidth: 5
LineGap: 90
VLineGap: 0
OS2TypoAscent: 960
OS2TypoAOffset: 0
OS2TypoDescent: -240
OS2TypoDOffset: 0
OS2TypoLinegap: 90
OS2WinAscent: 1320
OS2WinAOffset: 0
OS2WinDescent: 480
OS2WinDOffset: 0
HheadAscent: 1320
HheadAOffset: 0
HheadDescent: -480
HheadDOffset: 0
OS2CapHeight: 780
OS2XHeight: 600
OS2Vendor: 'FUni'
Lookup: 1 0 0 "ThaiRC.rd" { "ThaiRC.rd subtable"  } ['ss01' ('thai' <'dflt' > ) 'salt' ('thai' <'dflt' > ) 'ccmp' ('thai' <'PAL ' 'SAN ' > ) 'locl' ('thai' <'PAL ' 'SAN ' > ) ]
Lookup: 6 0 0 "ThaiContextRC.rd" { "ThaiContextRC.rd subtable"  } ['ccmp' ('thai' <'dflt' > ) ]
Lookup: 2 0 0 "ThaiDecomp" { "ThaiDecomp subtable"  } ['ccmp' ('thai' <'dflt' > ) ]
Lookup: 1 0 0 "ThaiT.0E4D" { "ThaiT.0E4D subtable"  } []
Lookup: 1 0 0 "Thai0E4D.0E48" { "Thai0E4D.0E48 subtable"  } []
Lookup: 1 0 0 "Thai0E4D.0E49" { "Thai0E4D.0E49 subtable"  } []
Lookup: 1 0 0 "Thai0E4D.0E4A" { "Thai0E4D.0E4A subtable"  } []
Lookup: 1 0 0 "Thai0E4D.0E4B" { "Thai0E4D.0E4B subtable"  } []
Lookup: 6 0 0 "ThaiContext.ro" { "ThaiContext.ro contextual 0"  "ThaiContext.ro contextual 1"  "ThaiContext.ro contextual 2"  "ThaiContext.ro contextual 3"  } ['ccmp' ('thai' <'dflt' > ) ]
Lookup: 1 0 0 "Thai.sd" { "Thai.sd subtable"  } []
Lookup: 1 0 0 "ThaiBV.sd" { "ThaiBV.sd subtable"  } []

StartChar: .notdef
Encoding: 844 -1 0
GlifName: _notdef
Width: 660
VWidth: 0
Flags: MW
LayerCount: 2
Fore
SplineSet
110 0 m 1
 110 600 l 1
 330 600 l 1
 550 600 l 1
 550 0 l 1
 330 0 l 1
 110 0 l 1
330 52 m 1
 487 52 l 1
 487 548 l 1
 330 548 l 1
 173 548 l 1
 173 52 l 1
 330 52 l 1
EndSplineSet
PickledDataWithLists: "(dp0
Vcom.fontlab.hintData
p1
(dp2
Vvhints
p3
(lp4
(dp5
Vwidth
p6
L10L
sVposition
p7
L160L
sa(dp8
g6
L10L
sg7
L190L
sa(dp9
g6
L10L
sg7
L520L
sa(dp10
g6
L10L
sg7
L550L
sasVhhints
p11
(lp12
(dp13
g6
L10L
sg7
L0L
sa(dp14
g6
L10L
sg7
L30L
sa(dp15
g6
L10L
sg7
L560L
sa(dp16
g6
L10L
sg7
L590L
sass."
EndChar

StartChar: exclam
Encoding: 4 33 5
GlifName: exclam
Width: 330
VWidth: 0
Flags: HMW
LayerCount: 2
Fore
SplineSet
123 810 m 1
 207 810 l 1
 189 270 l 1
 141 270 l 1
 123 810 l 1
EndSplineSet
Refer: 18 46 S 1 0 0 1 0 0 2
PickledDataWithLists: "(dp0
Vcom.fontlab.hintData
p1
(dp2
Vvhints
p3
(lp4
(dp5
Vwidth
p6
L10L
sVposition
p7
L81L
sa(dp8
g6
L10L
sg7
L101L
sa(dp9
g6
L10L
sg7
L125L
sa(dp10
g6
L10L
sg7
L195L
sa(dp11
g6
L10L
sg7
L210L
sa(dp12
g6
L10L
sg7
L239L
sasVhhints
p13
(lp14
(dp15
g6
L10L
sg7
L-5L
sa(dp16
g6
L10L
sg7
L122L
sa(dp17
g6
L10L
sg7
L268L
sa(dp18
g6
L10L
sg7
L826L
sass."
EndChar

StartChar: numbersign
Encoding: 6 35 7
GlifName: numbersign
Width: 810
VWidth: 0
Flags: MW
LayerCount: 2
Fore
SplineSet
70 221 m 1
 70 269 l 1
 197 269 l 1
 263 511 l 1
 130 511 l 1
 130 559 l 1
 276 559 l 1
 335 780 l 1
 392 780 l 1
 332 559 l 1
 568 559 l 1
 628 780 l 1
 685 780 l 1
 626 559 l 1
 740 559 l 1
 740 511 l 1
 613 511 l 1
 547 269 l 1
 680 269 l 1
 680 221 l 1
 534 221 l 1
 475 0 l 1
 418 0 l 1
 478 221 l 1
 241 221 l 1
 182 0 l 1
 125 0 l 1
 184 221 l 1
 70 221 l 1
320 511 m 1
 254 269 l 1
 490 269 l 1
 556 511 l 1
 320 511 l 1
EndSplineSet
PickledDataWithLists: "(dp0
Vcom.fontlab.hintData
p1
(dp2
Vvhints
p3
(lp4
(dp5
Vwidth
p6
L10L
sVposition
p7
L111L
sa(dp8
g6
L10L
sg7
L329L
sa(dp9
g6
L10L
sg7
L381L
sa(dp10
g6
L10L
sg7
L599L
sa(dp11
g6
L10L
sg7
L649L
sa(dp12
g6
L10L
sg7
L689L
sasVhhints
p13
(lp14
(dp15
g6
L10L
sg7
L-29L
sa(dp16
g6
L10L
sg7
L-19L
sa(dp17
g6
L7L
sg7
L241L
sa(dp18
g6
L10L
sg7
L284L
sa(dp19
g6
L7L
sg7
L521L
sa(dp20
g6
L10L
sg7
L564L
sa(dp21
g6
L10L
sg7
L819L
sa(dp22
g6
L10L
sg7
L829L
sass."
EndChar

StartChar: dollar
Encoding: 7 36 8
GlifName: dollar
Width: 660
VWidth: 0
Flags: MW
LayerCount: 2
Fore
SplineSet
75 178 m 1
 144 183 l 1
 153 120 209 49 309 40 c 1
 309 376 l 1
 281 387 253 398 230 407 c 0
 167 433 94 488 94 589 c 0
 94 698 173 783 309 791 c 1
 309 900 l 1
 361 900 l 1
 361 791 l 1
 496 778 558 675 568 606 c 1
 499 601 l 1
 490 662 443 726 361 739 c 1
 361 420 l 1
 391 409 420 398 443 391 c 0
 511 369 585 310 585 196 c 0
 585 87 508 -1 361 -11 c 1
 361 -120 l 1
 309 -120 l 1
 309 -11 l 1
 154 -2 86 105 75 178 c 1
309 440 m 1
 309 740 l 1
 223 732 162 679 162 589 c 0
 162 512 223 474 270 455 c 0
 282 450 295 445 309 440 c 1
361 356 m 1
 361 40 l 1
 460 49 516 106 516 196 c 0
 516 287 453 325 410 339 c 0
 395 344 379 350 361 356 c 1
EndSplineSet
PickledDataWithLists: "(dp0
Vcom.fontlab.hintData
p1
(dp2
Vvhints
p3
(lp4
(dp5
Vwidth
p6
L10L
sVposition
p7
L70L
sa(dp8
g6
L10L
sg7
L78L
sa(dp9
g6
L10L
sg7
L169L
sa(dp10
g6
L10L
sg7
L319L
sa(dp11
g6
L10L
sg7
L323L
sa(dp12
g6
L10L
sg7
L382L
sa(dp13
g6
L10L
sg7
L392L
sa(dp14
g6
L10L
sg7
L504L
sa(dp15
g6
L10L
sg7
L565L
sa(dp16
g6
L10L
sg7
L604L
sa(dp17
g6
L10L
sg7
L664L
sasVhhints
p18
(lp19
(dp20
g6
L10L
sg7
L-127L
sa(dp21
g6
L10L
sg7
L46L
sa(dp22
g6
L10L
sg7
L192L
sa(dp23
g6
L10L
sg7
L584L
sa(dp24
g6
L10L
sg7
L812L
sa(dp25
g6
L10L
sg7
L916L
sass."
EndChar

StartChar: ampersand
Encoding: 9 38 10
GlifName: ampersand
Width: 810
VWidth: 0
Flags: MW
LayerCount: 2
Fore
SplineSet
637 145 m 1
 714 66 775 4 775 4 c 2
 775 0 l 1
 695 0 l 1
 695 0 655 42 599 100 c 1
 531 30 437 -17 317 -17 c 0
 161 -17 80 62 80 161 c 0
 80 280 197 361 293 424 c 1
 244 484 203 560 203 628 c 0
 203 732 268 796 367 797 c 0
 474 797 522 727 522 656 c 0
 522 552 461 481 373 419 c 1
 431 358 520 266 599 184 c 1
 640 247 664 324 673 400 c 1
 733 391 l 1
 723 306 691 218 637 145 c 1
563 137 m 1
 485 219 389 319 326 387 c 1
 231 322 148 250 148 161 c 0
 148 84 208 36 317 36 c 0
 425 36 506 76 563 137 c 1
367 750 m 0
 295 750 265 693 265 627 c 0
 265 573 297 508 340 455 c 1
 415 510 462 574 462 656 c 0
 462 711 429 750 367 750 c 0
EndSplineSet
PickledDataWithLists: "(dp0
Vcom.fontlab.hintData
p1
(dp2
Vvhints
p3
(lp4
(dp5
Vwidth
p6
L10L
sVposition
p7
L66L
sa(dp8
g6
L10L
sg7
L164L
sa(dp9
g6
L10L
sg7
L202L
sa(dp10
g6
L10L
sg7
L296L
sa(dp11
g6
L10L
sg7
L450L
sa(dp12
g6
L10L
sg7
L538L
sa(dp13
g6
L10L
sg7
L695L
sa(dp14
g6
L10L
sg7
L749L
sasVhhints
p15
(lp16
(dp17
g6
L10L
sg7
L-25L
sa(dp18
g6
L10L
sg7
L39L
sa(dp19
g6
L10L
sg7
L389L
sa(dp20
g6
L10L
sg7
L734L
sa(dp21
g6
L10L
sg7
L796L
sass."
EndChar

StartChar: quotesingle
Encoding: 10 39 11
GlifName: quotesingle
Width: 330
VWidth: 0
Flags: MW
LayerCount: 2
Fore
SplineSet
131 900 m 1
 199 900 l 1
 187 540 l 1
 142 540 l 1
 131 900 l 1
EndSplineSet
PickledDataWithLists: "(dp0
Vcom.fontlab.hintData
p1
(dp2
Vvhints
p3
(lp4
(dp5
Vwidth
p6
L10L
sVposition
p7
L110L
sa(dp8
g6
L10L
sg7
L209L
sasVhhints
p9
(lp10
(dp11
g6
L10L
sg7
L544L
sa(dp12
g6
L10L
sg7
L832L
sass."
EndChar

StartChar: parenleft
Encoding: 11 40 12
GlifName: parenleft
Width: 390
VWidth: 0
Flags: MW
LayerCount: 2
Fore
SplineSet
80 390 m 0
 80 611 148 783 260 907 c 1
 304 890 l 1
 199 772 143 600 143 390 c 0
 143 180 199 8 304 -110 c 1
 260 -127 l 1
 148 -3 80 169 80 390 c 0
EndSplineSet
PickledDataWithLists: "(dp0
Vcom.fontlab.hintData
p1
(dp2
Vvhints
p3
(lp4
(dp5
Vwidth
p6
L10L
sVposition
p7
L55L
sa(dp8
g6
L10L
sg7
L135L
sa(dp9
g6
L10L
sg7
L270L
sasVhhints
p10
(lp11
(dp12
g6
L10L
sg7
L-112L
sa(dp13
g6
L10L
sg7
L882L
sass."
Substitution2: "Latin.subs subtable" parenleft.subs
Substitution2: "Latin.subs subtable" parenleft.subs
Substitution2: "Latin.sups subtable" parenleft.sups
Substitution2: "Latin.sups subtable" parenleft.sups
EndChar

StartChar: asterisk
Encoding: 13 42 14
GlifName: asterisk
Width: 570
VWidth: 0
Flags: MW
LayerCount: 2
Fore
SplineSet
57 713 m 1
 76 770 l 1
 267 695 l 1
 255 900 l 1
 315 900 l 1
 303 695 l 1
 495 770 l 1
 513 713 l 1
 315 660 l 1
 445 502 l 1
 397 466 l 1
 285 639 l 1
 174 466 l 1
 125 502 l 1
 256 660 l 1
 57 713 l 1
EndSplineSet
PickledDataWithLists: "(dp0
Vcom.fontlab.hintData
p1
(dp2
Vvhints
p3
(lp4
(dp5
Vwidth
p6
L10L
sVposition
p7
L84L
sa(dp8
g6
L10L
sg7
L89L
sa(dp9
g6
L10L
sg7
L256L
sa(dp10
g6
L10L
sg7
L265L
sa(dp11
g6
L10L
sg7
L272L
sa(dp12
g6
L10L
sg7
L326L
sa(dp13
g6
L10L
sg7
L335L
sa(dp14
g6
L10L
sg7
L501L
sa(dp15
g6
L10L
sg7
L506L
sasVhhints
p16
(lp17
(dp18
g6
L10L
sg7
L392L
sa(dp19
g6
L10L
sg7
L488L
sa(dp20
g6
L10L
sg7
L495L
sa(dp21
g6
L10L
sg7
L735L
sa(dp22
g6
L10L
sg7
L742L
sa(dp23
g6
L10L
sg7
L839L
sass."
EndChar

StartChar: plus
Encoding: 14 43 15
GlifName: plus
Width: 600
VWidth: 0
Flags: MW
LayerCount: 2
Fore
SplineSet
105 336 m 1
 105 384 l 1
 269 384 l 1
 269 550 l 1
 332 550 l 1
 332 384 l 1
 495 384 l 1
 495 336 l 1
 332 336 l 1
 332 170 l 1
 269 170 l 1
 269 336 l 1
 105 336 l 1
EndSplineSet
PickledDataWithLists: "(dp0
Vcom.fontlab.hintData
p1
(dp2
Vvhints
p3
(lp4
(dp5
Vwidth
p6
L10L
sVposition
p7
L80L
sa(dp8
g6
L10L
sg7
L250L
sa(dp9
g6
L10L
sg7
L259L
sa(dp10
g6
L10L
sg7
L340L
sa(dp11
g6
L10L
sg7
L510L
sasVhhints
p12
(lp13
(dp14
g6
L10L
sg7
L145L
sa(dp15
g6
L10L
sg7
L302L
sa(dp16
g6
L10L
sg7
L362L
sa(dp17
g6
L10L
sg7
L370L
sa(dp18
g6
L10L
sg7
L525L
sass."
EndChar

StartChar: comma
Encoding: 15 44 16
GlifName: comma
Width: 330
VWidth: 0
Flags: MW
LayerCount: 2
Fore
SplineSet
100 57 m 0
 100 94 126 121 165 121 c 0
 221 121 245 74 245 19 c 0
 245 -78 183 -147 122 -190 c 1
 100 -160 l 1
 150 -124 193 -70 197 6 c 1
 187 1 175 -2 163 -2 c 0
 127 -2 100 20 100 57 c 0
EndSplineSet
PickledDataWithLists: "(dp0
Vcom.fontlab.hintData
p1
(dp2
Vvhints
p3
(lp4
(dp5
Vwidth
p6
L10L
sVposition
p7
L61L
sa(dp8
g6
L10L
sg7
L170L
sa(dp9
g6
L10L
sg7
L251L
sasVhhints
p10
(lp11
(dp12
g6
L10L
sg7
L-182L
sa(dp13
g6
L10L
sg7
L48L
sa(dp14
g6
L10L
sg7
L117L
sass."
EndChar

StartChar: hyphen
Encoding: 16 45 17
GlifName: hyphen
Width: 600
VWidth: 0
Flags: MW
LayerCount: 2
Fore
SplineSet
105 386 m 1
 495 386 l 1
 495 334 l 1
 105 334 l 1
 105 386 l 1
EndSplineSet
PickledDataWithLists: "(dp0
Vcom.fontlab.hintData
p1
(dp2
Vvhints
p3
(lp4
(dp5
Vwidth
p6
L10L
sVposition
p7
L75L
sa(dp8
g6
L10L
sg7
L514L
sasVhhints
p9
(lp10
(dp11
g6
L10L
sg7
L301L
sa(dp12
g6
L10L
sg7
L363L
sa(dp13
g6
L10L
sg7
L371L
sass."
EndChar

StartChar: period
Encoding: 17 46 18
GlifName: period
Width: 330
VWidth: 0
Flags: MW
LayerCount: 2
Fore
SplineSet
165 120 m 0
 202 120 230 96 230 59 c 0
 230 22 202 -2 165 -2 c 0
 128 -2 100 22 100 59 c 0
 100 96 128 120 165 120 c 0
EndSplineSet
PickledDataWithLists: "(dp0
Vcom.fontlab.hintData
p1
(dp2
Vvhints
p3
(lp4
(dp5
Vwidth
p6
L10L
sVposition
p7
L81L
sa(dp8
g6
L10L
sg7
L239L
sasVhhints
p9
(lp10
(dp11
g6
L10L
sg7
L-5L
sa(dp12
g6
L10L
sg7
L122L
sass."
EndChar

StartChar: slash
Encoding: 18 47 19
GlifName: slash
Width: 510
VWidth: 0
Flags: MW
LayerCount: 2
Fore
SplineSet
60 0 m 1
 60 4 l 1
 389 780 l 1
 450 780 l 1
 450 776 l 1
 120 0 l 1
 60 0 l 1
EndSplineSet
PickledDataWithLists: "(dp0
Vcom.fontlab.hintData
p1
(dp2
Vvhints
p3
(lp4
(dp5
Vwidth
p6
L10L
sVposition
p7
L41L
sa(dp8
g6
L10L
sg7
L429L
sasVhhints
p9
(lp10
(dp11
g6
L10L
sg7
L-29L
sa(dp12
g6
L10L
sg7
L818L
sass."
Substitution2: "LatinSlash.frac subtable" fraction
EndChar

StartChar: zero
Encoding: 19 48 20
GlifName: zero
Width: 660
VWidth: 0
Flags: MW
LayerCount: 2
Fore
SplineSet
74 376 m 2
 74 404 l 2
 74 592 127 797 329 797 c 0
 531 797 584 592 584 404 c 2
 584 376 l 2
 584 188 531 -17 329 -17 c 0
 127 -17 74 188 74 376 c 2
329 36 m 0
 454 36 514 177 514 376 c 2
 514 404 l 2
 514 603 454 744 329 744 c 0
 204 744 144 603 144 404 c 2
 144 376 l 2
 144 177 204 36 329 36 c 0
EndSplineSet
PickledDataWithLists: "(dp0
Vcom.fontlab.hintData
p1
(dp2
Vvhints
p3
(lp4
(dp5
Vwidth
p6
L10L
sVposition
p7
L66L
sa(dp8
g6
L10L
sg7
L164L
sa(dp9
g6
L10L
sg7
L456L
sa(dp10
g6
L10L
sg7
L546L
sa(dp11
g6
L10L
sg7
L564L
sa(dp12
g6
L10L
sg7
L644L
sasVhhints
p13
(lp14
(dp15
g6
L10L
sg7
L-24L
sa(dp16
g6
L10L
sg7
L46L
sa(dp17
g6
L10L
sg7
L742L
sa(dp18
g6
L10L
sg7
L811L
sass."
Substitution2: "Latin.dnom subtable" zero.dnom
Substitution2: "Latin.numr subtable" zero.numr
Substitution2: "Latin.subs subtable" zero.subs
Substitution2: "Latin.sups subtable" zero.sups
Substitution2: "Latin.pnum subtable" zero.pnum
EndChar

StartChar: one
Encoding: 20 49 21
GlifName: one
Width: 660
VWidth: 0
Flags: MW
LayerCount: 2
Fore
SplineSet
110 630 m 1
 370 786 l 1
 419 781 l 1
 419 56 l 1
 575 56 l 1
 575 0 l 1
 150 0 l 1
 150 56 l 1
 350 56 l 1
 350 706 l 1
 140 579 l 1
 110 630 l 1
EndSplineSet
PickledDataWithLists: "(dp0
Vcom.fontlab.hintData
p1
(dp2
Vvhints
p3
(lp4
(dp5
Vwidth
p6
L10L
sVposition
p7
L126L
sa(dp8
g6
L10L
sg7
L364L
sa(dp9
g6
L10L
sg7
L371L
sa(dp10
g6
L10L
sg7
L462L
sa(dp11
g6
L10L
sg7
L469L
sa(dp12
g6
L10L
sg7
L677L
sasVhhints
p13
(lp14
(dp15
g6
L10L
sg7
L-19L
sa(dp16
g6
L10L
sg7
L-9L
sa(dp17
g6
L10L
sg7
L49L
sa(dp18
g6
L10L
sg7
L57L
sa(dp19
g6
L10L
sg7
L591L
sa(dp20
g6
L10L
sg7
L802L
sass."
Substitution2: "Latin.dnom subtable" one.dnom
Substitution2: "Latin.numr subtable" one.numr
Substitution2: "Latin.subs subtable" one.subs
Substitution2: "Latin.sups subtable" one.sups
Substitution2: "Latin.pnum subtable" one.pnum
EndChar

StartChar: two
Encoding: 21 50 22
GlifName: two
Width: 660
VWidth: 0
Flags: MW
LayerCount: 2
Fore
SplineSet
85 27 m 0
 85 203 228 302 338 377 c 0
 418 431 498 487 498 583 c 0
 498 646 467 744 330 744 c 0
 234 744 177 671 165 610 c 1
 94 617 l 1
 107 688 179 797 329 797 c 0
 530 797 566 650 566 583 c 0
 566 460 459 385 381 332 c 0
 278 262 171 186 161 55 c 1
 575 55 l 1
 575 0 l 1
 88 0 l 1
 88 0 85 11 85 27 c 0
EndSplineSet
PickledDataWithLists: "(dp0
Vcom.fontlab.hintData
p1
(dp2
Vvhints
p3
(lp4
(dp5
Vwidth
p6
L10L
sVposition
p7
L71L
sa(dp8
g6
L10L
sg7
L81L
sa(dp9
g6
L10L
sg7
L501L
sa(dp10
g6
L10L
sg7
L599L
sa(dp11
g6
L10L
sg7
L639L
sasVhhints
p12
(lp13
(dp14
g6
L10L
sg7
L-13L
sa(dp15
g6
L10L
sg7
L61L
sa(dp16
g6
L10L
sg7
L74L
sa(dp17
g6
L10L
sg7
L620L
sa(dp18
g6
L10L
sg7
L740L
sa(dp19
g6
L10L
sg7
L809L
sass."
Substitution2: "Latin.dnom subtable" two.dnom
Substitution2: "Latin.numr subtable" two.numr
Substitution2: "Latin.subs subtable" two.subs
Substitution2: "Latin.sups subtable" two.sups
Substitution2: "Latin.pnum subtable" two.pnum
EndChar

StartChar: three
Encoding: 22 51 23
GlifName: three
Width: 660
VWidth: 0
Flags: MW
LayerCount: 2
Fore
SplineSet
55 126 m 1
 123 139 l 1
 136 104 177 35 303 35 c 0
 467 35 500 141 500 210 c 0
 500 276 463 369 314 369 c 2
 219 369 l 1
 219 421 l 1
 305 421 l 2
 381 421 470 478 470 583 c 0
 470 646 440 744 303 744 c 0
 207 744 149 671 137 610 c 1
 66 617 l 1
 79 688 151 797 301 797 c 0
 502 797 538 650 538 583 c 0
 538 489 479 432 418 403 c 1
 536 372 570 277 570 213 c 0
 570 137 530 -17 303 -17 c 0
 132 -17 71 82 55 126 c 1
EndSplineSet
PickledDataWithLists: "(dp0
Vcom.fontlab.hintData
p1
(dp2
Vvhints
p3
(lp4
(dp5
Vwidth
p6
L10L
sVposition
p7
L66L
sa(dp8
g6
L10L
sg7
L76L
sa(dp9
g6
L10L
sg7
L203L
sa(dp10
g6
L10L
sg7
L491L
sa(dp11
g6
L10L
sg7
L546L
sa(dp12
g6
L10L
sg7
L589L
sa(dp13
g6
L10L
sg7
L644L
sasVhhints
p14
(lp15
(dp16
g6
L10L
sg7
L-27L
sa(dp17
g6
L10L
sg7
L44L
sa(dp18
g6
L10L
sg7
L150L
sa(dp19
g6
L10L
sg7
L361L
sa(dp20
g6
L10L
sg7
L372L
sa(dp21
g6
L10L
sg7
L630L
sa(dp22
g6
L10L
sg7
L741L
sa(dp23
g6
L10L
sg7
L810L
sass."
Substitution2: "Latin.dnom subtable" three.dnom
Substitution2: "Latin.numr subtable" three.numr
Substitution2: "Latin.subs subtable" three.subs
Substitution2: "Latin.sups subtable" three.sups
Substitution2: "Latin.pnum subtable" three.pnum
EndChar

StartChar: four
Encoding: 23 52 24
GlifName: four
Width: 660
VWidth: 0
Flags: MW
LayerCount: 2
Fore
SplineSet
423 214 m 1
 50 214 l 1
 45 246 l 1
 433 786 l 1
 489 781 l 1
 489 266 l 1
 615 266 l 1
 615 214 l 1
 489 214 l 1
 489 0 l 1
 423 0 l 1
 423 214 l 1
424 266 m 1
 424 688 l 1
 123 266 l 1
 424 266 l 1
EndSplineSet
PickledDataWithLists: "(dp0
Vcom.fontlab.hintData
p1
(dp2
Vvhints
p3
(lp4
(dp5
Vwidth
p6
L10L
sVposition
p7
L31L
sa(dp8
g6
L10L
sg7
L276L
sa(dp9
g6
L10L
sg7
L374L
sa(dp10
g6
L10L
sg7
L455L
sa(dp11
g6
L10L
sg7
L554L
sa(dp12
g6
L10L
sg7
L679L
sasVhhints
p13
(lp14
(dp15
g6
L10L
sg7
L-30L
sa(dp16
g6
L10L
sg7
L174L
sa(dp17
g6
L10L
sg7
L243L
sa(dp18
g6
L10L
sg7
L259L
sa(dp19
g6
L10L
sg7
L609L
sa(dp20
g6
L10L
sg7
L819L
sass."
Substitution2: "Latin.dnom subtable" four.dnom
Substitution2: "Latin.numr subtable" four.numr
Substitution2: "Latin.subs subtable" four.subs
Substitution2: "Latin.sups subtable" four.sups
Substitution2: "Latin.pnum subtable" four.pnum
EndChar

StartChar: five
Encoding: 24 53 25
GlifName: five
Width: 660
VWidth: 0
Flags: MW
LayerCount: 2
Fore
SplineSet
75 126 m 1
 143 139 l 1
 156 104 196 35 322 35 c 0
 486 35 519 149 519 228 c 0
 519 308 489 423 342 423 c 0
 260 423 187 367 160 326 c 1
 107 353 l 1
 120 780 l 1
 548 780 l 1
 548 728 l 1
 185 728 l 1
 175 406 l 1
 215 439 276 473 353 473 c 0
 552 473 590 311 590 232 c 0
 590 148 549 -17 322 -17 c 0
 151 -17 91 82 75 126 c 1
EndSplineSet
PickledDataWithLists: "(dp0
Vcom.fontlab.hintData
p1
(dp2
Vvhints
p3
(lp4
(dp5
Vwidth
p6
L10L
sVposition
p7
L76L
sa(dp8
g6
L10L
sg7
L106L
sa(dp9
g6
L10L
sg7
L125L
sa(dp10
g6
L10L
sg7
L226L
sa(dp11
g6
L10L
sg7
L541L
sa(dp12
g6
L10L
sg7
L614L
sa(dp13
g6
L10L
sg7
L639L
sasVhhints
p14
(lp15
(dp16
g6
L10L
sg7
L-26L
sa(dp17
g6
L10L
sg7
L43L
sa(dp18
g6
L10L
sg7
L150L
sa(dp19
g6
L10L
sg7
L334L
sa(dp20
g6
L10L
sg7
L409L
sa(dp21
g6
L10L
sg7
L477L
sa(dp22
g6
L10L
sg7
L716L
sa(dp23
g6
L10L
sg7
L784L
sa(dp24
g6
L10L
sg7
L795L
sass."
Substitution2: "Latin.dnom subtable" five.dnom
Substitution2: "Latin.numr subtable" five.numr
Substitution2: "Latin.subs subtable" five.subs
Substitution2: "Latin.sups subtable" five.sups
Substitution2: "Latin.pnum subtable" five.pnum
EndChar

StartChar: six
Encoding: 25 54 26
GlifName: six
Width: 660
VWidth: 0
Flags: MW
LayerCount: 2
Fore
SplineSet
95 292 m 2
 95 439 l 2
 95 576 124 797 343 797 c 0
 505 797 556 689 570 645 c 1
 503 634 l 1
 490 674 453 744 343 744 c 0
 200 744 165 592 165 439 c 2
 165 381 l 1
 203 433 266 471 353 471 c 0
 538 471 590 328 590 227 c 0
 590 91 501 -17 343 -17 c 0
 182 -17 95 91 95 292 c 2
166 263 m 1
 173 90 247 36 343 36 c 0
 448 36 521 104 521 227 c 0
 521 317 482 421 343 421 c 0
 246 421 182 351 166 263 c 1
EndSplineSet
PickledDataWithLists: "(dp0
Vcom.fontlab.hintData
p1
(dp2
Vvhints
p3
(lp4
(dp5
Vwidth
p6
L10L
sVposition
p7
L32L
sa(dp8
g6
L10L
sg7
L90L
sa(dp9
g6
L10L
sg7
L188L
sa(dp10
g6
L10L
sg7
L464L
sa(dp11
g6
L10L
sg7
L560L
sa(dp12
g6
L10L
sg7
L658L
sasVhhints
p13
(lp14
(dp15
g6
L10L
sg7
L-29L
sa(dp16
g6
L10L
sg7
L39L
sa(dp17
g6
L10L
sg7
L251L
sa(dp18
g6
L10L
sg7
L397L
sa(dp19
g6
L10L
sg7
L466L
sa(dp20
g6
L10L
sg7
L819L
sass."
Substitution2: "Latin.dnom subtable" six.dnom
Substitution2: "Latin.numr subtable" six.numr
Substitution2: "Latin.subs subtable" six.subs
Substitution2: "Latin.sups subtable" six.sups
Substitution2: "Latin.pnum subtable" six.pnum
EndChar

StartChar: seven
Encoding: 26 55 27
GlifName: seven
Width: 660
VWidth: 0
Flags: MW
LayerCount: 2
Fore
SplineSet
80 724 m 1
 80 780 l 1
 565 780 l 1
 570 740 l 1
 455 582 330 280 330 40 c 2
 330 0 l 1
 257 0 l 1
 257 40 l 2
 257 270 378 560 486 724 c 1
 80 724 l 1
EndSplineSet
PickledDataWithLists: "(dp0
Vcom.fontlab.hintData
p1
(dp2
Vvhints
p3
(lp4
(dp5
Vwidth
p6
L10L
sVposition
p7
L69L
sa(dp8
g6
L10L
sg7
L199L
sa(dp9
g6
L10L
sg7
L274L
sa(dp10
g6
L10L
sg7
L648L
sasVhhints
p11
(lp12
(dp13
g6
L10L
sg7
L-19L
sa(dp14
g6
L10L
sg7
L554L
sa(dp15
g6
L10L
sg7
L716L
sa(dp16
g6
L10L
sg7
L784L
sa(dp17
g6
L10L
sg7
L795L
sass."
Substitution2: "Latin.dnom subtable" seven.dnom
Substitution2: "Latin.numr subtable" seven.numr
Substitution2: "Latin.subs subtable" seven.subs
Substitution2: "Latin.sups subtable" seven.sups
Substitution2: "Latin.pnum subtable" seven.pnum
EndChar

StartChar: eight
Encoding: 27 56 28
GlifName: eight
Width: 660
VWidth: 0
Flags: MW
LayerCount: 2
Fore
SplineSet
330 -17 m 0
 167 -17 65 75 65 195 c 0
 65 332 165 384 238 401 c 1
 167 426 100 485 100 591 c 0
 100 709 192 797 330 797 c 0
 468 797 560 709 560 591 c 0
 560 485 493 426 422 401 c 1
 495 384 595 332 595 195 c 0
 595 75 493 -17 330 -17 c 0
330 34 m 0
 450 34 525 97 525 195 c 0
 525 304 454 348 388 362 c 0
 371 366 351 371 330 376 c 1
 309 371 289 366 272 362 c 0
 206 348 135 304 135 195 c 0
 135 97 210 34 330 34 c 0
330 747 m 0
 239 747 169 691 169 591 c 0
 169 500 230 448 288 435 c 0
 301 432 315 428 330 424 c 1
 345 428 359 432 372 435 c 0
 430 448 491 500 491 591 c 0
 491 691 421 747 330 747 c 0
EndSplineSet
PickledDataWithLists: "(dp0
Vcom.fontlab.hintData
p1
(dp2
Vvhints
p3
(lp4
(dp5
Vwidth
p6
L10L
sVposition
p7
L76L
sa(dp8
g6
L10L
sg7
L87L
sa(dp9
g6
L10L
sg7
L174L
sa(dp10
g6
L10L
sg7
L185L
sa(dp11
g6
L10L
sg7
L549L
sa(dp12
g6
L10L
sg7
L584L
sa(dp13
g6
L10L
sg7
L594L
sa(dp14
g6
L10L
sg7
L649L
sasVhhints
p15
(lp16
(dp17
g6
L10L
sg7
L-24L
sa(dp18
g6
L10L
sg7
L44L
sa(dp19
g6
L9L
sg7
L394L
sa(dp20
g6
L10L
sg7
L610L
sa(dp21
g6
L10L
sg7
L651L
sa(dp22
g6
L10L
sg7
L741L
sa(dp23
g6
L10L
sg7
L809L
sass."
Substitution2: "Latin.dnom subtable" eight.dnom
Substitution2: "Latin.numr subtable" eight.numr
Substitution2: "Latin.subs subtable" eight.subs
Substitution2: "Latin.sups subtable" eight.sups
Substitution2: "Latin.pnum subtable" eight.pnum
EndChar

StartChar: less
Encoding: 31 60 32
GlifName: less
Width: 600
VWidth: 0
Flags: HMW
LayerCount: 2
Fore
SplineSet
105 341 m 1
 105 360 l 1
 105 379 l 1
 483 605 l 1
 495 552 l 1
 171 360 l 1
 495 168 l 1
 483 115 l 1
 105 341 l 1
EndSplineSet
PickledDataWithLists: "(dp0
Vcom.fontlab.hintData
p1
(dp2
Vvhints
p3
(lp4
(dp5
Vwidth
p6
L10L
sVposition
p7
L63L
sa(dp8
g6
L10L
sg7
L514L
sa(dp9
g6
L10L
sg7
L524L
sasVhhints
p10
(lp11
(dp12
g6
L10L
sg7
L65L
sa(dp13
g6
L10L
sg7
L606L
sass."
EndChar

StartChar: equal
Encoding: 32 61 33
GlifName: equal
Width: 600
VWidth: 0
Flags: MW
LayerCount: 2
Fore
SplineSet
105 423 m 1
 105 473 l 1
 495 473 l 1
 495 423 l 1
 105 423 l 1
105 247 m 1
 105 297 l 1
 495 297 l 1
 495 247 l 1
 105 247 l 1
EndSplineSet
PickledDataWithLists: "(dp0
Vcom.fontlab.hintData
p1
(dp2
Vvhints
p3
(lp4
(dp5
Vwidth
p6
L10L
sVposition
p7
L75L
sa(dp8
g6
L10L
sg7
L514L
sasVhhints
p9
(lp10
(dp11
g6
L10L
sg7
L201L
sa(dp12
g6
L10L
sg7
L263L
sa(dp13
g6
L10L
sg7
L271L
sa(dp14
g6
L10L
sg7
L401L
sa(dp15
g6
L10L
sg7
L463L
sa(dp16
g6
L10L
sg7
L471L
sass."
EndChar

StartChar: question
Encoding: 34 63 35
GlifName: question
Width: 570
VWidth: 0
Flags: MW
LayerCount: 2
Fore
SplineSet
70 653 m 0
 70 754 155 827 285 827 c 0
 406 827 490 758 490 638 c 0
 490 473 281 430 281 302 c 0
 281 282 285 259 295 238 c 1
 239 232 l 1
 227 257 220 281 220 305 c 0
 220 462 420 498 420 636 c 0
 420 735 358 773 284 773 c 0
 200 773 141 729 141 653 c 0
 141 629 146 605 156 583 c 1
 90 565 l 1
 78 593 70 623 70 653 c 0
EndSplineSet
Refer: 18 46 N 1 0 0 1 120 0 2
PickledDataWithLists: "(dp0
Vcom.fontlab.hintData
p1
(dp2
Vvhints
p3
(lp4
(dp5
Vwidth
p6
L10L
sVposition
p7
L11L
sa(dp8
g6
L10L
sg7
L98L
sa(dp9
g6
L10L
sg7
L120L
sa(dp10
g6
L10L
sg7
L152L
sa(dp11
g6
L10L
sg7
L161L
sa(dp12
g6
L10L
sg7
L241L
sa(dp13
g6
L10L
sg7
L254L
sa(dp14
g6
L10L
sg7
L310L
sa(dp15
g6
L10L
sg7
L351L
sa(dp16
g6
L10L
sg7
L439L
sasVhhints
p17
(lp18
(dp19
g6
L10L
sg7
L-5L
sa(dp20
g6
L10L
sg7
L122L
sa(dp21
g6
L10L
sg7
L255L
sa(dp22
g6
L10L
sg7
L594L
sa(dp23
g6
L10L
sg7
L784L
sa(dp24
g6
L10L
sg7
L846L
sass."
EndChar

StartChar: at
Encoding: 35 64 36
GlifName: at
Width: 1020
VWidth: 0
Flags: MW
LayerCount: 2
Fore
SplineSet
90 235 m 0
 90 491 261 780 559 780 c 0
 809 780 930 601 930 400 c 0
 930 234 835 42 700 42 c 0
 638 42 622 85 620 139 c 1
 586 80 539 38 473 38 c 0
 351 38 304 136 304 229 c 0
 304 369 403 560 588 560 c 0
 672 560 706 498 706 442 c 0
 706 400 694 356 681 301 c 0
 668 234 663 186 663 152 c 0
 663 95 675 79 700 79 c 0
 789 79 888 236 888 400 c 0
 888 589 779 743 559 743 c 0
 296 743 132 481 132 235 c 0
 132 29 245 -153 502 -153 c 0
 575 -153 659 -115 686 -98 c 1
 710 -129 l 1
 677 -150 589 -190 502 -190 c 0
 214 -190 90 17 90 235 c 0
473 80 m 0
 557 80 605 178 633 307 c 0
 646 360 656 408 656 442 c 0
 656 490 631 518 588 518 c 0
 457 518 357 365 357 229 c 0
 357 139 400 80 473 80 c 0
EndSplineSet
PickledDataWithLists: "(dp0
Vcom.fontlab.hintData
p1
(dp2
Vvhints
p3
(lp4
(dp5
Vwidth
p6
L10L
sVposition
p7
L74L
sa(dp8
g6
L10L
sg7
L143L
sa(dp9
g6
L10L
sg7
L293L
sa(dp10
g6
L10L
sg7
L372L
sa(dp11
g6
L10L
sg7
L622L
sa(dp12
g6
L10L
sg7
L670L
sa(dp13
g6
L10L
sg7
L702L
sa(dp14
g6
L10L
sg7
L726L
sa(dp15
g6
L10L
sg7
L865L
sa(dp16
g6
L10L
sg7
L935L
sasVhhints
p17
(lp18
(dp19
g6
L10L
sg7
L-179L
sa(dp20
g6
L10L
sg7
L-131L
sa(dp21
g6
L10L
sg7
L-76L
sa(dp22
g6
L10L
sg7
L38L
sa(dp23
g6
L10L
sg7
L92L
sa(dp24
g6
L10L
sg7
L352L
sa(dp25
g6
L10L
sg7
L399L
sa(dp26
g6
L10L
sg7
L490L
sa(dp27
g6
L10L
sg7
L544L
sa(dp28
g6
L10L
sg7
L711L
sa(dp29
g6
L10L
sg7
L759L
sass."
EndChar

StartChar: A
Encoding: 36 65 37
GlifName: A_
Width: 750
VWidth: 0
Flags: MW
AnchorPoint: "LatinOgonek.mark" 670 0 basechar 0
AnchorPoint: "LatinBelow.mark" 375 0 basechar 0
AnchorPoint: "LatinAbove.mark" 375 150 basechar 0
LayerCount: 2
Fore
SplineSet
720 0 m 1
 640 0 l 1
 570 184 l 1
 180 184 l 1
 110 0 l 1
 30 0 l 1
 30 5 l 1
 344 780 l 1
 406 780 l 1
 720 5 l 1
 720 0 l 1
550 236 m 1
 375 698 l 1
 200 236 l 1
 550 236 l 1
EndSplineSet
PickledDataWithLists: "(dp0
Vcom.fontlab.hintData
p1
(dp2
Vvhints
p3
(lp4
(dp5
Vwidth
p6
L10L
sVposition
p7
L33L
sa(dp8
g6
L10L
sg7
L39L
sa(dp9
g6
L10L
sg7
L763L
sasVhhints
p10
(lp11
(dp12
g6
L10L
sg7
L-16L
sa(dp13
g6
L10L
sg7
L3L
sa(dp14
g6
L10L
sg7
L179L
sa(dp15
g6
L10L
sg7
L209L
sa(dp16
g6
L10L
sg7
L271L
sa(dp17
g6
L10L
sg7
L810L
sass."
EndChar

StartChar: B
Encoding: 37 66 38
GlifName: B_
Width: 745
VWidth: 0
Flags: MW
AnchorPoint: "LatinBelow.mark" 320 0 basechar 0
AnchorPoint: "LatinAbove.mark" 320 150 basechar 0
LayerCount: 2
Fore
SplineSet
478 426 m 1
 595 401 675 331 675 216 c 0
 675 68 543 -9 369 -9 c 0
 266 -9 142 -3 105 0 c 1
 105 780 l 1
 137 783 243 789 334 789 c 0
 480 789 600 725 600 595 c 0
 600 509 549 454 478 426 c 1
369 437 m 1
 453 446 532 494 532 590 c 0
 532 692 446 737 328 737 c 0
 269 737 207 735 172 733 c 1
 172 432 l 1
 225 435 300 437 369 437 c 1
172 47 m 1
 218 45 297 43 363 43 c 0
 500 43 606 94 606 216 c 0
 606 338 500 388 363 388 c 0
 297 388 218 386 172 384 c 1
 172 47 l 1
EndSplineSet
PickledDataWithLists: "(dp0
Vcom.fontlab.hintData
p1
(dp2
Vvhints
p3
(lp4
(dp5
Vwidth
p6
L10L
sVposition
p7
L26L
sa(dp8
g6
L10L
sg7
L116L
sa(dp9
g6
L10L
sg7
L121L
sa(dp10
g6
L10L
sg7
L223L
sa(dp11
g6
L10L
sg7
L537L
sa(dp12
g6
L10L
sg7
L636L
sa(dp13
g6
L10L
sg7
L735L
sasVhhints
p14
(lp15
(dp16
g6
L10L
sg7
L-22L
sa(dp17
g6
L10L
sg7
L49L
sa(dp18
g6
L10L
sg7
L395L
sa(dp19
g6
L10L
sg7
L634L
sa(dp20
g6
L10L
sg7
L661L
sa(dp21
g6
L10L
sg7
L742L
sa(dp22
g6
L10L
sg7
L809L
sass."
Colour: ff00
EndChar

StartChar: C
Encoding: 38 67 39
GlifName: C_
Width: 755
VWidth: 0
Flags: MW
AnchorPoint: "LatinCedilla.mark" 412 0 basechar 0
AnchorPoint: "LatinBelow.mark" 410 0 basechar 0
AnchorPoint: "LatinAbove.mark" 410 150 basechar 0
LayerCount: 2
Fore
SplineSet
75 407 m 2
 75 599 158 797 413 797 c 0
 600 797 686 674 700 595 c 1
 627 588 l 1
 615 653 548 742 413 742 c 0
 229 742 149 597 149 407 c 2
 149 373 l 2
 149 183 229 38 413 38 c 0
 548 38 615 127 627 192 c 1
 700 185 l 1
 686 106 600 -17 413 -17 c 0
 158 -17 75 181 75 373 c 2
 75 407 l 2
EndSplineSet
PickledDataWithLists: "(dp0
Vcom.fontlab.hintData
p1
(dp2
Vvhints
p3
(lp4
(dp5
Vwidth
p6
L10L
sVposition
p7
L68L
sa(dp8
g6
L10L
sg7
L172L
sa(dp9
g6
L10L
sg7
L569L
sa(dp10
g6
L10L
sg7
L673L
sa(dp11
g6
L10L
sg7
L707L
sasVhhints
p12
(lp13
(dp14
g6
L10L
sg7
L-20L
sa(dp15
g6
L10L
sg7
L52L
sa(dp16
g6
L10L
sg7
L169L
sa(dp17
g6
L10L
sg7
L586L
sa(dp18
g6
L10L
sg7
L739L
sa(dp19
g6
L10L
sg7
L811L
sass."
Colour: ff00
EndChar

StartChar: D
Encoding: 39 68 40
GlifName: D_
Width: 770
VWidth: 0
Flags: MW
AnchorPoint: "LatinBelow.mark" 320 0 basechar 0
AnchorPoint: "LatinAbove.mark" 320 150 basechar 0
LayerCount: 2
Fore
SplineSet
175 48 m 1
 207 46 255 44 287 44 c 0
 537 44 624 188 624 372 c 2
 624 408 l 2
 624 592 537 736 287 736 c 0
 255 736 207 734 175 732 c 1
 175 48 l 1
105 780 m 1
 105 780 213 789 287 789 c 0
 592 789 695 601 695 408 c 2
 695 372 l 2
 695 179 592 -9 287 -9 c 0
 213 -9 105 0 105 0 c 1
 105 780 l 1
EndSplineSet
PickledDataWithLists: "(dp0
Vcom.fontlab.hintData
p1
(dp2
Vvhints
p3
(lp4
(dp5
Vwidth
p6
L10L
sVposition
p7
L26L
sa(dp8
g6
L10L
sg7
L116L
sa(dp9
g6
L10L
sg7
L121L
sa(dp10
g6
L10L
sg7
L223L
sa(dp11
g6
L10L
sg7
L630L
sa(dp12
g6
L10L
sg7
L729L
sasVhhints
p13
(lp14
(dp15
g6
L10L
sg7
L-21L
sa(dp16
g6
L10L
sg7
L49L
sa(dp17
g6
L10L
sg7
L634L
sa(dp18
g6
L10L
sg7
L661L
sa(dp19
g6
L10L
sg7
L742L
sa(dp20
g6
L10L
sg7
L810L
sass."
EndChar

StartChar: E
Encoding: 40 69 41
GlifName: E_
Width: 675
VWidth: 0
Flags: MW
AnchorPoint: "LatinOgonek.mark" 545 0 basechar 0
AnchorPoint: "LatinBelow.mark" 350 0 basechar 0
AnchorPoint: "LatinAbove.mark" 350 150 basechar 0
LayerCount: 2
Fore
SplineSet
105 0 m 1
 105 780 l 1
 590 780 l 1
 590 725 l 1
 176 725 l 1
 176 411 l 1
 558 411 l 1
 558 359 l 1
 176 359 l 1
 176 55 l 1
 605 55 l 1
 605 0 l 1
 105 0 l 1
EndSplineSet
PickledDataWithLists: "(dp0
Vcom.fontlab.hintData
p1
(dp2
Vvhints
p3
(lp4
(dp5
Vwidth
p6
L10L
sVposition
p7
L66L
sa(dp8
g6
L10L
sg7
L106L
sa(dp9
g6
L10L
sg7
L121L
sa(dp10
g6
L10L
sg7
L204L
sa(dp11
g6
L10L
sg7
L220L
sa(dp12
g6
L10L
sg7
L564L
sa(dp13
g6
L10L
sg7
L644L
sa(dp14
g6
L10L
sg7
L674L
sasVhhints
p15
(lp16
(dp17
g6
L10L
sg7
L-24L
sa(dp18
g6
L10L
sg7
L-9L
sa(dp19
g6
L10L
sg7
L46L
sa(dp20
g6
L10L
sg7
L59L
sa(dp21
g6
L10L
sg7
L361L
sa(dp22
g6
L10L
sg7
L423L
sa(dp23
g6
L10L
sg7
L726L
sa(dp24
g6
L10L
sg7
L794L
sa(dp25
g6
L10L
sg7
L799L
sa(dp26
g6
L10L
sg7
L804L
sass."
Colour: ff00
EndChar

StartChar: F
Encoding: 41 70 42
GlifName: F_
Width: 640
VWidth: 0
Flags: MW
AnchorPoint: "LatinBelow.mark" 160 0 basechar 0
AnchorPoint: "LatinAbove.mark" 340 150 basechar 0
LayerCount: 2
Fore
SplineSet
105 0 m 1
 105 780 l 1
 580 780 l 1
 580 725 l 1
 176 725 l 1
 176 413 l 1
 548 413 l 1
 548 357 l 1
 176 357 l 1
 176 0 l 1
 105 0 l 1
EndSplineSet
PickledDataWithLists: "(dp0
Vcom.fontlab.hintData
p1
(dp2
Vvhints
p3
(lp4
(dp5
Vwidth
p6
L10L
sVposition
p7
L59L
sa(dp8
g6
L10L
sg7
L66L
sa(dp9
g6
L10L
sg7
L116L
sa(dp10
g6
L10L
sg7
L124L
sa(dp11
g6
L10L
sg7
L214L
sa(dp12
g6
L10L
sg7
L222L
sa(dp13
g6
L10L
sg7
L564L
sa(dp14
g6
L10L
sg7
L644L
sasVhhints
p15
(lp16
(dp17
g6
L10L
sg7
L-14L
sa(dp18
g6
L10L
sg7
L355L
sa(dp19
g6
L10L
sg7
L360L
sa(dp20
g6
L10L
sg7
L423L
sa(dp21
g6
L10L
sg7
L726L
sa(dp22
g6
L10L
sg7
L794L
sa(dp23
g6
L10L
sg7
L799L
sa(dp24
g6
L10L
sg7
L804L
sass."
Colour: ff00
EndChar

StartChar: G
Encoding: 42 71 43
GlifName: G_
Width: 770
VWidth: 0
Flags: MW
AnchorPoint: "LatinBelow.mark" 410 0 basechar 0
AnchorPoint: "LatinAbove.mark" 410 150 basechar 0
LayerCount: 2
Fore
SplineSet
424 320 m 1
 424 371 l 1
 695 371 l 1
 695 139 l 1
 669 76 584 -17 413 -17 c 0
 158 -17 75 181 75 373 c 2
 75 407 l 2
 75 599 158 797 413 797 c 0
 600 797 686 674 700 595 c 1
 628 588 l 1
 616 653 548 743 413 743 c 0
 227 743 148 599 148 407 c 2
 148 373 l 2
 148 181 227 37 413 37 c 0
 541 37 602 93 630 143 c 1
 630 320 l 1
 424 320 l 1
EndSplineSet
PickledDataWithLists: "(dp0
Vcom.fontlab.hintData
p1
(dp2
Vvhints
p3
(lp4
(dp5
Vwidth
p6
L10L
sVposition
p7
L71L
sa(dp8
g6
L10L
sg7
L169L
sa(dp9
g6
L10L
sg7
L386L
sa(dp10
g6
L10L
sg7
L572L
sa(dp11
g6
L10L
sg7
L615L
sa(dp12
g6
L10L
sg7
L670L
sa(dp13
g6
L10L
sg7
L715L
sasVhhints
p14
(lp15
(dp16
g6
L10L
sg7
L-24L
sa(dp17
g6
L10L
sg7
L44L
sa(dp18
g6
L10L
sg7
L290L
sa(dp19
g6
L10L
sg7
L390L
sa(dp20
g6
L10L
sg7
L587L
sa(dp21
g6
L10L
sg7
L741L
sa(dp22
g6
L10L
sg7
L810L
sass."
Colour: ff00
EndChar

StartChar: H
Encoding: 43 72 44
GlifName: H_
Width: 790
VWidth: 0
Flags: MW
AnchorPoint: "LatinBelow.mark" 395 0 basechar 0
AnchorPoint: "LatinAbove.mark" 395 150 basechar 0
LayerCount: 2
Fore
SplineSet
105 0 m 1
 105 780 l 1
 176 780 l 1
 176 418 l 1
 614 418 l 1
 614 780 l 1
 685 780 l 1
 685 0 l 1
 614 0 l 1
 614 362 l 1
 176 362 l 1
 176 0 l 1
 105 0 l 1
EndSplineSet
PickledDataWithLists: "(dp0
Vcom.fontlab.hintData
p1
(dp2
Vvhints
p3
(lp4
(dp5
Vwidth
p6
L10L
sVposition
p7
L66L
sa(dp8
g6
L10L
sg7
L101L
sa(dp9
g6
L10L
sg7
L111L
sa(dp10
g6
L10L
sg7
L211L
sa(dp11
g6
L10L
sg7
L605L
sa(dp12
g6
L10L
sg7
L704L
sa(dp13
g6
L10L
sg7
L744L
sasVhhints
p14
(lp15
(dp16
g6
L10L
sg7
L-14L
sa(dp17
g6
L10L
sg7
L355L
sa(dp18
g6
L10L
sg7
L423L
sa(dp19
g6
L10L
sg7
L794L
sa(dp20
g6
L10L
sg7
L799L
sass."
Colour: ff00
EndChar

StartChar: I
Encoding: 44 73 45
GlifName: I_
Width: 320
VWidth: 0
Flags: MW
AnchorPoint: "LatinOgonek.mark" 165 0 basechar 0
AnchorPoint: "LatinBelow.mark" 160 0 basechar 0
AnchorPoint: "LatinAbove.mark" 160 150 basechar 0
LayerCount: 2
Fore
SplineSet
125 0 m 1
 125 780 l 1
 195 780 l 1
 195 0 l 1
 125 0 l 1
EndSplineSet
PickledDataWithLists: "(dp0
Vcom.fontlab.hintData
p1
(dp2
Vvhints
p3
(lp4
(dp5
Vwidth
p6
L10L
sVposition
p7
L53L
sa(dp8
g6
L10L
sg7
L77L
sa(dp9
g6
L10L
sg7
L188L
sa(dp10
g6
L10L
sg7
L194L
sa(dp11
g6
L10L
sg7
L282L
sa(dp12
g6
L10L
sg7
L288L
sa(dp13
g6
L10L
sg7
L414L
sasVhhints
p14
(lp15
(dp16
g6
L10L
sg7
L-3L
sa(dp17
g6
L10L
sg7
L3L
sa(dp18
g6
L10L
sg7
L59L
sa(dp19
g6
L10L
sg7
L67L
sa(dp20
g6
L10L
sg7
L729L
sa(dp21
g6
L10L
sg7
L788L
sass."
Colour: ff00
EndChar

StartChar: J
Encoding: 45 74 46
GlifName: J_
Width: 520
VWidth: 0
Flags: MW
AnchorPoint: "LatinBelow.mark" 230 0 basechar 0
AnchorPoint: "LatinAbove.mark" 360 150 basechar 0
LayerCount: 2
Fore
SplineSet
35 132 m 1
 106 138 l 1
 116 76 157 36 225 36 c 0
 292 36 344 74 344 158 c 2
 344 780 l 1
 415 780 l 1
 415 158 l 2
 415 58 344 -17 225 -17 c 0
 107 -17 46 57 35 132 c 1
EndSplineSet
PickledDataWithLists: "(dp0
Vcom.fontlab.hintData
p1
(dp2
Vvhints
p3
(lp4
(dp5
Vwidth
p6
L10L
sVposition
p7
L16L
sa(dp8
g6
L10L
sg7
L152L
sa(dp9
g6
L10L
sg7
L318L
sa(dp10
g6
L10L
sg7
L412L
sa(dp11
g6
L10L
sg7
L492L
sasVhhints
p12
(lp13
(dp14
g6
L10L
sg7
L-14L
sa(dp15
g6
L9L
sg7
L55L
sa(dp16
g6
L10L
sg7
L129L
sa(dp17
g6
L10L
sg7
L730L
sa(dp18
g6
L10L
sg7
L788L
sass."
Colour: ff00
EndChar

StartChar: K
Encoding: 46 75 47
GlifName: K_
Width: 715
VWidth: 0
Flags: MW
AnchorPoint: "LatinBelow.mark" 360 0 basechar 0
AnchorPoint: "LatinAbove.mark" 360 150 basechar 0
LayerCount: 2
Fore
SplineSet
105 0 m 1
 105 780 l 1
 173 780 l 1
 173 350 l 1
 564 780 l 1
 642 774 l 1
 642 770 l 1
 343 454 l 1
 695 4 l 1
 695 0 l 1
 611 0 l 1
 298 407 l 1
 173 274 l 1
 173 0 l 1
 105 0 l 1
EndSplineSet
PickledDataWithLists: "(dp0
Vcom.fontlab.hintData
p1
(dp2
Vvhints
p3
(lp4
(dp5
Vwidth
p6
L10L
sVposition
p7
L64L
sa(dp8
g6
L10L
sg7
L86L
sa(dp9
g6
L10L
sg7
L116L
sa(dp10
g6
L10L
sg7
L211L
sa(dp11
g6
L10L
sg7
L219L
sa(dp12
g6
L10L
sg7
L679L
sa(dp13
g6
L10L
sg7
L734L
sasVhhints
p14
(lp15
(dp16
g6
L10L
sg7
L-14L
sa(dp17
g6
L10L
sg7
L-9L
sa(dp18
g6
L10L
sg7
L799L
sass."
Colour: ff00
EndChar

StartChar: L
Encoding: 47 76 48
GlifName: L_
Width: 570
VWidth: 0
Flags: MW
AnchorPoint: "LatinBelow.mark" 320 0 basechar 0
AnchorPoint: "LatinAbove.mark" 160 150 basechar 0
LayerCount: 2
Fore
SplineSet
105 0 m 1
 105 780 l 1
 176 780 l 1
 176 55 l 1
 530 55 l 1
 530 0 l 1
 105 0 l 1
EndSplineSet
PickledDataWithLists: "(dp0
Vcom.fontlab.hintData
p1
(dp2
Vvhints
p3
(lp4
(dp5
Vwidth
p6
L10L
sVposition
p7
L126L
sa(dp8
g6
L10L
sg7
L131L
sa(dp9
g6
L10L
sg7
L144L
sa(dp10
g6
L10L
sg7
L224L
sa(dp11
g6
L10L
sg7
L242L
sa(dp12
g6
L10L
sg7
L624L
sasVhhints
p13
(lp14
(dp15
g6
L10L
sg7
L-23L
sa(dp16
g6
L10L
sg7
L-9L
sa(dp17
g6
L10L
sg7
L45L
sa(dp18
g6
L10L
sg7
L59L
sa(dp19
g6
L10L
sg7
L794L
sass."
Colour: ff00
EndChar

StartChar: M
Encoding: 48 77 49
GlifName: M_
Width: 880
VWidth: 0
Flags: MW
AnchorPoint: "LatinBelow.mark" 440 0 basechar 0
AnchorPoint: "LatinAbove.mark" 440 150 basechar 0
LayerCount: 2
Fore
SplineSet
775 0 m 1
 706 0 l 1
 706 647 l 1
 459 195 l 1
 421 195 l 1
 174 647 l 1
 174 0 l 1
 105 0 l 1
 105 773 l 1
 164 780 l 1
 440 267 l 1
 716 780 l 1
 775 773 l 1
 775 0 l 1
EndSplineSet
PickledDataWithLists: "(dp0
Vcom.fontlab.hintData
p1
(dp2
Vvhints
p3
(lp4
(dp5
Vwidth
p6
L10L
sVposition
p7
L66L
sa(dp8
g6
L10L
sg7
L102L
sa(dp9
g6
L10L
sg7
L197L
sa(dp10
g6
L10L
sg7
L691L
sa(dp11
g6
L10L
sg7
L785L
sa(dp12
g6
L10L
sg7
L824L
sasVhhints
p13
(lp14
(dp15
g6
L10L
sg7
L-19L
sa(dp16
g6
L10L
sg7
L-9L
sa(dp17
g6
L10L
sg7
L137L
sa(dp18
g6
L20L
sg7
L604L
sa(dp19
g6
L10L
sg7
L783L
sa(dp20
g6
L10L
sg7
L795L
sass."
Colour: ff00
EndChar

StartChar: N
Encoding: 49 78 50
GlifName: N_
Width: 790
VWidth: 0
Flags: MW
AnchorPoint: "LatinBelow.mark" 395 0 basechar 0
AnchorPoint: "LatinAbove.mark" 395 150 basechar 0
LayerCount: 2
Fore
SplineSet
105 0 m 1
 105 773 l 1
 166 780 l 1
 616 113 l 1
 616 780 l 1
 685 780 l 1
 685 0 l 1
 624 0 l 1
 174 667 l 1
 174 0 l 1
 105 0 l 1
EndSplineSet
PickledDataWithLists: "(dp0
Vcom.fontlab.hintData
p1
(dp2
Vvhints
p3
(lp4
(dp5
Vwidth
p6
L10L
sVposition
p7
L97L
sa(dp8
g6
L10L
sg7
L111L
sa(dp9
g6
L10L
sg7
L209L
sa(dp10
g6
L10L
sg7
L601L
sa(dp11
g6
L10L
sg7
L613L
sa(dp12
g6
L10L
sg7
L699L
sa(dp13
g6
L10L
sg7
L711L
sasVhhints
p14
(lp15
(dp16
g6
L10L
sg7
L-14L
sa(dp17
g6
L10L
sg7
L-8L
sa(dp18
g6
L10L
sg7
L794L
sass."
Colour: ff00
EndChar

StartChar: O
Encoding: 50 79 51
GlifName: O_
Width: 820
VWidth: 0
Flags: MW
AnchorPoint: "LatinOgonek.mark" 480 0 basechar 0
AnchorPoint: "LatinBelow.mark" 410 0 basechar 0
AnchorPoint: "LatinAbove.mark" 410 150 basechar 0
LayerCount: 2
Fore
SplineSet
75 372 m 2
 75 408 l 2
 75 599 156 797 410 797 c 0
 664 797 745 599 745 408 c 2
 745 372 l 2
 745 181 664 -17 410 -17 c 0
 156 -17 75 181 75 372 c 2
410 37 m 0
 595 37 672 183 672 372 c 2
 672 408 l 2
 672 597 595 743 410 743 c 0
 225 743 148 597 148 408 c 2
 148 372 l 2
 148 183 225 37 410 37 c 0
EndSplineSet
PickledDataWithLists: "(dp0
Vcom.fontlab.hintData
p1
(dp2
Vvhints
p3
(lp4
(dp5
Vwidth
p6
L10L
sVposition
p7
L66L
sa(dp8
g6
L10L
sg7
L164L
sa(dp9
g6
L10L
sg7
L572L
sa(dp10
g6
L10L
sg7
L659L
sa(dp11
g6
L10L
sg7
L690L
sa(dp12
g6
L10L
sg7
L757L
sasVhhints
p13
(lp14
(dp15
g6
L10L
sg7
L-22L
sa(dp16
g6
L10L
sg7
L47L
sa(dp17
g6
L10L
sg7
L742L
sa(dp18
g6
L10L
sg7
L811L
sass."
Colour: ff00
EndChar

StartChar: P
Encoding: 51 80 52
GlifName: P_
Width: 710
VWidth: 0
Flags: MW
AnchorPoint: "LatinBelow.mark" 160 0 basechar 0
AnchorPoint: "LatinAbove.mark" 360 150 basechar 0
LayerCount: 2
Fore
SplineSet
174 394 m 1
 215 392 279 390 343 390 c 0
 480 390 585 442 585 564 c 0
 585 686 480 737 343 737 c 0
 279 737 215 735 174 733 c 1
 174 394 l 1
174 343 m 1
 174 0 l 1
 105 0 l 1
 105 347 l 1
 105 780 l 1
 142 783 246 789 349 789 c 0
 523 789 655 712 655 564 c 0
 655 416 523 338 349 338 c 0
 286 338 222 341 174 343 c 1
EndSplineSet
PickledDataWithLists: "(dp0
Vcom.fontlab.hintData
p1
(dp2
Vvhints
p3
(lp4
(dp5
Vwidth
p6
L10L
sVposition
p7
L26L
sa(dp8
g6
L10L
sg7
L36L
sa(dp9
g6
L10L
sg7
L116L
sa(dp10
g6
L10L
sg7
L130L
sa(dp11
g6
L10L
sg7
L228L
sa(dp12
g6
L10L
sg7
L592L
sa(dp13
g6
L10L
sg7
L693L
sasVhhints
p14
(lp15
(dp16
g6
L10L
sg7
L-24L
sa(dp17
g6
L10L
sg7
L302L
sa(dp18
g6
L10L
sg7
L369L
sa(dp19
g6
L10L
sg7
L429L
sa(dp20
g6
L10L
sg7
L634L
sa(dp21
g6
L10L
sg7
L661L
sa(dp22
g6
L10L
sg7
L744L
sa(dp23
g6
L10L
sg7
L813L
sass."
Colour: ff00
EndChar

StartChar: Q
Encoding: 52 81 53
GlifName: Q_
Width: 820
VWidth: 0
Flags: MW
AnchorPoint: "LatinBelow.mark" 410 0 basechar 0
AnchorPoint: "LatinAbove.mark" 410 150 basechar 0
LayerCount: 2
Fore
SplineSet
75 372 m 2
 75 408 l 2
 75 599 156 797 410 797 c 0
 664 797 745 599 745 408 c 2
 745 372 l 2
 745 279 726 186 677 113 c 1
 790 23 l 1
 758 -19 l 1
 645 73 l 1
 593 18 517 -17 410 -17 c 0
 156 -17 75 181 75 372 c 2
395 276 m 1
 425 314 l 1
 624 155 l 1
 657 213 672 288 672 372 c 2
 672 408 l 2
 672 597 595 743 410 743 c 0
 225 743 148 597 148 408 c 2
 148 372 l 2
 148 183 225 37 410 37 c 0
 492 37 553 66 595 114 c 1
 395 276 l 1
EndSplineSet
PickledDataWithLists: "(dp0
Vcom.fontlab.hintData
p1
(dp2
Vvhints
p3
(lp4
(dp5
Vwidth
p6
L10L
sVposition
p7
L66L
sa(dp8
g6
L10L
sg7
L164L
sa(dp9
g6
L10L
sg7
L407L
sa(dp10
g6
L10L
sg7
L491L
sa(dp11
g6
L10L
sg7
L675L
sa(dp12
g6
L10L
sg7
L690L
sa(dp13
g6
L10L
sg7
L760L
sa(dp14
g6
L10L
sg7
L769L
sasVhhints
p15
(lp16
(dp17
g6
L10L
sg7
L-206L
sa(dp18
g6
L10L
sg7
L-17L
sa(dp19
g6
L10L
sg7
L46L
sa(dp20
g6
L10L
sg7
L514L
sa(dp21
g6
L10L
sg7
L576L
sa(dp22
g6
L10L
sg7
L598L
sa(dp23
g6
L10L
sg7
L742L
sa(dp24
g6
L10L
sg7
L811L
sass."
Colour: ff00
EndChar

StartChar: R
Encoding: 53 82 54
GlifName: R_
Width: 730
VWidth: 0
Flags: MW
AnchorPoint: "LatinBelow.mark" 360 0 basechar 0
AnchorPoint: "LatinAbove.mark" 360 150 basechar 0
LayerCount: 2
Fore
SplineSet
174 394 m 1
 215 392 279 390 343 390 c 0
 480 390 585 442 585 564 c 0
 585 686 480 737 343 737 c 0
 279 737 215 735 174 733 c 1
 174 394 l 1
329 338 m 1
 273 338 217 341 174 343 c 1
 174 0 l 1
 105 0 l 1
 105 347 l 1
 105 780 l 1
 142 783 246 789 349 789 c 0
 523 789 655 712 655 564 c 0
 655 432 550 356 405 341 c 1
 685 4 l 1
 685 0 l 1
 604 0 l 1
 329 338 l 1
EndSplineSet
PickledDataWithLists: "(dp0
Vcom.fontlab.hintData
p1
(dp2
Vvhints
p3
(lp4
(dp5
Vwidth
p6
L10L
sVposition
p7
L26L
sa(dp8
g6
L10L
sg7
L116L
sa(dp9
g6
L10L
sg7
L126L
sa(dp10
g6
L10L
sg7
L228L
sa(dp11
g6
L10L
sg7
L605L
sa(dp12
g6
L10L
sg7
L705L
sa(dp13
g6
L10L
sg7
L734L
sasVhhints
p14
(lp15
(dp16
g6
L10L
sg7
L-29L
sa(dp17
g6
L10L
sg7
L-24L
sa(dp18
g6
L10L
sg7
L332L
sa(dp19
g6
L10L
sg7
L401L
sa(dp20
g6
L10L
sg7
L430L
sa(dp21
g6
L10L
sg7
L634L
sa(dp22
g6
L10L
sg7
L661L
sa(dp23
g6
L10L
sg7
L745L
sa(dp24
g6
L10L
sg7
L812L
sass."
Colour: ff00
EndChar

StartChar: S
Encoding: 54 83 55
GlifName: S_
Width: 710
VWidth: 0
Flags: MW
AnchorPoint: "LatinCedilla.mark" 380 0 basechar 0
AnchorPoint: "LatinBelow.mark" 355 0 basechar 0
AnchorPoint: "LatinAbove.mark" 355 150 basechar 0
LayerCount: 2
Fore
SplineSet
70 175 m 1
 139 184 l 1
 150 119 218 36 356 36 c 0
 498 36 572 99 572 194 c 0
 572 283 505 321 453 336 c 0
 395 352 307 381 247 403 c 0
 179 428 90 482 90 588 c 0
 90 710 196 797 356 797 c 0
 522 797 606 687 620 609 c 1
 550 600 l 1
 538 665 474 744 356 744 c 0
 234 744 159 684 159 591 c 0
 159 515 222 481 278 460 c 0
 336 439 421 411 477 395 c 0
 552 373 640 314 640 196 c 0
 640 73 536 -17 356 -17 c 0
 172 -17 85 96 70 175 c 1
EndSplineSet
PickledDataWithLists: "(dp0
Vcom.fontlab.hintData
p1
(dp2
Vvhints
p3
(lp4
(dp5
Vwidth
p6
L10L
sVposition
p7
L60L
sa(dp8
g6
L10L
sg7
L68L
sa(dp9
g6
L10L
sg7
L159L
sa(dp10
g6
L10L
sg7
L494L
sa(dp11
g6
L10L
sg7
L555L
sa(dp12
g6
L10L
sg7
L594L
sa(dp13
g6
L10L
sg7
L654L
sasVhhints
p14
(lp15
(dp16
g6
L10L
sg7
L-22L
sa(dp17
g6
L10L
sg7
L46L
sa(dp18
g6
L10L
sg7
L192L
sa(dp19
g6
L10L
sg7
L584L
sa(dp20
g6
L10L
sg7
L744L
sa(dp21
g6
L10L
sg7
L812L
sass."
Colour: ff00
EndChar

StartChar: T
Encoding: 55 84 56
GlifName: T_
Width: 620
VWidth: 0
Flags: MW
AnchorPoint: "LatinCedilla.mark" 320 0 basechar 0
AnchorPoint: "LatinBelow.mark" 310 0 basechar 0
AnchorPoint: "LatinAbove.mark" 310 150 basechar 0
LayerCount: 2
Fore
SplineSet
45 726 m 1
 45 780 l 1
 575 780 l 1
 575 726 l 1
 345 726 l 1
 345 0 l 1
 275 0 l 1
 275 726 l 1
 45 726 l 1
EndSplineSet
PickledDataWithLists: "(dp0
Vcom.fontlab.hintData
p1
(dp2
Vvhints
p3
(lp4
(dp5
Vwidth
p6
L10L
sVposition
p7
L25L
sa(dp8
g6
L10L
sg7
L301L
sa(dp9
g6
L10L
sg7
L306L
sa(dp10
g6
L10L
sg7
L407L
sa(dp11
g6
L10L
sg7
L674L
sasVhhints
p12
(lp13
(dp14
g6
L10L
sg7
L-19L
sa(dp15
g6
L10L
sg7
L722L
sa(dp16
g6
L10L
sg7
L731L
sa(dp17
g6
L10L
sg7
L790L
sa(dp18
g6
L10L
sg7
L800L
sass."
Colour: ff00
EndChar

StartChar: U
Encoding: 56 85 57
GlifName: U_
Width: 770
VWidth: 0
Flags: MW
AnchorPoint: "LatinOgonek.mark" 480 0 basechar 0
AnchorPoint: "LatinBelow.mark" 385 0 basechar 0
AnchorPoint: "LatinAbove.mark" 385 150 basechar 0
LayerCount: 2
Fore
SplineSet
95 232 m 2
 95 780 l 1
 166 780 l 1
 166 232 l 2
 166 108 255 37 385 37 c 0
 515 37 604 108 604 232 c 2
 604 780 l 1
 675 780 l 1
 675 232 l 2
 675 86 560 -17 385 -17 c 0
 210 -17 95 86 95 232 c 2
EndSplineSet
PickledDataWithLists: "(dp0
Vcom.fontlab.hintData
p1
(dp2
Vvhints
p3
(lp4
(dp5
Vwidth
p6
L10L
sVposition
p7
L96L
sa(dp8
g6
L10L
sg7
L107L
sa(dp9
g6
L10L
sg7
L194L
sa(dp10
g6
L10L
sg7
L205L
sa(dp11
g6
L10L
sg7
L603L
sa(dp12
g6
L10L
sg7
L616L
sa(dp13
g6
L10L
sg7
L704L
sa(dp14
g6
L10L
sg7
L714L
sasVhhints
p15
(lp16
(dp17
g6
L10L
sg7
L-24L
sa(dp18
g6
L10L
sg7
L44L
sa(dp19
g6
L10L
sg7
L789L
sass."
EndChar

StartChar: V
Encoding: 57 86 58
GlifName: V_
Width: 750
VWidth: 0
Flags: MW
AnchorPoint: "LatinBelow.mark" 375 0 basechar 0
AnchorPoint: "LatinAbove.mark" 375 150 basechar 0
LayerCount: 2
Fore
SplineSet
35 769 m 1
 35 774 l 1
 118 780 l 1
 375 84 l 1
 632 780 l 1
 715 774 l 1
 715 769 l 1
 406 0 l 1
 344 0 l 1
 35 769 l 1
EndSplineSet
PickledDataWithLists: "(dp0
Vcom.fontlab.hintData
p1
(dp2
Vvhints
p3
(lp4
(dp5
Vwidth
p6
L10L
sVposition
p7
L41L
sa(dp8
g6
L10L
sg7
L759L
sasVhhints
p9
(lp10
(dp11
g6
L10L
sg7
L-21L
sa(dp12
g6
L10L
sg7
L781L
sa(dp13
g6
L10L
sg7
L794L
sass."
EndChar

StartChar: W
Encoding: 58 87 59
GlifName: W_
Width: 1060
VWidth: 0
Flags: MW
AnchorPoint: "LatinBelow.mark" 530 0 basechar 0
AnchorPoint: "LatinAbove.mark" 530 150 basechar 0
LayerCount: 2
Fore
SplineSet
1020 769 m 1
 788 0 l 1
 725 0 l 1
 530 659 l 1
 335 0 l 1
 272 0 l 1
 40 769 l 1
 40 773 l 1
 118 780 l 1
 308 96 l 1
 500 760 l 1
 560 760 l 1
 752 96 l 1
 942 780 l 1
 1020 773 l 1
 1020 769 l 1
EndSplineSet
PickledDataWithLists: "(dp0
Vcom.fontlab.hintData
p1
(dp2
Vvhints
p3
(lp4
(dp5
Vwidth
p6
L10L
sVposition
p7
L46L
sa(dp8
g6
L10L
sg7
L1045L
sasVhhints
p9
(lp10
(dp11
g6
L10L
sg7
L-10L
sa(dp12
g6
L10L
sg7
L762L
sa(dp13
g6
L10L
sg7
L790L
sass."
Colour: ff00
EndChar

StartChar: X
Encoding: 59 88 60
GlifName: X_
Width: 740
VWidth: 0
Flags: MW
AnchorPoint: "LatinBelow.mark" 370 0 basechar 0
AnchorPoint: "LatinAbove.mark" 370 150 basechar 0
LayerCount: 2
Fore
SplineSet
70 768 m 1
 70 773 l 1
 147 780 l 1
 370 459 l 1
 593 780 l 1
 670 773 l 1
 670 768 l 1
 410 415 l 1
 720 5 l 1
 720 0 l 1
 638 0 l 1
 370 361 l 1
 102 0 l 1
 20 0 l 1
 20 5 l 1
 330 415 l 1
 70 768 l 1
EndSplineSet
PickledDataWithLists: "(dp0
Vcom.fontlab.hintData
p1
(dp2
Vvhints
p3
(lp4
(dp5
Vwidth
p6
L10L
sVposition
p7
L31L
sa(dp8
g6
L10L
sg7
L91L
sa(dp9
g6
L10L
sg7
L687L
sa(dp10
g6
L10L
sg7
L734L
sasVhhints
p11
(lp12
(dp13
g6
L10L
sg7
L-9L
sa(dp14
g6
L10L
sg7
L4L
sa(dp15
g6
L10L
sg7
L789L
sass."
Colour: ff00
EndChar

StartChar: Y
Encoding: 60 89 61
GlifName: Y_
Width: 670
VWidth: 0
Flags: MW
AnchorPoint: "LatinBelow.mark" 335 0 basechar 0
AnchorPoint: "LatinAbove.mark" 335 150 basechar 0
LayerCount: 2
Fore
SplineSet
25 769 m 1
 25 774 l 1
 104 780 l 1
 335 373 l 1
 566 780 l 1
 645 774 l 1
 645 769 l 1
 370 304 l 1
 370 0 l 1
 300 0 l 1
 300 304 l 1
 25 769 l 1
EndSplineSet
PickledDataWithLists: "(dp0
Vcom.fontlab.hintData
p1
(dp2
Vvhints
p3
(lp4
(dp5
Vwidth
p6
L10L
sVposition
p7
L35L
sa(dp8
g6
L10L
sg7
L310L
sa(dp9
g6
L10L
sg7
L408L
sa(dp10
g6
L10L
sg7
L414L
sa(dp11
g6
L10L
sg7
L675L
sasVhhints
p12
(lp13
(dp14
g6
L10L
sg7
L-20L
sa(dp15
g6
L10L
sg7
L789L
sa(dp16
g6
L10L
sg7
L800L
sass."
EndChar

StartChar: Z
Encoding: 61 90 62
GlifName: Z_
Width: 670
VWidth: 0
Flags: MW
AnchorPoint: "LatinBelow.mark" 335 0 basechar 0
AnchorPoint: "LatinAbove.mark" 335 150 basechar 0
LayerCount: 2
Fore
SplineSet
50 41 m 1
 515 724 l 1
 72 724 l 1
 72 780 l 1
 604 780 l 1
 610 739 l 1
 145 56 l 1
 620 56 l 1
 620 0 l 1
 55 0 l 1
 50 41 l 1
EndSplineSet
PickledDataWithLists: "(dp0
Vcom.fontlab.hintData
p1
(dp2
Vvhints
p3
(lp4
(dp5
Vwidth
p6
L10L
sVposition
p7
L46L
sa(dp8
g6
L10L
sg7
L66L
sa(dp9
g6
L10L
sg7
L679L
sa(dp10
g6
L10L
sg7
L699L
sasVhhints
p11
(lp12
(dp13
g6
L10L
sg7
L-13L
sa(dp14
g6
L10L
sg7
L64L
sa(dp15
g6
L10L
sg7
L75L
sa(dp16
g6
L10L
sg7
L709L
sa(dp17
g6
L10L
sg7
L779L
sa(dp18
g6
L10L
sg7
L785L
sa(dp19
g6
L10L
sg7
L790L
sass."
Colour: ff00
EndChar

StartChar: bracketleft
Encoding: 62 91 63
GlifName: bracketleft
Width: 435
VWidth: 0
Flags: MW
LayerCount: 2
Fore
SplineSet
135 -120 m 1
 135 900 l 1
 330 900 l 1
 330 856 l 1
 193 856 l 1
 193 -76 l 1
 328 -76 l 1
 328 -120 l 1
 135 -120 l 1
EndSplineSet
PickledDataWithLists: "(dp0
Vcom.fontlab.hintData
p1
(dp2
Vvhints
p3
(lp4
(dp5
Vwidth
p6
L10L
sVposition
p7
L71L
sa(dp8
g6
L10L
sg7
L92L
sa(dp9
g6
L10L
sg7
L161L
sa(dp10
g6
L10L
sg7
L289L
sasVhhints
p11
(lp12
(dp13
g6
L10L
sg7
L-91L
sa(dp14
g6
L10L
sg7
L-44L
sa(dp15
g6
L10L
sg7
L830L
sa(dp16
g6
L10L
sg7
L877L
sass."
EndChar

StartChar: backslash
Encoding: 63 92 64
GlifName: backslash
Width: 510
VWidth: 0
Flags: MW
LayerCount: 2
Fore
SplineSet
450 0 m 1
 390 0 l 1
 60 776 l 1
 60 780 l 1
 121 780 l 1
 450 4 l 1
 450 0 l 1
EndSplineSet
PickledDataWithLists: "(dp0
Vcom.fontlab.hintData
p1
(dp2
Vvhints
p3
(lp4
(dp5
Vwidth
p6
L10L
sVposition
p7
L40L
sa(dp8
g6
L10L
sg7
L430L
sasVhhints
p9
(lp10
(dp11
g6
L10L
sg7
L-29L
sa(dp12
g6
L10L
sg7
L819L
sass."
EndChar

StartChar: asciicircum
Encoding: 65 94 66
GlifName: asciicircum
Width: 630
VWidth: 0
Flags: MW
LayerCount: 2
Fore
SplineSet
45 582 m 1
 300 877 l 1
 330 877 l 1
 585 582 l 1
 550 557 l 1
 315 805 l 1
 80 557 l 1
 45 582 l 1
EndSplineSet
PickledDataWithLists: "(dp0
Vcom.fontlab.hintData
p1
(dp2
Vvhints
p3
(lp4
(dp5
Vwidth
p6
L10L
sVposition
p7
L23L
sasVhhints
p8
(lp9
(dp10
g6
L10L
sg7
L532L
sa(dp11
g6
L10L
sg7
L839L
sass."
EndChar

StartChar: underscore
Encoding: 66 95 67
GlifName: underscore
Width: 600
VWidth: 0
Flags: MW
LayerCount: 2
Fore
SplineSet
0 0 m 25
 600 0 l 25
 600 -52 l 25
 0 -52 l 25
 0 0 l 25
EndSplineSet
PickledDataWithLists: "(dp0
Vcom.fontlab.hintData
p1
(dp2
Vvhints
p3
(lp4
(dp5
Vwidth
p6
L10L
sVposition
p7
L30L
sa(dp8
g6
L10L
sg7
L559L
sasVhhints
p9
(lp10
(dp11
g6
L10L
sg7
L-69L
sa(dp12
g6
L10L
sg7
L-6L
sa(dp13
g6
L10L
sg7
L1L
sass."
EndChar

StartChar: grave
Encoding: 67 96 68
GlifName: grave
Width: 390
VWidth: 0
Flags: MW
LayerCount: 2
Fore
SplineSet
15 837 m 1
 67 875 l 1
 345 582 l 1
 310 557 l 1
 15 837 l 1
EndSplineSet
PickledDataWithLists: "(dp0
Vcom.fontlab.hintData
p1
(dp2
Vvhints
p3
(lp4
(dp5
Vwidth
p6
L10L
sVposition
p7
L20L
sasVhhints
p8
(lp9
(dp10
g6
L10L
sg7
L541L
sa(dp11
g6
L10L
sg7
L838L
sass."
EndChar

StartChar: a
Encoding: 68 97 69
GlifName: a
Width: 625
VWidth: 0
Flags: MW
AnchorPoint: "LatinOgonek.mark" 515 0 basechar 0
AnchorPoint: "LatinBelow.mark" 330 0 basechar 0
AnchorPoint: "LatinAbove.mark" 310 0 basechar 0
LayerCount: 2
Fore
SplineSet
70 171 m 0
 70 249 132 316 250 316 c 0
 331 316 408 309 460 302 c 1
 460 425 l 2
 460 519 394 567 300 567 c 0
 208 567 154 513 142 433 c 1
 75 438 l 1
 88 531 162 617 300 617 c 0
 436 617 525 539 525 425 c 2
 525 132 l 2
 525 67 546 39 600 33 c 1
 583 -12 l 1
 535 -6 477 19 470 103 c 1
 436 43 377 -12 277 -12 c 0
 154 -12 70 56 70 171 c 0
463 259 m 1
 417 265 343 275 253 275 c 0
 184 275 135 236 135 171 c 0
 135 77 202 31 283 31 c 0
 396 31 446 126 463 204 c 1
 463 259 l 1
EndSplineSet
PickledDataWithLists: "(dp0
Vcom.fontlab.hintData
p1
(dp2
Vvhints
p3
(lp4
(dp5
Vwidth
p6
L10L
sVposition
p7
L60L
sa(dp8
g6
L10L
sg7
L149L
sa(dp9
g6
L10L
sg7
L441L
sa(dp10
g6
L10L
sg7
L529L
sa(dp11
g6
L10L
sg7
L649L
sasVhhints
p12
(lp13
(dp14
g6
L10L
sg7
L-21L
sa(dp15
g6
L10L
sg7
L-11L
sa(dp16
g6
L10L
sg7
L41L
sa(dp17
g6
L10L
sg7
L362L
sa(dp18
g6
L10L
sg7
L432L
sa(dp19
g6
L10L
sg7
L549L
sa(dp20
g6
L10L
sg7
L611L
sass."
Substitution2: "Latin.ss20 subtable" uni0251
Substitution2: "Latin.ss19 subtable" uni0251
Colour: ff00
EndChar

StartChar: b
Encoding: 69 98 70
GlifName: b
Width: 675
VWidth: 0
Flags: MW
AnchorPoint: "LatinBelow.mark" 360 0 basechar 0
AnchorPoint: "LatinAbove.mark" 135 180 basechar 0
LayerCount: 2
Fore
SplineSet
605 313 m 2
 605 287 l 2
 605 142 542 -12 357 -12 c 0
 259 -12 198 50 163 118 c 1
 157 0 l 1
 100 0 l 1
 100 810 l 1
 165 810 l 1
 165 489 l 1
 202 554 263 612 357 612 c 0
 542 612 605 458 605 313 c 2
165 385 m 1
 165 215 l 1
 185 134 242 38 350 38 c 0
 478 38 538 141 538 287 c 2
 538 313 l 2
 538 459 478 562 350 562 c 0
 242 562 185 466 165 385 c 1
EndSplineSet
PickledDataWithLists: "(dp0
Vcom.fontlab.hintData
p1
(dp2
Vvhints
p3
(lp4
(dp5
Vwidth
p6
L10L
sVposition
p7
L81L
sa(dp8
g6
L10L
sg7
L91L
sa(dp9
g6
L10L
sg7
L179L
sa(dp10
g6
L10L
sg7
L211L
sa(dp11
g6
L10L
sg7
L504L
sa(dp12
g6
L10L
sg7
L593L
sasVhhints
p13
(lp14
(dp15
g6
L10L
sg7
L-21L
sa(dp16
g6
L10L
sg7
L41L
sa(dp17
g6
L10L
sg7
L524L
sa(dp18
g6
L10L
sg7
L546L
sa(dp19
g6
L10L
sg7
L607L
sa(dp20
g6
L10L
sg7
L836L
sass."
Colour: ff00
EndChar

StartChar: c
Encoding: 70 99 71
GlifName: c
Width: 605
VWidth: 0
Flags: MW
AnchorPoint: "LatinCedilla.mark" 330 0 basechar 0
AnchorPoint: "LatinBelow.mark" 330 0 basechar 0
AnchorPoint: "LatinAbove.mark" 330 0 basechar 0
LayerCount: 2
Fore
SplineSet
70 287 m 2
 70 313 l 2
 70 460 131 617 331 617 c 0
 478 617 545 520 555 457 c 1
 488 451 l 1
 479 500 428 567 331 567 c 0
 198 567 138 459 138 313 c 2
 138 287 l 2
 138 141 198 33 331 33 c 0
 428 33 479 100 488 149 c 1
 555 143 l 1
 545 80 478 -17 331 -17 c 0
 131 -17 70 140 70 287 c 2
EndSplineSet
PickledDataWithLists: "(dp0
Vcom.fontlab.hintData
p1
(dp2
Vvhints
p3
(lp4
(dp5
Vwidth
p6
L10L
sVposition
p7
L58L
sa(dp8
g6
L10L
sg7
L152L
sa(dp9
g6
L10L
sg7
L433L
sa(dp10
g6
L10L
sg7
L527L
sa(dp11
g6
L10L
sg7
L552L
sasVhhints
p12
(lp13
(dp14
g6
L10L
sg7
L-22L
sa(dp15
g6
L10L
sg7
L44L
sa(dp16
g6
L10L
sg7
L133L
sa(dp17
g6
L10L
sg7
L433L
sa(dp18
g6
L10L
sg7
L548L
sa(dp19
g6
L10L
sg7
L614L
sass."
Colour: ff00
EndChar

StartChar: d
Encoding: 71 100 72
GlifName: d
Width: 680
VWidth: 0
Flags: MW
AnchorPoint: "LatinBelow.mark" 360 0 basechar 0
AnchorPoint: "LatinAbove.mark" 525 180 basechar 0
LayerCount: 2
Fore
SplineSet
70 287 m 2
 70 313 l 2
 70 458 133 612 318 612 c 0
 414 612 474 552 510 486 c 1
 510 810 l 1
 575 810 l 1
 575 132 l 2
 575 67 596 39 650 33 c 1
 633 -12 l 1
 581 -6 519 22 519 121 c 1
 515 120 l 1
 479 51 417 -12 318 -12 c 0
 133 -12 70 142 70 287 c 2
510 385 m 1
 490 466 433 562 325 562 c 0
 197 562 137 459 137 313 c 2
 137 287 l 2
 137 141 197 38 325 38 c 0
 433 38 490 134 510 215 c 1
 510 385 l 1
EndSplineSet
PickledDataWithLists: "(dp0
Vcom.fontlab.hintData
p1
(dp2
Vvhints
p3
(lp4
(dp5
Vwidth
p6
L10L
sVposition
p7
L61L
sa(dp8
g6
L10L
sg7
L149L
sa(dp9
g6
L10L
sg7
L476L
sa(dp10
g6
L10L
sg7
L564L
sa(dp11
g6
L10L
sg7
L679L
sasVhhints
p12
(lp13
(dp14
g6
L10L
sg7
L-21L
sa(dp15
g6
L10L
sg7
L41L
sa(dp16
g6
L10L
sg7
L544L
sa(dp17
g6
L10L
sg7
L606L
sa(dp18
g6
L10L
sg7
L836L
sass."
Colour: ff00
EndChar

StartChar: e
Encoding: 72 101 73
GlifName: e
Width: 640
VWidth: 0
Flags: MW
AnchorPoint: "LatinOgonek.mark" 410 0 basechar 0
AnchorPoint: "LatinBelow.mark" 330 0 basechar 0
AnchorPoint: "LatinAbove.mark" 330 0 basechar 0
LayerCount: 2
Fore
SplineSet
70 286 m 2
 70 314 l 2
 70 460 132 617 327 617 c 0
 486 617 570 501 570 364 c 0
 570 341 568 316 563 293 c 1
 135 293 l 1
 135 286 l 2
 135 140 193 32 327 32 c 0
 427 32 477 99 486 148 c 1
 551 142 l 1
 540 78 472 -17 327 -17 c 0
 130 -17 70 140 70 286 c 2
136 337 m 1
 506 337 l 1
 507 346 507 355 507 364 c 0
 507 492 436 569 327 569 c 0
 201 569 142 470 136 337 c 1
EndSplineSet
PickledDataWithLists: "(dp0
Vcom.fontlab.hintData
p1
(dp2
Vvhints
p3
(lp4
(dp5
Vwidth
p6
L10L
sVposition
p7
L45L
sa(dp8
g6
L10L
sg7
L71L
sa(dp9
g6
L10L
sg7
L159L
sa(dp10
g6
L10L
sg7
L471L
sa(dp11
g6
L10L
sg7
L559L
sa(dp12
g6
L10L
sg7
L570L
sasVhhints
p13
(lp14
(dp15
g6
L10L
sg7
L-20L
sa(dp16
g6
L10L
sg7
L42L
sa(dp17
g6
L10L
sg7
L131L
sa(dp18
g6
L10L
sg7
L552L
sa(dp19
g6
L10L
sg7
L613L
sass."
Colour: ff00
EndChar

StartChar: f
Encoding: 73 102 74
GlifName: f
Width: 400
VWidth: 0
Flags: MW
AnchorPoint: "LatinBelow.mark" 180 0 basechar 0
AnchorPoint: "LatinAbove.mark" 270 180 basechar 0
LayerCount: 2
Fore
SplineSet
40 556 m 1
 40 600 l 1
 140 600 l 1
 140 688 l 2
 140 748 176 827 283 827 c 0
 358 827 401 795 415 785 c 1
 384 748 l 1
 371 757 340 779 287 779 c 0
 231 779 205 737 205 688 c 2
 205 600 l 1
 370 600 l 1
 370 556 l 1
 207 556 l 1
 207 0 l 1
 140 0 l 1
 140 556 l 1
 40 556 l 1
EndSplineSet
PickledDataWithLists: "(dp0
Vcom.fontlab.hintData
p1
(dp2
Vvhints
p3
(lp4
(dp5
Vwidth
p6
L10L
sVposition
p7
L20L
sa(dp8
g6
L10L
sg7
L132L
sa(dp9
g6
L10L
sg7
L166L
sa(dp10
g6
L9L
sg7
L219L
sa(dp11
g6
L10L
sg7
L255L
sa(dp12
g6
L10L
sg7
L399L
sa(dp13
g6
L10L
sg7
L469L
sasVhhints
p14
(lp15
(dp16
g6
L10L
sg7
L-20L
sa(dp17
g6
L10L
sg7
L521L
sa(dp18
g6
L10L
sg7
L586L
sa(dp19
g6
L10L
sg7
L591L
sa(dp20
g6
L10L
sg7
L759L
sa(dp21
g6
L10L
sg7
L803L
sa(dp22
g6
L10L
sg7
L864L
sass."
Colour: ff00
EndChar

StartChar: h
Encoding: 75 104 76
GlifName: h
Width: 665
VWidth: 0
Flags: MW
AnchorPoint: "LatinBelow.mark" 360 0 basechar 0
AnchorPoint: "LatinAbove.mark" 135 180 basechar 0
LayerCount: 2
Fore
SplineSet
100 0 m 1
 100 810 l 1
 165 810 l 1
 165 414 l 1
 205 512 283 612 408 612 c 0
 524 612 580 530 580 426 c 2
 580 0 l 1
 513 0 l 1
 513 424 l 2
 513 516 465 558 393 558 c 0
 271 558 185 418 167 305 c 1
 167 0 l 1
 100 0 l 1
EndSplineSet
PickledDataWithLists: "(dp0
Vcom.fontlab.hintData
p1
(dp2
Vvhints
p3
(lp4
(dp5
Vwidth
p6
L10L
sVposition
p7
L65L
sa(dp8
g6
L10L
sg7
L106L
sa(dp9
g6
L10L
sg7
L187L
sa(dp10
g6
L10L
sg7
L491L
sa(dp11
g6
L10L
sg7
L496L
sa(dp12
g6
L10L
sg7
L579L
sa(dp13
g6
L10L
sg7
L584L
sasVhhints
p14
(lp15
(dp16
g6
L10L
sg7
L-14L
sa(dp17
g6
L10L
sg7
L549L
sa(dp18
g6
L10L
sg7
L611L
sa(dp19
g6
L10L
sg7
L836L
sass."
Colour: ff00
EndChar

StartChar: i
Encoding: 76 105 77
GlifName: i
Width: 300
VWidth: 0
GlyphClass: 3
Flags: MW
AnchorPoint: "LatinOgonek.mark" 155 0 basechar 0
AnchorPoint: "LatinBelow.mark" 150 0 basechar 0
AnchorPoint: "LatinAbove.mark" 150 180 basechar 0
LayerCount: 2
Fore
SplineSet
116 0 m 1
 116 600 l 1
 184 600 l 1
 184 0 l 1
 116 0 l 1
150 841 m 0
 187 841 215 817 215 780 c 0
 215 743 187 719 150 719 c 0
 113 719 85 743 85 780 c 0
 85 817 113 841 150 841 c 0
EndSplineSet
PickledDataWithLists: "(dp0
Vcom.fontlab.hintData
p1
(dp2
Vvhints
p3
(lp4
(dp5
Vwidth
p6
L10L
sVposition
p7
L86L
sa(dp8
g6
L10L
sg7
L116L
sa(dp9
g6
L10L
sg7
L204L
sa(dp10
g6
L10L
sg7
L234L
sa(dp11
g6
L10L
sg7
L244L
sasVhhints
p12
(lp13
(dp14
g6
L10L
sg7
L-21L
sa(dp15
g6
L10L
sg7
L595L
sa(dp16
g6
L10L
sg7
L725L
sa(dp17
g6
L20L
sg7
L826L
sa(dp18
g6
L10L
sg7
L852L
sass."
Substitution2: "Latin.ij.dotless subtable" dotlessi
Ligature2: "Latin.ij subtable" dotlessi uni0307
EndChar

StartChar: j
Encoding: 77 106 78
GlifName: j
Width: 310
VWidth: 0
GlyphClass: 3
Flags: MW
AnchorPoint: "LatinBelow.mark" 150 -180 basechar 0
AnchorPoint: "LatinAbove.mark" 150 180 basechar 0
LayerCount: 2
Fore
SplineSet
5 -178 m 1
 75 -151 127 -109 127 -24 c 2
 127 600 l 1
 193 600 l 1
 193 -27 l 2
 193 -132 116 -191 26 -222 c 1
 5 -178 l 1
160 841 m 0
 197 841 225 817 225 780 c 0
 225 743 197 719 160 719 c 0
 123 719 95 743 95 780 c 0
 95 817 123 841 160 841 c 0
EndSplineSet
PickledDataWithLists: "(dp0
Vcom.fontlab.hintData
p1
(dp2
Vvhints
p3
(lp4
(dp5
Vwidth
p6
L10L
sVposition
p7
L31L
sa(dp8
g6
L10L
sg7
L86L
sa(dp9
g6
L10L
sg7
L126L
sa(dp10
g6
L10L
sg7
L146L
sa(dp11
g6
L10L
sg7
L234L
sa(dp12
g6
L10L
sg7
L244L
sasVhhints
p13
(lp14
(dp15
g6
L10L
sg7
L-246L
sa(dp16
g6
L10L
sg7
L596L
sa(dp17
g6
L10L
sg7
L725L
sa(dp18
g6
L20L
sg7
L826L
sa(dp19
g6
L10L
sg7
L852L
sass."
Substitution2: "Latin.ij.dotless subtable" uni0237
Ligature2: "Latin.ij subtable" uni0237 uni200D uni0307
Ligature2: "Latin.ij subtable" uni0237 uni0307
Ligature2: "Latin.ij subtable" dotlessi uni200D uni0307
EndChar

StartChar: k
Encoding: 78 107 79
GlifName: k
Width: 605
VWidth: 0
Flags: MW
AnchorPoint: "LatinBelow.mark" 360 0 basechar 0
AnchorPoint: "LatinAbove.mark" 135 180 basechar 0
LayerCount: 2
Fore
SplineSet
110 0 m 1
 110 810 l 1
 174 810 l 1
 174 280 l 1
 473 600 l 1
 545 595 l 1
 545 592 l 1
 308 347 l 1
 585 3 l 1
 585 0 l 1
 508 0 l 1
 266 304 l 1
 174 208 l 1
 174 0 l 1
 110 0 l 1
EndSplineSet
PickledDataWithLists: "(dp0
Vcom.fontlab.hintData
p1
(dp2
Vvhints
p3
(lp4
(dp5
Vwidth
p6
L10L
sVposition
p7
L75L
sa(dp8
g6
L10L
sg7
L105L
sa(dp9
g6
L10L
sg7
L194L
sa(dp10
g6
L10L
sg7
L539L
sa(dp11
g6
L10L
sg7
L580L
sasVhhints
p12
(lp13
(dp14
g6
L10L
sg7
L-11L
sa(dp15
g6
L10L
sg7
L596L
sa(dp16
g6
L10L
sg7
L836L
sass."
Colour: ff00
EndChar

StartChar: l
Encoding: 79 108 80
GlifName: l
Width: 315
VWidth: 0
Flags: MW
AnchorPoint: "LatinBelow.mark" 190 0 basechar 0
AnchorPoint: "LatinAbove.mark" 140 180 basechar 0
LayerCount: 2
Fore
SplineSet
110 117 m 2
 110 810 l 1
 177 810 l 1
 177 122 l 2
 177 58 225 40 295 34 c 1
 281 -12 l 1
 205 -6 110 16 110 117 c 2
EndSplineSet
PickledDataWithLists: "(dp0
Vcom.fontlab.hintData
p1
(dp2
Vvhints
p3
(lp4
(dp5
Vwidth
p6
L10L
sVposition
p7
L106L
sa(dp8
g6
L10L
sg7
L111L
sa(dp9
g6
L10L
sg7
L194L
sa(dp10
g6
L10L
sg7
L199L
sa(dp11
g6
L10L
sg7
L315L
sasVhhints
p12
(lp13
(dp14
g6
L10L
sg7
L-23L
sa(dp15
g6
L10L
sg7
L830L
sass."
EndChar

StartChar: m
Encoding: 80 109 81
GlifName: m
Width: 945
VWidth: 0
Flags: MW
AnchorPoint: "LatinBelow.mark" 480 0 basechar 0
AnchorPoint: "LatinAbove.mark" 480 0 basechar 0
LayerCount: 2
Fore
SplineSet
90 597 m 1
 150 603 l 1
 164 447 l 1
 195 528 252 604 353 604 c 0
 451 604 504 538 512 449 c 1
 543 530 599 604 700 604 c 0
 807 604 860 525 860 425 c 2
 860 0 l 1
 793 0 l 1
 793 423 l 2
 793 512 749 551 685 551 c 0
 580 551 526 425 513 322 c 1
 513 0 l 1
 447 0 l 1
 447 423 l 2
 447 512 402 551 338 551 c 0
 233 551 180 425 167 322 c 1
 167 0 l 1
 100 0 l 1
 100 420 l 1
 90 597 l 1
EndSplineSet
PickledDataWithLists: "(dp0
Vcom.fontlab.hintData
p1
(dp2
Vvhints
p3
(lp4
(dp5
Vwidth
p6
L10L
sVposition
p7
L76L
sa(dp8
g6
L10L
sg7
L96L
sa(dp9
g6
L10L
sg7
L167L
sa(dp10
g6
L10L
sg7
L436L
sa(dp11
g6
L10L
sg7
L441L
sa(dp12
g6
L10L
sg7
L776L
sa(dp13
g6
L10L
sg7
L781L
sa(dp14
g6
L10L
sg7
L864L
sa(dp15
g6
L10L
sg7
L869L
sasVhhints
p16
(lp17
(dp18
g6
L10L
sg7
L-19L
sa(dp19
g6
L10L
sg7
L-10L
sa(dp20
g6
L10L
sg7
L549L
sa(dp21
g6
L10L
sg7
L606L
sa(dp22
g6
L10L
sg7
L611L
sass."
Colour: ff00
EndChar

StartChar: n
Encoding: 81 110 82
GlifName: n
Width: 655
VWidth: 0
Flags: MW
AnchorPoint: "LatinBelow.mark" 360 0 basechar 0
AnchorPoint: "LatinAbove.mark" 330 0 basechar 0
LayerCount: 2
Fore
SplineSet
100 0 m 1
 100 420 l 1
 90 597 l 1
 150 603 l 1
 167 421 l 1
 207 517 283 612 402 612 c 0
 515 612 570 530 570 426 c 2
 570 0 l 1
 503 0 l 1
 503 424 l 2
 503 516 455 558 387 558 c 0
 268 558 184 418 167 305 c 1
 167 0 l 1
 100 0 l 1
EndSplineSet
PickledDataWithLists: "(dp0
Vcom.fontlab.hintData
p1
(dp2
Vvhints
p3
(lp4
(dp5
Vwidth
p6
L10L
sVposition
p7
L55L
sa(dp8
g6
L10L
sg7
L96L
sa(dp9
g6
L10L
sg7
L481L
sa(dp10
g6
L10L
sg7
L486L
sa(dp11
g6
L10L
sg7
L569L
sa(dp12
g6
L10L
sg7
L574L
sasVhhints
p13
(lp14
(dp15
g6
L10L
sg7
L-15L
sa(dp16
g6
L10L
sg7
L-10L
sa(dp17
g6
L10L
sg7
L549L
sa(dp18
g6
L10L
sg7
L606L
sa(dp19
g6
L10L
sg7
L611L
sass."
Substitution2: "Latin.sups subtable" n.sups
Substitution2: "Latin.sups subtable" n.sups
Colour: ff00
EndChar

StartChar: o
Encoding: 82 111 83
GlifName: o
Width: 660
VWidth: 0
Flags: MW
AnchorPoint: "LatinOgonek.mark" 400 0 basechar 0
AnchorPoint: "LatinBelow.mark" 330 0 basechar 0
AnchorPoint: "LatinAbove.mark" 330 0 basechar 0
LayerCount: 2
Fore
SplineSet
70 286 m 2
 70 314 l 2
 70 460 130 617 330 617 c 0
 530 617 590 460 590 314 c 2
 590 286 l 2
 590 140 530 -17 330 -17 c 0
 130 -17 70 140 70 286 c 2
330 33 m 0
 464 33 523 140 523 286 c 2
 523 314 l 2
 523 460 464 567 330 567 c 0
 196 567 137 460 137 314 c 2
 137 286 l 2
 137 140 196 33 330 33 c 0
EndSplineSet
PickledDataWithLists: "(dp0
Vcom.fontlab.hintData
p1
(dp2
Vvhints
p3
(lp4
(dp5
Vwidth
p6
L10L
sVposition
p7
L61L
sa(dp8
g6
L10L
sg7
L149L
sa(dp9
g6
L10L
sg7
L441L
sa(dp10
g6
L10L
sg7
L506L
sa(dp11
g6
L10L
sg7
L594L
sasVhhints
p12
(lp13
(dp14
g6
L10L
sg7
L-21L
sa(dp15
g6
L9L
sg7
L42L
sa(dp16
g6
L10L
sg7
L552L
sa(dp17
g6
L10L
sg7
L614L
sass."
Colour: ff00
EndChar

StartChar: p
Encoding: 83 112 84
GlifName: p
Width: 675
VWidth: 0
Flags: MW
AnchorPoint: "LatinBelow.mark" 150 -180 basechar 0
AnchorPoint: "LatinAbove.mark" 330 0 basechar 0
LayerCount: 2
Fore
SplineSet
605 313 m 2
 605 287 l 2
 605 142 542 -12 357 -12 c 0
 263 -12 203 46 167 111 c 1
 167 -210 l 1
 100 -210 l 1
 100 420 l 1
 90 597 l 1
 150 603 l 1
 161 482 l 1
 197 550 260 612 357 612 c 0
 542 612 605 458 605 313 c 2
167 207 m 1
 189 127 245 38 350 38 c 0
 478 38 538 141 538 287 c 2
 538 313 l 2
 538 459 478 562 350 562 c 0
 245 562 189 473 167 393 c 1
 167 207 l 1
EndSplineSet
PickledDataWithLists: "(dp0
Vcom.fontlab.hintData
p1
(dp2
Vvhints
p3
(lp4
(dp5
Vwidth
p6
L10L
sVposition
p7
L41L
sa(dp8
g6
L10L
sg7
L101L
sa(dp9
g6
L10L
sg7
L108L
sa(dp10
g6
L10L
sg7
L193L
sa(dp11
g6
L10L
sg7
L523L
sa(dp12
g6
L10L
sg7
L612L
sasVhhints
p13
(lp14
(dp15
g6
L10L
sg7
L-246L
sa(dp16
g6
L10L
sg7
L-16L
sa(dp17
g6
L10L
sg7
L46L
sa(dp18
g6
L10L
sg7
L549L
sa(dp19
g6
L10L
sg7
L610L
sass."
Colour: ff00
EndChar

StartChar: q
Encoding: 84 113 85
GlifName: q
Width: 675
VWidth: 0
Flags: MW
AnchorPoint: "LatinBelow.mark" 535 -240 basechar 0
AnchorPoint: "LatinAbove.mark" 360 0 basechar 0
LayerCount: 2
Fore
SplineSet
70 287 m 2
 70 313 l 2
 70 458 133 612 318 612 c 0
 416 612 477 550 512 482 c 1
 518 600 l 1
 575 600 l 1
 575 -210 l 1
 510 -210 l 1
 510 111 l 1
 473 46 412 -12 318 -12 c 0
 133 -12 70 142 70 287 c 2
510 215 m 1
 510 385 l 1
 490 466 433 562 325 562 c 0
 197 562 137 459 137 313 c 2
 137 287 l 2
 137 141 197 38 325 38 c 0
 433 38 490 134 510 215 c 1
EndSplineSet
PickledDataWithLists: "(dp0
Vcom.fontlab.hintData
p1
(dp2
Vvhints
p3
(lp4
(dp5
Vwidth
p6
L10L
sVposition
p7
L59L
sa(dp8
g6
L10L
sg7
L149L
sa(dp9
g6
L10L
sg7
L444L
sa(dp10
g6
L10L
sg7
L459L
sa(dp11
g6
L10L
sg7
L471L
sa(dp12
g6
L10L
sg7
L547L
sa(dp13
g6
L10L
sg7
L559L
sa(dp14
g6
L10L
sg7
L649L
sasVhhints
p15
(lp16
(dp17
g6
L10L
sg7
L-261L
sa(dp18
g6
L10L
sg7
L-184L
sa(dp19
g6
L10L
sg7
L-17L
sa(dp20
g6
L10L
sg7
L44L
sa(dp21
g6
L10L
sg7
L66L
sa(dp22
g6
L10L
sg7
L549L
sa(dp23
g6
L10L
sg7
L611L
sass."
Colour: ff00
EndChar

StartChar: r
Encoding: 85 114 86
GlifName: r
Width: 435
VWidth: 0
Flags: MW
AnchorPoint: "LatinBelow.mark" 170 0 basechar 0
AnchorPoint: "LatinAbove.mark" 240 0 basechar 0
LayerCount: 2
Fore
SplineSet
85 596 m 1
 142 603 l 1
 175 442 l 1
 198 528 248 612 350 612 c 0
 377 612 401 607 420 598 c 1
 394 542 l 1
 379 549 361 553 340 553 c 0
 241 553 199 439 187 338 c 1
 187 0 l 1
 120 0 l 1
 120 420 l 1
 85 596 l 1
EndSplineSet
PickledDataWithLists: "(dp0
Vcom.fontlab.hintData
p1
(dp2
Vvhints
p3
(lp4
(dp5
Vwidth
p6
L10L
sVposition
p7
L20L
sa(dp8
g6
L10L
sg7
L171L
sa(dp9
g6
L10L
sg7
L261L
sa(dp10
g6
L10L
sg7
L479L
sasVhhints
p11
(lp12
(dp13
g6
L10L
sg7
L-13L
sa(dp14
g6
L10L
sg7
L524L
sa(dp15
g6
L10L
sg7
L549L
sa(dp16
g6
L10L
sg7
L596L
sa(dp17
g6
L10L
sg7
L611L
sass."
Colour: ff00
EndChar

StartChar: s
Encoding: 86 115 87
GlifName: s
Width: 570
VWidth: 0
Flags: MW
AnchorPoint: "LatinCedilla.mark" 310 0 basechar 0
AnchorPoint: "LatinBelow.mark" 285 0 basechar 0
AnchorPoint: "LatinAbove.mark" 285 0 basechar 0
LayerCount: 2
Fore
SplineSet
60 134 m 1
 125 142 l 1
 133 92 184 32 287 32 c 0
 390 32 446 78 446 149 c 0
 446 214 395 245 357 256 c 0
 312 270 246 291 201 307 c 0
 147 326 76 366 76 452 c 0
 76 547 158 617 285 617 c 0
 418 617 483 531 494 469 c 1
 429 461 l 1
 420 510 375 568 285 568 c 0
 195 568 140 524 140 454 c 0
 140 398 188 369 228 356 c 0
 272 341 340 320 382 307 c 0
 442 289 510 246 510 151 c 0
 510 54 425 -17 285 -17 c 0
 139 -17 71 71 60 134 c 1
EndSplineSet
PickledDataWithLists: "(dp0
Vcom.fontlab.hintData
p1
(dp2
Vvhints
p3
(lp4
(dp5
Vwidth
p6
L10L
sVposition
p7
L60L
sa(dp8
g6
L10L
sg7
L139L
sa(dp9
g6
L10L
sg7
L381L
sa(dp10
g6
L10L
sg7
L431L
sa(dp11
g6
L10L
sg7
L470L
sa(dp12
g6
L10L
sg7
L516L
sasVhhints
p13
(lp14
(dp15
g6
L10L
sg7
L-20L
sa(dp16
g6
L10L
sg7
L42L
sa(dp17
g6
L10L
sg7
L151L
sa(dp18
g6
L10L
sg7
L434L
sa(dp19
g6
L10L
sg7
L554L
sa(dp20
g6
L10L
sg7
L616L
sass."
Colour: ff00
EndChar

StartChar: t
Encoding: 87 116 88
GlifName: t
Width: 415
VWidth: 0
Flags: MW
AnchorPoint: "LatinCedilla.mark" 270 0 basechar 0
AnchorPoint: "LatinBelow.mark" 280 0 basechar 0
AnchorPoint: "LatinAbove.mark" 180 120 basechar 0
LayerCount: 2
Fore
SplineSet
40 556 m 1
 40 600 l 1
 142 600 l 1
 142 730 l 1
 206 735 l 1
 206 600 l 1
 370 600 l 1
 370 556 l 1
 207 556 l 1
 207 123 l 2
 207 55 230 37 276 37 c 0
 323 37 368 54 384 65 c 1
 400 20 l 1
 375 4 325 -12 269 -12 c 0
 191 -12 140 24 140 115 c 2
 140 556 l 1
 40 556 l 1
EndSplineSet
PickledDataWithLists: "(dp0
Vcom.fontlab.hintData
p1
(dp2
Vvhints
p3
(lp4
(dp5
Vwidth
p6
L10L
sVposition
p7
L20L
sa(dp8
g6
L10L
sg7
L131L
sa(dp9
g6
L10L
sg7
L136L
sa(dp10
g6
L10L
sg7
L141L
sa(dp11
g6
L10L
sg7
L219L
sa(dp12
g6
L10L
sg7
L225L
sa(dp13
g6
L10L
sg7
L399L
sa(dp14
g6
L10L
sg7
L439L
sasVhhints
p15
(lp16
(dp17
g6
L10L
sg7
L-18L
sa(dp18
g6
L10L
sg7
L41L
sa(dp19
g6
L10L
sg7
L86L
sa(dp20
g6
L10L
sg7
L524L
sa(dp21
g6
L10L
sg7
L586L
sa(dp22
g6
L10L
sg7
L741L
sass."
Colour: ff00
EndChar

StartChar: u
Encoding: 88 117 89
GlifName: u
Width: 620
VWidth: 0
Flags: MW
AnchorPoint: "LatinOgonek.mark" 380 0 basechar 0
AnchorPoint: "LatinBelow.mark" 310 0 basechar 0
AnchorPoint: "LatinAbove.mark" 310 0 basechar 0
LayerCount: 2
Fore
SplineSet
80 181 m 2
 80 600 l 1
 147 600 l 1
 147 181 l 2
 147 86 214 33 310 33 c 0
 406 33 473 86 473 181 c 2
 473 600 l 1
 540 600 l 1
 540 181 l 2
 540 66 450 -17 310 -17 c 0
 170 -17 80 66 80 181 c 2
EndSplineSet
PickledDataWithLists: "(dp0
Vcom.fontlab.hintData
p1
(dp2
Vvhints
p3
(lp4
(dp5
Vwidth
p6
L10L
sVposition
p7
L81L
sa(dp8
g6
L10L
sg7
L86L
sa(dp9
g6
L10L
sg7
L174L
sa(dp10
g6
L10L
sg7
L471L
sa(dp11
g6
L10L
sg7
L649L
sasVhhints
p12
(lp13
(dp14
g6
L10L
sg7
L-21L
sa(dp15
g6
L10L
sg7
L-16L
sa(dp16
g6
L10L
sg7
L41L
sa(dp17
g6
L10L
sg7
L601L
sass."
EndChar

StartChar: v
Encoding: 89 118 90
GlifName: v
Width: 600
VWidth: 0
Flags: MW
AnchorPoint: "LatinBelow.mark" 300 0 basechar 0
AnchorPoint: "LatinAbove.mark" 300 0 basechar 0
LayerCount: 2
Fore
SplineSet
22 588 m 1
 22 593 l 1
 120 600 l 1
 300 100 l 1
 480 600 l 1
 578 593 l 1
 578 588 l 1
 336 0 l 1
 264 0 l 1
 22 588 l 1
EndSplineSet
PickledDataWithLists: "(dp0
Vcom.fontlab.hintData
p1
(dp2
Vvhints
p3
(lp4
(dp5
Vwidth
p6
L10L
sVposition
p7
L35L
sa(dp8
g6
L10L
sg7
L584L
sasVhhints
p9
(lp10
(dp11
g6
L10L
sg7
L-18L
sa(dp12
g6
L10L
sg7
L581L
sa(dp13
g6
L10L
sg7
L591L
sass."
Colour: ff00
EndChar

StartChar: w
Encoding: 90 119 91
GlifName: w
Width: 830
VWidth: 0
Flags: MW
AnchorPoint: "LatinBelow.mark" 415 0 basechar 0
AnchorPoint: "LatinAbove.mark" 415 0 basechar 0
LayerCount: 2
Fore
SplineSet
795 590 m 1
 617 0 l 1
 559 0 l 1
 415 490 l 1
 271 0 l 1
 213 0 l 1
 35 590 l 1
 35 594 l 1
 106 600 l 1
 246 93 l 1
 387 585 l 1
 443 585 l 1
 584 93 l 1
 724 600 l 1
 795 594 l 1
 795 590 l 1
EndSplineSet
PickledDataWithLists: "(dp0
Vcom.fontlab.hintData
p1
(dp2
Vvhints
p3
(lp4
(dp5
Vwidth
p6
L10L
sVposition
p7
L41L
sa(dp8
g6
L10L
sg7
L790L
sasVhhints
p9
(lp10
(dp11
g6
L10L
sg7
L-11L
sa(dp12
g6
L10L
sg7
L568L
sa(dp13
g6
L10L
sg7
L590L
sass."
Colour: ff00
EndChar

StartChar: x
Encoding: 91 120 92
GlifName: x
Width: 600
VWidth: 0
Flags: MW
AnchorPoint: "LatinBelow.mark" 300 0 basechar 0
AnchorPoint: "LatinAbove.mark" 300 0 basechar 0
LayerCount: 2
Fore
SplineSet
65 591 m 1
 65 595 l 1
 136 600 l 1
 300 366 l 1
 464 600 l 1
 535 595 l 1
 535 591 l 1
 337 325 l 1
 575 3 l 1
 575 0 l 1
 501 0 l 1
 300 274 l 1
 99 0 l 1
 25 0 l 1
 25 3 l 1
 263 325 l 1
 65 591 l 1
EndSplineSet
PickledDataWithLists: "(dp0
Vcom.fontlab.hintData
p1
(dp2
Vvhints
p3
(lp4
(dp5
Vwidth
p6
L10L
sVposition
p7
L26L
sa(dp8
g6
L10L
sg7
L71L
sa(dp9
g6
L10L
sg7
L524L
sa(dp10
g6
L10L
sg7
L559L
sasVhhints
p11
(lp12
(dp13
g6
L10L
sg7
L-6L
sa(dp14
g6
L10L
sg7
L5L
sa(dp15
g6
L10L
sg7
L591L
sass."
Colour: ff00
EndChar

StartChar: y
Encoding: 92 121 93
GlifName: y
Width: 600
VWidth: 0
Flags: MW
AnchorPoint: "LatinBelow.mark" 300 -180 basechar 0
AnchorPoint: "LatinAbove.mark" 300 0 basechar 0
LayerCount: 2
Fore
SplineSet
30 591 m 1
 30 595 l 1
 102 600 l 1
 300 74 l 1
 498 600 l 1
 570 595 l 1
 570 591 l 1
 316 -34 l 2
 282 -110 235 -227 139 -227 c 0
 92 -227 62 -204 40 -185 c 1
 74 -143 l 1
 92 -161 110 -180 138 -180 c 0
 189 -180 225 -101 260 -21 c 2
 271 3 l 1
 30 591 l 1
EndSplineSet
PickledDataWithLists: "(dp0
Vcom.fontlab.hintData
p1
(dp2
Vvhints
p3
(lp4
(dp5
Vwidth
p6
L10L
sVposition
p7
L56L
sa(dp8
g6
L10L
sg7
L130L
sasVhhints
p9
(lp10
(dp11
g6
L10L
sg7
L-257L
sa(dp12
g6
L10L
sg7
L-195L
sa(dp13
g6
L10L
sg7
L-164L
sa(dp14
g6
L10L
sg7
L4L
sa(dp15
g6
L10L
sg7
L584L
sa(dp16
g6
L10L
sg7
L595L
sass."
Colour: ff00
EndChar

StartChar: z
Encoding: 93 122 94
GlifName: z
Width: 530
VWidth: 0
Flags: MW
AnchorPoint: "LatinBelow.mark" 265 0 basechar 0
AnchorPoint: "LatinAbove.mark" 265 0 basechar 0
LayerCount: 2
Fore
SplineSet
45 36 m 1
 389 551 l 1
 63 551 l 1
 63 600 l 1
 473 600 l 1
 478 564 l 1
 134 49 l 1
 485 49 l 1
 485 0 l 1
 49 0 l 1
 45 36 l 1
EndSplineSet
PickledDataWithLists: "(dp0
Vcom.fontlab.hintData
p1
(dp2
Vvhints
p3
(lp4
(dp5
Vwidth
p6
L10L
sVposition
p7
L46L
sa(dp8
g6
L10L
sg7
L61L
sa(dp9
g6
L10L
sg7
L531L
sa(dp10
g6
L10L
sg7
L544L
sasVhhints
p11
(lp12
(dp13
g6
L10L
sg7
L-17L
sa(dp14
g6
L10L
sg7
L51L
sa(dp15
g6
L10L
sg7
L59L
sa(dp16
g6
L15L
sg7
L525L
sa(dp17
g6
L10L
sg7
L587L
sa(dp18
g6
L10L
sg7
L592L
sass."
Colour: ff00
EndChar

StartChar: braceleft
Encoding: 94 123 95
GlifName: braceleft
Width: 390
VWidth: 0
Flags: MW
LayerCount: 2
Fore
SplineSet
60 376 m 1
 60 390 l 1
 60 404 l 1
 101 409 158 450 158 537 c 0
 158 578 127 681 127 740 c 0
 127 840 178 900 260 900 c 2
 300 900 l 1
 300 863 l 1
 267 863 l 2
 225 863 187 835 187 737 c 0
 187 684 217 581 217 532 c 0
 217 457 176 410 131 390 c 1
 176 370 217 323 217 248 c 0
 217 199 187 96 187 43 c 0
 187 -55 225 -83 267 -83 c 2
 300 -83 l 1
 300 -120 l 1
 260 -120 l 2
 178 -120 127 -60 127 40 c 0
 127 99 158 202 158 243 c 0
 158 330 101 371 60 376 c 1
EndSplineSet
PickledDataWithLists: "(dp0
Vcom.fontlab.hintData
p1
(dp2
Vvhints
p3
(lp4
(dp5
Vwidth
p6
L10L
sVposition
p7
L22L
sa(dp8
g6
L10L
sg7
L112L
sa(dp9
g6
L10L
sg7
L128L
sa(dp10
g6
L10L
sg7
L182L
sa(dp11
g6
L10L
sg7
L197L
sa(dp12
g6
L10L
sg7
L205L
sa(dp13
g6
L10L
sg7
L289L
sasVhhints
p14
(lp15
(dp16
g6
L10L
sg7
L-89L
sa(dp17
g6
L10L
sg7
L-41L
sa(dp18
g6
L10L
sg7
L830L
sa(dp19
g6
L10L
sg7
L879L
sass."
EndChar

StartChar: bar
Encoding: 95 124 96
GlifName: bar
Width: 360
VWidth: 0
Flags: MW
LayerCount: 2
Fore
SplineSet
150 -120 m 1
 150 900 l 1
 210 900 l 1
 210 -120 l 1
 150 -120 l 1
EndSplineSet
PickledDataWithLists: "(dp0
Vcom.fontlab.hintData
p1
(dp2
Vvhints
p3
(lp4
(dp5
Vwidth
p6
L10L
sVposition
p7
L131L
sa(dp8
g6
L10L
sg7
L209L
sa(dp9
g6
L10L
sg7
L216L
sasVhhints
p10
(lp11
(dp12
g6
L10L
sg7
L-92L
sa(dp13
g6
L10L
sg7
L882L
sass."
EndChar

StartChar: asciitilde
Encoding: 97 126 98
GlifName: asciitilde
Width: 600
VWidth: 0
Flags: MW
LayerCount: 2
Fore
SplineSet
60 334 m 1
 81 391 118 473 199 473 c 0
 254 473 290 437 319 408 c 0
 349 378 373 356 402 356 c 0
 448 356 481 414 495 460 c 1
 540 446 l 1
 521 389 482 307 401 307 c 0
 346 307 310 343 281 372 c 0
 251 402 227 424 198 424 c 0
 151 424 120 366 105 320 c 1
 60 334 l 1
EndSplineSet
PickledDataWithLists: "(dp0
Vcom.fontlab.hintData
p1
(dp2
Vvhints
p3
(lp4
(dp5
Vwidth
p6
L10L
sVposition
p7
L51L
sa(dp8
g6
L10L
sg7
L539L
sasVhhints
p9
(lp10
(dp11
g6
L10L
sg7
L249L
sa(dp12
g6
L10L
sg7
L260L
sa(dp13
g6
L10L
sg7
L311L
sa(dp14
g6
L10L
sg7
L359L
sa(dp15
g6
L10L
sg7
L411L
sa(dp16
g6
L10L
sg7
L421L
sass."
EndChar

StartChar: copyright
Encoding: 107 169 100
GlifName: copyright
Width: 1020
VWidth: 0
Flags: MW
LayerCount: 2
Fore
SplineSet
345 411 m 2
 345 505 385 607 517 607 c 0
 614 607 658 544 665 504 c 1
 616 499 l 1
 610 529 578 571 517 571 c 0
 433 571 395 505 395 411 c 2
 395 395 l 2
 395 301 433 235 517 235 c 0
 578 235 610 277 616 307 c 1
 665 302 l 1
 658 262 614 199 517 199 c 0
 385 199 345 301 345 395 c 2
 345 411 l 2
510 1 m 0
 260 1 99 173 99 405 c 0
 99 637 260 809 510 809 c 0
 760 809 921 637 921 405 c 0
 921 173 760 1 510 1 c 0
510 39 m 0
 734 39 879 189 879 405 c 0
 879 621 734 771 510 771 c 0
 286 771 141 621 141 405 c 0
 141 189 286 39 510 39 c 0
EndSplineSet
PickledDataWithLists: "(dp0
Vcom.fontlab.hintData
p1
(dp2
Vvhints
p3
(lp4
(dp5
Vwidth
p6
L10L
sVposition
p7
L83L
sa(dp8
g6
L10L
sg7
L147L
sa(dp9
g6
L10L
sg7
L315L
sa(dp10
g6
L10L
sg7
L395L
sa(dp11
g6
L10L
sg7
L565L
sa(dp12
g6
L10L
sg7
L645L
sa(dp13
g6
L10L
sg7
L661L
sa(dp14
g6
L10L
sg7
L798L
sa(dp15
g6
L10L
sg7
L863L
sa(dp16
g6
L10L
sg7
L927L
sasVhhints
p17
(lp18
(dp19
g6
L10L
sg7
L-27L
sa(dp20
g6
L10L
sg7
L17L
sa(dp21
g6
L10L
sg7
L170L
sa(dp22
g6
L10L
sg7
L224L
sa(dp23
g6
L10L
sg7
L283L
sa(dp24
g6
L10L
sg7
L472L
sa(dp25
g6
L10L
sg7
L549L
sa(dp26
g6
L10L
sg7
L603L
sa(dp27
g6
L10L
sg7
L773L
sa(dp28
g6
L10L
sg7
L817L
sass."
EndChar

StartChar: registered
Encoding: 112 174 101
GlifName: registered
Width: 870
VWidth: 0
Flags: MW
LayerCount: 2
Fore
SplineSet
435 274 m 0
 232 274 102 413 102 600 c 0
 102 787 232 926 435 926 c 0
 638 926 768 787 768 600 c 0
 768 413 638 274 435 274 c 0
435 304 m 0
 614 304 732 425 732 600 c 0
 732 775 614 896 435 896 c 0
 256 896 138 775 138 600 c 0
 138 425 256 304 435 304 c 0
419 565 m 1
 396 565 374 565 356 566 c 1
 356 400 l 1
 309 400 l 1
 309 569 l 1
 309 790 l 1
 323 791 379 794 435 794 c 0
 525 794 592 754 592 680 c 0
 592 616 542 576 470 567 c 1
 606 402 l 1
 606 400 l 1
 552 400 l 1
 419 565 l 1
356 601 m 1
 374 600 402 599 430 599 c 0
 494 599 544 622 544 680 c 0
 544 738 494 760 430 760 c 0
 402 760 374 759 356 758 c 1
 356 601 l 1
EndSplineSet
PickledDataWithLists: "(dp0
Vcom.fontlab.hintData
p1
(dp2
Vvhints
p3
(lp4
(dp5
Vwidth
p6
L10L
sVposition
p7
L90L
sa(dp8
g6
L10L
sg7
L140L
sa(dp9
g6
L10L
sg7
L263L
sa(dp10
g6
L10L
sg7
L301L
sa(dp11
g6
L10L
sg7
L303L
sa(dp12
g6
L10L
sg7
L363L
sa(dp13
g6
L10L
sg7
L480L
sa(dp14
g6
L10L
sg7
L544L
sa(dp15
g6
L10L
sg7
L557L
sa(dp16
g6
L10L
sg7
L628L
sa(dp17
g6
L10L
sg7
L677L
sa(dp18
g6
L10L
sg7
L727L
sasVhhints
p19
(lp20
(dp21
g6
L10L
sg7
L319L
sa(dp22
g6
L10L
sg7
L351L
sa(dp23
g6
L10L
sg7
L469L
sa(dp24
g6
L20L
sg7
L596L
sa(dp25
g6
L10L
sg7
L644L
sa(dp26
g6
L10L
sg7
L654L
sa(dp27
g6
L11L
sg7
L725L
sa(dp28
g6
L10L
sg7
L757L
sa(dp29
g6
L10L
sg7
L799L
sa(dp30
g6
L10L
sg7
L919L
sa(dp31
g6
L10L
sg7
L951L
sass."
EndChar

StartChar: guillemotleft
Encoding: 109 171 102
GlifName: guillemotleft
Width: 780
VWidth: 0
Flags: HMW
LayerCount: 2
Fore
SplineSet
90 345 m 1
 90 375 l 1
 385 630 l 1
 410 595 l 1
 162 360 l 1
 410 125 l 1
 385 90 l 1
 90 345 l 1
370 345 m 1
 370 375 l 1
 665 630 l 1
 690 595 l 1
 442 360 l 1
 690 125 l 1
 665 90 l 1
 370 345 l 1
EndSplineSet
PickledDataWithLists: "(dp0
Vcom.fontlab.hintData
p1
(dp2
Vvhints
p3
(lp4
(dp5
Vwidth
p6
L10L
sVposition
p7
L66L
sa(dp8
g6
L10L
sg7
L336L
sa(dp9
g6
L10L
sg7
L356L
sa(dp10
g6
L10L
sg7
L368L
sa(dp11
g6
L10L
sg7
L626L
sa(dp12
g6
L10L
sg7
L638L
sasVhhints
p13
(lp14
(dp15
g6
L10L
sg7
L65L
sa(dp16
g6
L10L
sg7
L605L
sass."
EndChar

StartChar: figuredash
Encoding: 706 8210 113
GlifName: figuredash
Width: 660
VWidth: 0
Flags: MW
LayerCount: 2
Fore
SplineSet
105 386 m 1
 555 386 l 1
 555 334 l 1
 105 334 l 1
 105 386 l 1
EndSplineSet
PickledDataWithLists: "(dp0
Vcom.fontlab.hintData
p1
(dp2
Vvhints
p3
(lp4
(dp5
Vwidth
p6
L10L
sVposition
p7
L105L
sa(dp8
g6
L10L
sg7
L604L
sasVhhints
p9
(lp10
(dp11
g6
L10L
sg7
L301L
sa(dp12
g6
L10L
sg7
L364L
sa(dp13
g6
L10L
sg7
L371L
sass."
EndChar

StartChar: emdash
Encoding: 708 8212 116
GlifName: emdash
Width: 1200
VWidth: 0
Flags: MW
LayerCount: 2
Fore
SplineSet
105 386 m 1
 1095 386 l 1
 1095 334 l 1
 105 334 l 1
 105 386 l 1
EndSplineSet
PickledDataWithLists: "(dp0
Vcom.fontlab.hintData
p1
(dp2
Vvhints
p3
(lp4
(dp5
Vwidth
p6
L10L
sVposition
p7
L90L
sa(dp8
g6
L10L
sg7
L1099L
sasVhhints
p9
(lp10
(dp11
g6
L10L
sg7
L299L
sa(dp12
g6
L10L
sg7
L304L
sa(dp13
g6
L10L
sg7
L309L
sa(dp14
g6
L10L
sg7
L361L
sa(dp15
g6
L10L
sg7
L366L
sa(dp16
g6
L10L
sg7
L371L
sass."
EndChar

StartChar: bullet
Encoding: 718 8226 121
GlifName: bullet
Width: 660
VWidth: 0
Flags: MW
LayerCount: 2
Fore
SplineSet
213 360 m 0
 213 427 264 469 330 469 c 0
 396 469 447 427 447 360 c 0
 447 293 396 251 330 251 c 0
 264 251 213 293 213 360 c 0
EndSplineSet
PickledDataWithLists: "(dp0
Vcom.fontlab.hintData
p1
(dp2
Vvhints
p3
(lp4
(dp5
Vwidth
p6
L10L
sVposition
p7
L231L
sa(dp8
g6
L10L
sg7
L479L
sasVhhints
p9
(lp10
(dp11
g6
L10L
sg7
L234L
sa(dp12
g6
L10L
sg7
L456L
sass."
EndChar

StartChar: Euro
Encoding: 756 8364 124
GlifName: E_uro
Width: 660
VWidth: 0
Flags: MW
LayerCount: 2
Fore
SplineSet
30 444 m 1
 30 486 l 1
 100 486 l 1
 116 648 186 797 366 797 c 0
 521 797 585 671 596 596 c 1
 530 589 l 1
 520 658 466 746 366 746 c 0
 248 746 183 640 167 486 c 1
 470 486 l 1
 470 444 l 1
 164 444 l 1
 163 432 163 420 163 407 c 2
 163 373 l 2
 163 360 163 348 164 336 c 1
 470 336 l 1
 470 294 l 1
 167 294 l 1
 183 140 248 34 366 34 c 0
 466 34 520 122 530 191 c 1
 596 184 l 1
 585 109 521 -17 366 -17 c 0
 186 -17 116 132 100 294 c 1
 30 294 l 1
 30 336 l 1
 97 336 l 1
 96 348 96 361 96 373 c 2
 96 407 l 2
 96 419 96 432 97 444 c 1
 30 444 l 1
EndSplineSet
PickledDataWithLists: "(dp0
Vcom.fontlab.hintData
p1
(dp2
Vvhints
p3
(lp4
(dp5
Vwidth
p6
L10L
sVposition
p7
L21L
sa(dp8
g6
L10L
sg7
L115L
sa(dp9
g6
L10L
sg7
L203L
sa(dp10
g6
L10L
sg7
L484L
sa(dp11
g6
L10L
sg7
L659L
sasVhhints
p12
(lp13
(dp14
g6
L10L
sg7
L-15L
sa(dp15
g6
L9L
sg7
L48L
sa(dp16
g6
L10L
sg7
L165L
sa(dp17
g6
L10L
sg7
L268L
sa(dp18
g6
L10L
sg7
L323L
sa(dp19
g6
L10L
sg7
L448L
sa(dp20
g6
L10L
sg7
L453L
sa(dp21
g6
L10L
sg7
L503L
sa(dp22
g6
L10L
sg7
L590L
sa(dp23
g6
L10L
sg7
L745L
sa(dp24
g6
L10L
sg7
L806L
sass."
EndChar

StartChar: trademark
Encoding: 767 8482 125
GlifName: trademark
Width: 765
VWidth: 0
Flags: MW
LayerCount: 2
Fore
SplineSet
21 864 m 1
 21 900 l 1
 294 900 l 1
 294 864 l 1
 182 864 l 1
 182 510 l 1
 134 510 l 1
 134 864 l 1
 21 864 l 1
712 510 m 1
 664 510 l 1
 664 810 l 1
 552 608 l 1
 528 608 l 1
 416 810 l 1
 416 510 l 1
 368 510 l 1
 368 896 l 1
 408 900 l 1
 540 657 l 1
 672 900 l 1
 712 896 l 1
 712 510 l 1
EndSplineSet
PickledDataWithLists: "(dp0
Vcom.fontlab.hintData
p1
(dp2
Vvhints
p3
(lp4
(dp5
Vwidth
p6
L10L
sVposition
p7
L39L
sa(dp8
g6
L10L
sg7
L180L
sa(dp9
g6
L10L
sg7
L251L
sa(dp10
g6
L10L
sg7
L383L
sa(dp11
g6
L10L
sg7
L421L
sa(dp12
g6
L10L
sg7
L440L
sa(dp13
g6
L10L
sg7
L504L
sa(dp14
g6
L10L
sg7
L735L
sa(dp15
g6
L10L
sg7
L800L
sa(dp16
g6
L10L
sg7
L819L
sasVhhints
p17
(lp18
(dp19
g6
L10L
sg7
L381L
sa(dp20
g6
L10L
sg7
L390L
sa(dp21
g6
L10L
sg7
L395L
sa(dp22
g6
L10L
sg7
L473L
sa(dp23
g6
L10L
sg7
L745L
sa(dp24
g6
L10L
sg7
L751L
sa(dp25
g6
L10L
sg7
L803L
sass."
EndChar

StartChar: uni25CC
Encoding: 806 9676 126
GlifName: uni25C_C_
Width: 720
VWidth: 0
GlyphClass: 2
Flags: MW
AnchorPoint: "LatinCedilla.mark" 380 0 basechar 0
AnchorPoint: "LatinBelow.mark" 360 0 basechar 0
AnchorPoint: "LatinAbove.mark" 360 0 basechar 0
LayerCount: 2
Fore
SplineSet
390 15 m 0
 390 -2 377 -15 360 -15 c 0
 343 -15 330 -2 330 15 c 0
 330 32 343 45 360 45 c 0
 377 45 390 32 390 15 c 0
390 585 m 0
 390 568 377 555 360 555 c 0
 343 555 330 568 330 585 c 0
 330 602 343 615 360 615 c 0
 377 615 390 602 390 585 c 0
645 330 m 0
 662 330 675 317 675 300 c 0
 675 283 662 270 645 270 c 0
 628 270 615 283 615 300 c 0
 615 317 628 330 645 330 c 0
75 330 m 0
 92 330 105 317 105 300 c 0
 105 283 92 270 75 270 c 0
 58 270 45 283 45 300 c 0
 45 317 58 330 75 330 c 0
97 439 m 0
 114 439 127 426 127 409 c 0
 127 392 114 379 97 379 c 0
 80 379 67 392 67 409 c 0
 67 426 80 439 97 439 c 0
97 221 m 0
 114 221 127 208 127 191 c 0
 127 174 114 161 97 161 c 0
 80 161 67 174 67 191 c 0
 67 208 80 221 97 221 c 0
623 439 m 0
 640 439 653 426 653 409 c 0
 653 392 640 379 623 379 c 0
 606 379 593 392 593 409 c 0
 593 426 606 439 623 439 c 0
623 221 m 0
 640 221 653 208 653 191 c 0
 653 174 640 161 623 161 c 0
 606 161 593 174 593 191 c 0
 593 208 606 221 623 221 c 0
158 531 m 0
 175 531 188 518 188 501 c 0
 188 484 175 471 158 471 c 0
 141 471 128 484 128 501 c 0
 128 518 141 531 158 531 c 0
561 531 m 0
 578 531 591 518 591 501 c 0
 591 484 578 471 561 471 c 0
 544 471 531 484 531 501 c 0
 531 518 544 531 561 531 c 0
158 128 m 0
 175 128 188 115 188 98 c 0
 188 81 175 68 158 68 c 0
 141 68 128 81 128 98 c 0
 128 115 141 128 158 128 c 0
561 128 m 0
 578 128 591 115 591 98 c 0
 591 81 578 68 561 68 c 0
 544 68 531 81 531 98 c 0
 531 115 544 128 561 128 c 0
469 67 m 0
 486 67 499 54 499 37 c 0
 499 20 486 7 469 7 c 0
 452 7 439 20 439 37 c 0
 439 54 452 67 469 67 c 0
251 67 m 0
 268 67 281 54 281 37 c 0
 281 20 268 7 251 7 c 0
 234 7 221 20 221 37 c 0
 221 54 234 67 251 67 c 0
469 593 m 0
 486 593 499 580 499 563 c 0
 499 546 486 533 469 533 c 0
 452 533 439 546 439 563 c 0
 439 580 452 593 469 593 c 0
251 593 m 0
 268 593 281 580 281 563 c 0
 281 546 268 533 251 533 c 0
 234 533 221 546 221 563 c 0
 221 580 234 593 251 593 c 0
EndSplineSet
PickledDataWithLists: "(dp0
Vcom.fontlab.hintData
p1
(dp2
Vvhints
p3
(lp4
(dp5
Vwidth
p6
L10L
sVposition
p7
L40L
sa(dp8
g6
L10L
sg7
L76L
sa(dp9
g6
L10L
sg7
L90L
sa(dp10
g6
L10L
sg7
L132L
sa(dp11
g6
L10L
sg7
L180L
sa(dp12
g6
L10L
sg7
L238L
sa(dp13
g6
L10L
sg7
L325L
sa(dp14
g6
L10L
sg7
L385L
sa(dp15
g6
L10L
sg7
L472L
sa(dp16
g6
L10L
sg7
L528L
sa(dp17
g6
L10L
sg7
L581L
sa(dp18
g6
L10L
sg7
L620L
sa(dp19
g6
L10L
sg7
L631L
sa(dp20
g6
L10L
sg7
L670L
sasVhhints
p21
(lp22
(dp23
g6
L10L
sg7
L-20L
sa(dp24
g6
L10L
sg7
L16L
sa(dp25
g6
L10L
sg7
L30L
sa(dp26
g6
L10L
sg7
L69L
sa(dp27
g6
L10L
sg7
L122L
sa(dp28
g6
L10L
sg7
L178L
sa(dp29
g6
L10L
sg7
L265L
sa(dp30
g6
L10L
sg7
L325L
sa(dp31
g6
L10L
sg7
L410L
sa(dp32
g6
L10L
sg7
L468L
sa(dp33
g6
L10L
sg7
L518L
sa(dp34
g6
L10L
sg7
L560L
sa(dp35
g6
L10L
sg7
L574L
sa(dp36
g6
L10L
sg7
L610L
sass."
Colour: ff00
EndChar

StartChar: uni0E01
Encoding: 401 3585 127
GlifName: uni0E_01
Width: 655
VWidth: 0
GlyphClass: 2
Flags: MW
LayerCount: 2
Fore
SplineSet
116 0 m 25
 116 299 l 2
 116 355 143 388 189 400 c 1
 65 422 l 1
 79 525 163 617 315 617 c 0
 466 617 565 532 565 407 c 2
 565 0 l 1
 502 0 l 1
 502 407 l 2
 502 512 427 568 315 568 c 0
 214 568 153 517 133 441 c 1
 290 412 l 1
 283 382 l 1
 279 383 262 384 253 384 c 0
 207 384 179 359 179 304 c 2
 179 0 l 25
 116 0 l 25
EndSplineSet
PickledDataWithLists: "(dp0
Vcom.fontlab.hintData
p1
(dp2
Vvhints
p3
(lp4
(dp5
Vwidth
p6
L10L
sVposition
p7
L91L
sa(dp8
g6
L10L
sg7
L105L
sa(dp9
g6
L10L
sg7
L179L
sa(dp10
g6
L10L
sg7
L193L
sa(dp11
g6
L10L
sg7
L467L
sa(dp12
g6
L10L
sg7
L476L
sa(dp13
g6
L10L
sg7
L559L
sa(dp14
g6
L10L
sg7
L564L
sasVhhints
p15
(lp16
(dp17
g6
L10L
sg7
L-16L
sa(dp18
g6
L10L
sg7
L4L
sa(dp19
g6
L10L
sg7
L544L
sa(dp20
g6
L10L
sg7
L606L
sass."
EndChar

StartChar: uni0E02
Encoding: 402 3586 128
GlifName: uni0E_02
Width: 635
VWidth: 0
GlyphClass: 2
Flags: MW
LayerCount: 2
Fore
SplineSet
129 537 m 0
 94 537 70 512 70 478 c 0
 70 444 94 419 129 419 c 0
 164 419 188 444 188 478 c 0
 188 512 164 537 129 537 c 0
30 478 m 0
 30 549 90 611 195 611 c 0
 297 611 360 556 360 473 c 0
 360 323 193 299 193 151 c 0
 193 76 251 32 335 32 c 0
 418 32 477 79 477 170 c 2
 477 600 l 1
 540 600 l 1
 540 170 l 2
 540 62 461 -17 335 -17 c 0
 210 -17 130 52 130 147 c 0
 130 323 311 342 311 477 c 0
 311 540 266 576 190 576 c 0
 173 576 157 574 142 570 c 1
 193 565 228 528 228 478 c 0
 228 424 187 385 129 385 c 0
 71 385 30 424 30 478 c 0
EndSplineSet
PickledDataWithLists: "(dp0
Vcom.fontlab.hintData
p1
(dp2
Vvhints
p3
(lp4
(dp5
Vwidth
p6
L10L
sVposition
p7
L14L
sa(dp8
g6
L10L
sg7
L547L
sasVhhints
p9
(lp10
(dp11
g6
L10L
sg7
L-19L
sa(dp12
g6
L10L
sg7
L432L
sa(dp13
g6
L10L
sg7
L584L
sa(dp14
g6
L10L
sg7
L594L
sass."
EndChar

StartChar: uni0E03
Encoding: 403 3587 129
GlifName: uni0E_03
Width: 635
VWidth: 0
GlyphClass: 2
Flags: MW
LayerCount: 2
Fore
SplineSet
130 147 m 0
 130 323 314 348 314 490 c 0
 314 499 314 507 313 515 c 1
 289 457 239 410 153 410 c 0
 66 410 30 456 30 514 c 0
 30 568 71 607 129 607 c 0
 187 607 228 568 228 514 c 0
 228 486 217 462 198 445 c 1
 260 466 296 531 303 598 c 1
 329 602 l 1
 346 570 361 539 361 484 c 0
 361 334 194 299 194 151 c 0
 194 76 251 32 335 32 c 0
 418 32 477 79 477 170 c 2
 477 600 l 1
 540 600 l 1
 540 170 l 2
 540 62 461 -17 335 -17 c 0
 210 -17 130 52 130 147 c 0
129 573 m 0
 94 573 70 548 70 514 c 0
 70 480 94 455 129 455 c 0
 164 455 188 480 188 514 c 0
 188 548 164 573 129 573 c 0
EndSplineSet
PickledDataWithLists: "(dp0
Vcom.fontlab.hintData
p1
(dp2
Vvhints
p3
(lp4
(dp5
Vwidth
p6
L10L
sVposition
p7
L11L
sa(dp8
g6
L10L
sg7
L224L
sa(dp9
g6
L10L
sg7
L230L
sa(dp10
g6
L10L
sg7
L297L
sasVhhints
p11
(lp12
(dp13
g6
L10L
sg7
L-24L
sa(dp14
g6
L10L
sg7
L400L
sa(dp15
g6
L10L
sg7
L584L
sa(dp16
g6
L10L
sg7
L603L
sass."
EndChar

StartChar: uni0E04
Encoding: 404 3588 130
GlifName: uni0E_04
Width: 665
VWidth: 0
GlyphClass: 2
Flags: MW
LayerCount: 2
Fore
SplineSet
330 382 m 0
 295 382 271 357 271 323 c 0
 271 289 295 264 330 264 c 0
 365 264 389 289 389 323 c 0
 389 357 365 382 330 382 c 0
330 416 m 0
 388 416 429 377 429 323 c 0
 429 269 388 230 330 230 c 0
 284 230 248 255 236 292 c 1
 210 248 187 186 177 110 c 1
 170 0 l 1
 100 0 l 1
 100 0 110 75 110 122 c 0
 110 229 85 251 85 407 c 0
 85 532 182 617 330 617 c 0
 478 617 575 532 575 407 c 2
 575 0 l 1
 512 0 l 1
 512 110 l 2
 512 137 514 343 514 407 c 0
 514 512 440 568 330 568 c 0
 220 568 146 512 146 407 c 0
 146 294 156 244 161 198 c 1
 182 278 218 351 259 389 c 0
 277 406 301 416 330 416 c 0
EndSplineSet
PickledDataWithLists: "(dp0
Vcom.fontlab.hintData
p1
(dp2
Vvhints
p3
(lp4
(dp5
Vwidth
p6
L10L
sVposition
p7
L59L
sa(dp8
g6
L10L
sg7
L142L
sa(dp9
g6
L10L
sg7
L381L
sa(dp10
g6
L10L
sg7
L439L
sa(dp11
g6
L10L
sg7
L508L
sa(dp12
g6
L10L
sg7
L590L
sasVhhints
p13
(lp14
(dp15
g6
L10L
sg7
L-19L
sa(dp16
g6
L10L
sg7
L-4L
sa(dp17
g6
L10L
sg7
L363L
sa(dp18
g6
L10L
sg7
L551L
sa(dp19
g6
L10L
sg7
L608L
sass."
EndChar

StartChar: uni0E05
Encoding: 405 3589 131
GlifName: uni0E_05
Width: 665
VWidth: 0
GlyphClass: 2
Flags: MW
LayerCount: 2
Fore
SplineSet
330 382 m 0
 295 382 271 357 271 323 c 0
 271 289 295 264 330 264 c 0
 365 264 389 289 389 323 c 0
 389 357 365 382 330 382 c 0
330 416 m 0
 388 416 429 377 429 323 c 0
 429 269 388 230 330 230 c 0
 284 230 248 255 236 292 c 1
 210 248 187 186 177 110 c 1
 170 0 l 1
 100 0 l 1
 100 0 110 75 110 122 c 0
 110 229 85 251 85 407 c 0
 85 493 117 611 239 611 c 1
 330 527 l 1
 421 611 l 1
 543 611 575 493 575 407 c 2
 575 0 l 1
 512 0 l 1
 512 110 l 2
 512 137 514 343 514 407 c 0
 514 497 484 558 429 565 c 1
 339 486 l 1
 330 486 l 1
 321 486 l 1
 231 565 l 1
 176 558 144 497 144 407 c 0
 144 293 155 243 161 197 c 1
 182 278 218 351 259 389 c 0
 277 406 301 416 330 416 c 0
EndSplineSet
PickledDataWithLists: "(dp0
Vcom.fontlab.hintData
p1
(dp2
Vvhints
p3
(lp4
(dp5
Vwidth
p6
L10L
sVposition
p7
L60L
sa(dp8
g6
L10L
sg7
L142L
sa(dp9
g6
L10L
sg7
L444L
sa(dp10
g6
L10L
sg7
L508L
sa(dp11
g6
L10L
sg7
L590L
sasVhhints
p12
(lp13
(dp14
g6
L10L
sg7
L-18L
sa(dp15
g6
L10L
sg7
L-4L
sa(dp16
g6
L10L
sg7
L363L
sa(dp17
g6
L10L
sg7
L469L
sa(dp18
g6
L10L
sg7
L549L
sa(dp19
g6
L10L
sg7
L606L
sass."
EndChar

StartChar: uni0E06
Encoding: 406 3590 132
GlifName: uni0E_06
Width: 650
VWidth: 0
GlyphClass: 2
Flags: MW
LayerCount: 2
Fore
SplineSet
159 145 m 0
 124 145 100 120 100 86 c 0
 100 52 124 27 159 27 c 0
 194 27 218 52 218 86 c 0
 218 120 194 145 159 145 c 0
139 573 m 0
 104 573 80 548 80 514 c 0
 80 480 104 455 139 455 c 0
 174 455 198 480 198 514 c 0
 198 548 174 573 139 573 c 0
139 607 m 0
 197 607 238 568 238 514 c 0
 238 486 227 462 208 445 c 1
 270 466 306 531 313 598 c 1
 339 602 l 1
 356 570 371 538 371 483 c 0
 371 342 222 304 205 177 c 1
 332 172 427 116 489 59 c 1
 488 87 487 121 487 150 c 2
 487 600 l 1
 550 600 l 1
 550 0 l 1
 492 0 l 1
 441 61 352 121 245 135 c 1
 254 121 258 104 258 86 c 0
 258 32 217 -7 159 -7 c 0
 101 -7 60 32 60 86 c 0
 60 135 93 171 142 178 c 1
 163 325 324 358 324 490 c 0
 324 499 324 508 323 515 c 1
 299 457 249 410 163 410 c 0
 76 410 40 456 40 514 c 0
 40 568 81 607 139 607 c 0
EndSplineSet
PickledDataWithLists: "(dp0
Vcom.fontlab.hintData
p1
(dp2
Vvhints
p3
(lp4
(dp5
Vwidth
p6
L10L
sVposition
p7
L11L
sa(dp8
g6
L10L
sg7
L35L
sa(dp9
g6
L10L
sg7
L110L
sa(dp10
g6
L10L
sg7
L239L
sa(dp11
g6
L10L
sg7
L251L
sa(dp12
g6
L10L
sg7
L317L
sa(dp13
g6
L10L
sg7
L325L
sa(dp14
g6
L10L
sg7
L486L
sa(dp15
g6
L10L
sg7
L494L
sa(dp16
g6
L10L
sg7
L566L
sa(dp17
g6
L10L
sg7
L576L
sasVhhints
p18
(lp19
(dp20
g6
L10L
sg7
L-27L
sa(dp21
g6
L10L
sg7
L223L
sa(dp22
g6
L10L
sg7
L277L
sa(dp23
g6
L10L
sg7
L403L
sa(dp24
g6
L10L
sg7
L598L
sa(dp25
g6
L10L
sg7
L608L
sass."
EndChar

StartChar: uni0E07
Encoding: 407 3591 133
GlifName: uni0E_07
Width: 525
VWidth: 0
GlyphClass: 2
Flags: MW
AnchorPoint: "ThaiAbove.mark" 545 0 basechar 0
LayerCount: 2
Fore
SplineSet
306 573 m 0
 271 573 247 548 247 514 c 0
 247 480 271 455 306 455 c 0
 341 455 365 480 365 514 c 0
 365 548 341 573 306 573 c 0
25 337 m 1
 65 374 l 1
 377 52 l 1
 373 69 367 99 367 130 c 2
 367 315 l 2
 367 381 377 404 380 450 c 1
 362 432 337 421 306 421 c 0
 248 421 207 460 207 514 c 0
 207 568 248 607 306 607 c 0
 390 607 435 556 435 469 c 0
 435 411 429 380 429 310 c 2
 429 0 l 1
 362 0 l 1
 25 337 l 1
EndSplineSet
PickledDataWithLists: "(dp0
Vcom.fontlab.hintData
p1
(dp2
Vvhints
p3
(lp4
(dp5
Vwidth
p6
L10L
sVposition
p7
L41L
sa(dp8
g6
L10L
sg7
L151L
sa(dp9
g6
L10L
sg7
L381L
sa(dp10
g6
L10L
sg7
L469L
sasVhhints
p11
(lp12
(dp13
g6
L10L
sg7
L-26L
sa(dp14
g6
L10L
sg7
L355L
sa(dp15
g6
L10L
sg7
L504L
sa(dp16
g6
L10L
sg7
L549L
sa(dp17
g6
L10L
sg7
L611L
sass."
EndChar

StartChar: uni0E08
Encoding: 408 3592 134
GlifName: uni0E_08
Width: 590
VWidth: 0
GlyphClass: 2
Flags: MW
AnchorPoint: "ThaiBelow.mark" 560 0 basechar 0
LayerCount: 2
Fore
SplineSet
45 437 m 1
 57 532 135 617 275 617 c 0
 413 617 505 539 505 424 c 0
 505 269 445 199 445 90 c 2
 445 0 l 1
 376 0 l 1
 369 98 341 190 301 249 c 1
 293 205 255 174 204 174 c 0
 146 174 105 213 105 267 c 0
 105 321 146 360 204 360 c 0
 313 360 370 235 395 112 c 1
 396 225 442 282 442 424 c 0
 442 519 375 568 275 568 c 0
 177 568 120 514 109 433 c 1
 45 437 l 1
204 208 m 0
 239 208 263 233 263 267 c 0
 263 301 239 326 204 326 c 0
 169 326 145 301 145 267 c 0
 145 233 169 208 204 208 c 0
EndSplineSet
PickledDataWithLists: "(dp0
Vcom.fontlab.hintData
p1
(dp2
Vvhints
p3
(lp4
(dp5
Vwidth
p6
L10L
sVposition
p7
L31L
sa(dp8
g6
L10L
sg7
L101L
sa(dp9
g6
L10L
sg7
L444L
sa(dp10
g6
L10L
sg7
L529L
sasVhhints
p11
(lp12
(dp13
g6
L10L
sg7
L-11L
sa(dp14
g6
L10L
sg7
L229L
sa(dp15
g6
L10L
sg7
L307L
sa(dp16
g6
L10L
sg7
L429L
sa(dp17
g6
L9L
sg7
L552L
sa(dp18
g6
L10L
sg7
L614L
sass."
EndChar

StartChar: uni0E09
Encoding: 409 3593 135
GlifName: uni0E_09
Width: 645
VWidth: 0
GlyphClass: 2
Flags: MW
LayerCount: 2
Fore
SplineSet
161 0 m 1
 161 116 l 2
 161 141 167 160 176 176 c 1
 169 175 162 174 155 174 c 0
 97 174 56 213 56 267 c 0
 56 321 97 360 155 360 c 0
 213 360 254 321 254 267 c 0
 254 211 222 189 222 133 c 2
 222 61 l 2
 222 60 222 58 222 57 c 1
 278 116 358 177 461 181 c 1
 473 192 482 203 482 220 c 2
 482 416 l 2
 482 516 411 568 305 568 c 0
 200 568 140 509 128 424 c 1
 65 430 l 1
 78 529 159 617 305 617 c 0
 449 617 545 536 545 416 c 2
 545 230 l 2
 545 206 530 190 511 177 c 1
 557 169 589 133 589 86 c 0
 589 32 548 -7 490 -7 c 0
 432 -7 391 32 391 86 c 0
 391 103 396 119 403 132 c 1
 329 110 263 54 219 0 c 1
 161 0 l 1
490 145 m 0
 455 145 431 120 431 86 c 0
 431 52 455 27 490 27 c 0
 525 27 549 52 549 86 c 0
 549 120 525 145 490 145 c 0
155 326 m 0
 120 326 96 301 96 267 c 0
 96 233 120 208 155 208 c 0
 190 208 214 233 214 267 c 0
 214 301 190 326 155 326 c 0
EndSplineSet
PickledDataWithLists: "(dp0
Vcom.fontlab.hintData
p1
(dp2
Vvhints
p3
(lp4
(dp5
Vwidth
p6
L10L
sVposition
p7
L33L
sa(dp8
g6
L10L
sg7
L87L
sa(dp9
g6
L10L
sg7
L156L
sa(dp10
g6
L10L
sg7
L410L
sa(dp11
g6
L10L
sg7
L426L
sa(dp12
g6
L10L
sg7
L480L
sa(dp13
g6
L10L
sg7
L498L
sa(dp14
g6
L10L
sg7
L570L
sa(dp15
g6
L10L
sg7
L640L
sasVhhints
p16
(lp17
(dp18
g6
L10L
sg7
L-19L
sa(dp19
g6
L10L
sg7
L29L
sa(dp20
g6
L10L
sg7
L231L
sa(dp21
g6
L10L
sg7
L279L
sa(dp22
g6
L10L
sg7
L318L
sa(dp23
g6
L10L
sg7
L431L
sa(dp24
g6
L10L
sg7
L557L
sa(dp25
g6
L10L
sg7
L616L
sass."
EndChar

StartChar: uni0E0A
Encoding: 410 3594 136
GlifName: uni0E_0A_
Width: 640
VWidth: 0
GlyphClass: 2
Flags: MW
LayerCount: 2
Fore
SplineSet
129 537 m 0
 94 537 70 512 70 478 c 0
 70 444 94 419 129 419 c 0
 164 419 188 444 188 478 c 0
 188 512 164 537 129 537 c 0
360 474 m 1
 454 482 521 537 527 621 c 1
 590 616 l 1
 584 538 519 477 434 456 c 1
 492 443 540 415 540 360 c 2
 540 170 l 2
 540 62 461 -17 335 -17 c 0
 210 -17 130 52 130 147 c 0
 130 323 311 342 311 477 c 0
 311 540 266 576 190 576 c 0
 173 576 157 574 142 570 c 1
 193 565 228 528 228 478 c 0
 228 424 187 385 129 385 c 0
 71 385 30 424 30 478 c 0
 30 549 90 611 195 611 c 0
 297 611 359 556 360 474 c 1
356 437 m 1
 332 318 193 286 193 151 c 0
 193 76 251 32 335 32 c 0
 418 32 477 79 477 170 c 2
 477 360 l 2
 477 402 443 433 356 437 c 1
EndSplineSet
PickledDataWithLists: "(dp0
Vcom.fontlab.hintData
p1
(dp2
Vvhints
p3
(lp4
(dp5
Vwidth
p6
L10L
sVposition
p7
L44L
sa(dp8
g6
L10L
sg7
L186L
sa(dp9
g6
L10L
sg7
L197L
sa(dp10
g6
L10L
sg7
L268L
sa(dp11
g6
L10L
sg7
L279L
sa(dp12
g6
L10L
sg7
L473L
sa(dp13
g6
L10L
sg7
L555L
sa(dp14
g6
L10L
sg7
L586L
sasVhhints
p15
(lp16
(dp17
g6
L10L
sg7
L-29L
sa(dp18
g6
L10L
sg7
L29L
sa(dp19
g6
L10L
sg7
L437L
sa(dp20
g6
L10L
sg7
L599L
sa(dp21
g6
L10L
sg7
L644L
sass."
EndChar

StartChar: uni0E0B
Encoding: 411 3595 137
GlifName: uni0E_0B_
Width: 640
VWidth: 0
GlyphClass: 2
Flags: MW
LayerCount: 2
Fore
SplineSet
130 147 m 0
 130 323 314 348 314 490 c 0
 314 499 314 507 313 515 c 1
 289 457 239 410 153 410 c 0
 66 410 30 456 30 514 c 0
 30 568 71 607 129 607 c 0
 187 607 228 568 228 514 c 0
 228 486 217 462 198 445 c 1
 260 466 296 531 303 598 c 1
 329 602 l 1
 346 570 361 539 361 484 c 0
 361 481 361 477 361 474 c 1
 455 482 521 537 527 621 c 1
 590 616 l 1
 584 538 519 477 434 456 c 1
 492 443 540 415 540 360 c 2
 540 170 l 2
 540 62 461 -17 335 -17 c 0
 210 -17 130 52 130 147 c 0
129 573 m 0
 94 573 70 548 70 514 c 0
 70 480 94 455 129 455 c 0
 164 455 188 480 188 514 c 0
 188 548 164 573 129 573 c 0
477 360 m 2
 477 402 443 433 355 437 c 1
 325 325 194 282 194 151 c 0
 194 76 251 32 335 32 c 0
 418 32 477 79 477 170 c 2
 477 360 l 2
EndSplineSet
PickledDataWithLists: "(dp0
Vcom.fontlab.hintData
p1
(dp2
Vvhints
p3
(lp4
(dp5
Vwidth
p6
L10L
sVposition
p7
L11L
sa(dp8
g6
L10L
sg7
L199L
sa(dp9
g6
L10L
sg7
L226L
sa(dp10
g6
L10L
sg7
L278L
sa(dp11
g6
L10L
sg7
L296L
sa(dp12
g6
L10L
sg7
L474L
sa(dp13
g6
L10L
sg7
L556L
sa(dp14
g6
L10L
sg7
L586L
sasVhhints
p15
(lp16
(dp17
g6
L10L
sg7
L-24L
sa(dp18
g6
L10L
sg7
L34L
sa(dp19
g6
L10L
sg7
L398L
sa(dp20
g6
L10L
sg7
L603L
sa(dp21
g6
L10L
sg7
L608L
sa(dp22
g6
L10L
sg7
L644L
sass."
EndChar

StartChar: uni0E0C
Encoding: 412 3596 138
GlifName: uni0E_0C_
Width: 950
VWidth: 0
GlyphClass: 2
Flags: MW
LayerCount: 2
Fore
SplineSet
200 145 m 0
 165 145 141 120 141 86 c 0
 141 52 165 27 200 27 c 0
 235 27 259 52 259 86 c 0
 259 120 235 145 200 145 c 0
200 179 m 0
 258 179 299 140 299 86 c 0
 299 32 258 -7 200 -7 c 0
 142 -7 101 32 101 86 c 0
 101 131 115 166 115 210 c 2
 115 299 l 2
 115 355 142 388 188 400 c 1
 64 422 l 1
 78 525 162 617 314 617 c 0
 465 617 564 532 564 407 c 2
 564 220 l 2
 564 201 567 186 571 172 c 1
 667 164 738 114 789 59 c 1
 788 87 787 121 787 150 c 2
 787 600 l 1
 850 600 l 1
 850 0 l 1
 792 0 l 1
 744 62 673 120 584 131 c 1
 588 118 590 104 590 86 c 0
 590 32 549 -7 491 -7 c 0
 433 -7 392 32 392 86 c 0
 392 140 433 179 491 179 c 0
 500 179 508 178 516 176 c 1
 508 192 501 213 501 240 c 2
 501 407 l 2
 501 512 426 568 314 568 c 0
 213 568 152 517 132 441 c 1
 289 412 l 1
 282 382 l 1
 278 383 261 384 252 384 c 0
 206 384 178 359 178 304 c 2
 178 240 l 2
 178 214 173 191 167 174 c 1
 177 177 188 179 200 179 c 0
491 145 m 0
 456 145 432 120 432 86 c 0
 432 52 456 27 491 27 c 0
 526 27 550 52 550 86 c 0
 550 120 526 145 491 145 c 0
EndSplineSet
PickledDataWithLists: "(dp0
Vcom.fontlab.hintData
p1
(dp2
Vvhints
p3
(lp4
(dp5
Vwidth
p6
L10L
sVposition
p7
L84L
sa(dp8
g6
L10L
sg7
L93L
sa(dp9
g6
L10L
sg7
L114L
sa(dp10
g6
L10L
sg7
L166L
sa(dp11
g6
L10L
sg7
L196L
sa(dp12
g6
L10L
sg7
L343L
sa(dp13
g6
L10L
sg7
L414L
sa(dp14
g6
L10L
sg7
L502L
sa(dp15
g6
L10L
sg7
L507L
sa(dp16
g6
L10L
sg7
L576L
sa(dp17
g6
L10L
sg7
L780L
sa(dp18
g6
L10L
sg7
L789L
sa(dp19
g6
L10L
sg7
L861L
sa(dp20
g6
L10L
sg7
L871L
sasVhhints
p21
(lp22
(dp23
g6
L10L
sg7
L-26L
sa(dp24
g6
L10L
sg7
L-17L
sa(dp25
g6
L10L
sg7
L41L
sa(dp26
g6
L10L
sg7
L234L
sa(dp27
g6
L10L
sg7
L286L
sa(dp28
g6
L10L
sg7
L546L
sa(dp29
g6
L10L
sg7
L593L
sa(dp30
g6
L10L
sg7
L604L
sass."
EndChar

StartChar: uni0E0D
Encoding: 413 3597 139
GlifName: uni0E_0D_
Width: 950
VWidth: 0
GlyphClass: 2
Flags: HMW
LayerCount: 2
Fore
SplineSet
583 -105 m 0
 556 -105 538 -124 538 -150 c 0
 538 -176 556 -195 583 -195 c 0
 610 -195 628 -176 628 -150 c 0
 628 -124 610 -105 583 -105 c 0
583 -75 m 0
 630 -75 663 -106 663 -150 c 0
 663 -180 647 -204 623 -216 c 1
 632 -216 642 -216 651 -216 c 2
 681 -216 l 2
 749 -216 803 -181 803 -88 c 1
 853 -93 l 1
 853 -192 784 -250 688 -250 c 2
 638 -250 l 2
 554 -250 503 -214 503 -150 c 0
 503 -106 536 -75 583 -75 c 0
EndSplineSet
Refer: 140 63642 N 1 0 0 1 0 0 2
PickledDataWithLists: "(dp0
Vcom.fontlab.hintData
p1
(dp2
Vvhints
p3
(lp4
(dp5
Vwidth
p6
L10L
sVposition
p7
L81L
sa(dp8
g6
L10L
sg7
L101L
sa(dp9
g6
L10L
sg7
L169L
sa(dp10
g6
L10L
sg7
L189L
sa(dp11
g6
L10L
sg7
L315L
sa(dp12
g6
L10L
sg7
L471L
sa(dp13
g6
L10L
sg7
L476L
sa(dp14
g6
L10L
sg7
L513L
sa(dp15
g6
L10L
sg7
L559L
sa(dp16
g6
L10L
sg7
L564L
sa(dp17
g6
L10L
sg7
L591L
sa(dp18
g6
L10L
sg7
L771L
sa(dp19
g6
L10L
sg7
L781L
sa(dp20
g6
L10L
sg7
L859L
sa(dp21
g6
L10L
sg7
L869L
sa(dp22
g6
L10L
sg7
L879L
sasVhhints
p23
(lp24
(dp25
g6
L10L
sg7
L-252L
sa(dp26
g6
L10L
sg7
L-197L
sa(dp27
g6
L10L
sg7
L-98L
sa(dp28
g6
L10L
sg7
L-19L
sa(dp29
g6
L10L
sg7
L43L
sa(dp30
g6
L10L
sg7
L56L
sa(dp31
g6
L10L
sg7
L544L
sa(dp32
g6
L10L
sg7
L595L
sa(dp33
g6
L10L
sg7
L606L
sass."
Substitution2: "ThaiRC.rd subtable" uni0E0D.rd
Colour: ff00ff
EndChar

StartChar: uni0E0D.rd
Encoding: 832 63642 140
GlifName: uni0E_0D_.rd
Width: 950
VWidth: 0
GlyphClass: 2
Flags: MW
LayerCount: 2
Fore
SplineSet
200 143 m 0
 165 143 141 118 141 84 c 0
 141 50 165 25 200 25 c 0
 235 25 259 50 259 84 c 0
 259 118 235 143 200 143 c 0
200 177 m 0
 258 177 299 138 299 84 c 0
 299 30 258 -9 200 -9 c 0
 142 -9 101 30 101 84 c 0
 101 129 115 164 115 208 c 2
 115 297 l 2
 115 353 142 386 188 398 c 1
 64 420 l 1
 78 523 162 615 314 615 c 0
 465 615 564 530 564 405 c 2
 564 142 l 2
 564 68 612 30 678 30 c 0
 744 30 792 68 792 142 c 2
 792 598 l 1
 855 598 l 1
 855 142 l 2
 855 50 786 -19 678 -19 c 0
 570 -19 501 50 501 142 c 2
 501 405 l 2
 501 510 426 566 314 566 c 0
 213 566 152 515 132 439 c 1
 289 410 l 1
 282 380 l 1
 278 381 261 382 252 382 c 0
 206 382 178 357 178 302 c 2
 178 238 l 2
 178 212 173 189 167 172 c 1
 177 175 188 177 200 177 c 0
EndSplineSet
PickledDataWithLists: "(dp0
Vcom.fontlab.hintData
p1
(dp2
Vvhints
p3
(lp4
(dp5
Vwidth
p6
L10L
sVposition
p7
L81L
sa(dp8
g6
L10L
sg7
L101L
sa(dp9
g6
L10L
sg7
L169L
sa(dp10
g6
L10L
sg7
L189L
sa(dp11
g6
L10L
sg7
L315L
sa(dp12
g6
L10L
sg7
L471L
sa(dp13
g6
L10L
sg7
L476L
sa(dp14
g6
L10L
sg7
L559L
sa(dp15
g6
L10L
sg7
L564L
sa(dp16
g6
L10L
sg7
L771L
sa(dp17
g6
L10L
sg7
L781L
sa(dp18
g6
L10L
sg7
L859L
sa(dp19
g6
L10L
sg7
L869L
sasVhhints
p20
(lp21
(dp22
g6
L10L
sg7
L-19L
sa(dp23
g6
L10L
sg7
L43L
sa(dp24
g6
L10L
sg7
L56L
sa(dp25
g6
L10L
sg7
L544L
sa(dp26
g6
L10L
sg7
L595L
sa(dp27
g6
L10L
sg7
L606L
sass."
EndChar

StartChar: uni0E0E
Encoding: 414 3598 141
GlifName: uni0E_0E_
Width: 665
VWidth: 0
GlyphClass: 2
Flags: MW
LayerCount: 2
Fore
SplineSet
142 145 m 0
 107 145 83 120 83 86 c 0
 83 52 107 27 142 27 c 0
 177 27 201 52 201 86 c 0
 201 120 177 145 142 145 c 0
515 -190 m 1
 514 -165 512 -131 512 -85 c 2
 512 407 l 2
 512 512 437 568 325 568 c 0
 225 568 163 517 143 442 c 1
 330 412 l 1
 323 382 l 1
 319 383 302 384 293 384 c 0
 247 384 219 359 219 304 c 2
 219 210 l 2
 219 166 241 131 241 86 c 0
 241 32 200 -7 142 -7 c 0
 84 -7 43 32 43 86 c 0
 43 140 84 179 142 179 c 0
 151 179 160 178 168 176 c 1
 161 193 156 214 156 240 c 2
 156 299 l 2
 156 354 183 387 228 400 c 1
 75 422 l 1
 89 525 173 617 325 617 c 0
 476 617 575 532 575 407 c 2
 575 -85 l 1
 575 -235 l 1
 518 -235 l 1
 459 -195 381 -147 311 -122 c 1
 317 -132 320 -145 320 -159 c 0
 320 -205 284 -244 227 -244 c 0
 173 -244 134 -211 134 -159 c 0
 134 -106 174 -74 229 -74 c 0
 317 -74 430 -135 515 -190 c 1
264 -109 m 1
 252 -107 241 -106 230 -106 c 0
 200 -106 174 -124 174 -159 c 0
 174 -193 200 -212 229 -212 c 0
 262 -212 286 -191 286 -159 c 0
 286 -136 277 -120 264 -109 c 1
EndSplineSet
PickledDataWithLists: "(dp0
Vcom.fontlab.hintData
p1
(dp2
Vvhints
p3
(lp4
(dp5
Vwidth
p6
L10L
sVposition
p7
L26L
sa(dp8
g6
L10L
sg7
L81L
sa(dp9
g6
L10L
sg7
L126L
sa(dp10
g6
L10L
sg7
L219L
sa(dp11
g6
L10L
sg7
L470L
sa(dp12
g6
L10L
sg7
L476L
sa(dp13
g6
L10L
sg7
L556L
sa(dp14
g6
L10L
sg7
L564L
sasVhhints
p15
(lp16
(dp17
g6
L10L
sg7
L-242L
sa(dp18
g6
L10L
sg7
L-235L
sa(dp19
g6
L10L
sg7
L-137L
sa(dp20
g6
L10L
sg7
L-87L
sa(dp21
g6
L10L
sg7
L-16L
sa(dp22
g6
L10L
sg7
L66L
sa(dp23
g6
L10L
sg7
L544L
sa(dp24
g6
L10L
sg7
L606L
sass."
EndChar

StartChar: uni0E0F
Encoding: 415 3599 142
GlifName: uni0E_0F_
Width: 665
VWidth: 0
GlyphClass: 2
Flags: MW
LayerCount: 2
Fore
SplineSet
159 -159 m 0
 159 -194 186 -212 216 -212 c 0
 228 -212 239 -211 250 -208 c 1
 262 -197 271 -181 271 -159 c 0
 271 -127 247 -106 214 -106 c 0
 185 -106 159 -125 159 -159 c 0
518 -235 m 1
 382 -129 l 1
 371 -152 352 -178 327 -200 c 0
 297 -225 257 -244 214 -244 c 0
 159 -244 119 -212 119 -159 c 0
 119 -107 158 -74 212 -74 c 0
 269 -74 305 -113 305 -159 c 0
 305 -166 304 -173 302 -179 c 1
 303 -178 304 -178 305 -177 c 0
 335 -151 354 -109 362 -85 c 1
 383 -85 l 1
 515 -191 l 1
 514 -166 512 -131 512 -85 c 2
 512 407 l 2
 512 512 437 568 325 568 c 0
 225 568 163 517 143 442 c 1
 330 412 l 1
 323 382 l 1
 319 383 302 384 293 384 c 0
 247 384 219 359 219 304 c 2
 219 210 l 2
 219 166 241 131 241 86 c 0
 241 32 200 -7 142 -7 c 0
 84 -7 43 32 43 86 c 0
 43 140 84 179 142 179 c 0
 151 179 160 178 168 176 c 1
 161 193 156 214 156 240 c 2
 156 299 l 2
 156 354 183 387 228 400 c 1
 75 422 l 1
 89 525 173 617 325 617 c 0
 476 617 575 532 575 407 c 2
 575 -85 l 1
 575 -235 l 1
 518 -235 l 1
142 145 m 0
 107 145 83 120 83 86 c 0
 83 52 107 27 142 27 c 0
 177 27 201 52 201 86 c 0
 201 120 177 145 142 145 c 0
EndSplineSet
PickledDataWithLists: "(dp0
Vcom.fontlab.hintData
p1
(dp2
Vvhints
p3
(lp4
(dp5
Vwidth
p6
L10L
sVposition
p7
L26L
sa(dp8
g6
L10L
sg7
L81L
sa(dp9
g6
L10L
sg7
L97L
sa(dp10
g6
L10L
sg7
L131L
sa(dp11
g6
L10L
sg7
L166L
sa(dp12
g6
L10L
sg7
L179L
sa(dp13
g6
L10L
sg7
L221L
sa(dp14
g6
L10L
sg7
L470L
sa(dp15
g6
L10L
sg7
L476L
sa(dp16
g6
L10L
sg7
L553L
sa(dp17
g6
L10L
sg7
L564L
sasVhhints
p18
(lp19
(dp20
g6
L10L
sg7
L-240L
sa(dp21
g6
L10L
sg7
L-234L
sa(dp22
g6
L10L
sg7
L-191L
sa(dp23
g6
L10L
sg7
L-88L
sa(dp24
g6
L10L
sg7
L-83L
sa(dp25
g6
L10L
sg7
L-16L
sa(dp26
g6
L10L
sg7
L66L
sa(dp27
g6
L10L
sg7
L544L
sa(dp28
g6
L10L
sg7
L606L
sass."
EndChar

StartChar: uni0E10
Encoding: 416 3600 143
GlifName: uni0E_10
Width: 555
VWidth: 0
GlyphClass: 2
Flags: HMW
AnchorPoint: "ThaiTone.mark" 535 0 basechar 0
AnchorPoint: "ThaiAbove.mark" 575 0 basechar 0
LayerCount: 2
Fore
SplineSet
115 -159 m 0
 115 -194 142 -212 172 -212 c 0
 184 -212 195 -211 206 -208 c 1
 218 -197 227 -181 227 -159 c 0
 227 -127 203 -106 170 -106 c 0
 141 -106 115 -125 115 -159 c 0
258 -179 m 1
 259 -178 260 -178 261 -177 c 0
 291 -151 310 -109 318 -85 c 1
 339 -85 l 1
 440 -186 l 1
 439 -162 438 -128 438 -85 c 1
 488 -85 l 1
 488 -235 l 1
 444 -235 l 1
 337 -131 l 1
 326 -153 307 -179 283 -200 c 0
 253 -225 213 -244 170 -244 c 0
 115 -244 75 -212 75 -159 c 0
 75 -107 114 -74 168 -74 c 0
 225 -74 261 -113 261 -159 c 0
 261 -166 260 -173 258 -179 c 1
EndSplineSet
Refer: 144 63646 N 1 0 0 1 0 0 2
PickledDataWithLists: "(dp0
Vcom.fontlab.hintData
p1
(dp2
Vvhints
p3
(lp4
(dp5
Vwidth
p6
L10L
sVposition
p7
L30L
sa(dp8
g6
L10L
sg7
L80L
sa(dp9
g6
L10L
sg7
L89L
sa(dp10
g6
L10L
sg7
L110L
sa(dp11
g6
L10L
sg7
L149L
sa(dp12
g6
L10L
sg7
L160L
sa(dp13
g6
L10L
sg7
L434L
sa(dp14
g6
L10L
sg7
L504L
sa(dp15
g6
L10L
sg7
L510L
sa(dp16
g6
L10L
sg7
L516L
sa(dp17
g6
L10L
sg7
L569L
sasVhhints
p18
(lp19
(dp20
g6
L10L
sg7
L-237L
sa(dp21
g6
L10L
sg7
L-229L
sa(dp22
g6
L10L
sg7
L-189L
sa(dp23
g6
L10L
sg7
L-92L
sa(dp24
g6
L10L
sg7
L-87L
sa(dp25
g6
L10L
sg7
L-72L
sa(dp26
g6
L10L
sg7
L-9L
sa(dp27
g6
L10L
sg7
L197L
sa(dp28
g6
L10L
sg7
L215L
sa(dp29
g6
L10L
sg7
L272L
sa(dp30
g6
L10L
sg7
L366L
sa(dp31
g6
L10L
sg7
L420L
sa(dp32
g6
L10L
sg7
L558L
sa(dp33
g6
L10L
sg7
L612L
sa(dp34
g6
L10L
sg7
L652L
sass."
Substitution2: "ThaiRC.rd subtable" uni0E10.rd
Colour: ff00ff
EndChar

StartChar: uni0E10.rd
Encoding: 836 63646 144
GlifName: uni0E_10.rd
Width: 555
VWidth: 0
GlyphClass: 2
Flags: MW
AnchorPoint: "ThaiBelow.mark" 510 0 basechar 0
AnchorPoint: "ThaiTone.mark" 535 0 basechar 0
AnchorPoint: "ThaiAbove.mark" 575 0 basechar 0
LayerCount: 2
Fore
SplineSet
164 296 m 0
 129 296 105 271 105 237 c 0
 105 203 129 178 164 178 c 0
 199 178 223 203 223 237 c 0
 223 271 199 296 164 296 c 0
164 330 m 0
 276 330 334 202 357 88 c 1
 360 160 394 234 394 308 c 0
 394 383 299 417 65 417 c 1
 65 432 l 2
 65 545 146 617 261 617 c 0
 349 617 401 577 428 546 c 1
 434 559 l 1
 466 611 l 1
 515 601 l 1
 515 598 l 1
 441 500 l 1
 419 500 l 1
 403 524 359 573 270 573 c 0
 195 573 133 535 126 450 c 1
 340 446 455 411 455 315 c 0
 455 229 405 141 405 60 c 2
 405 0 l 1
 337 0 l 1
 330 84 304 171 263 227 c 1
 258 178 218 144 164 144 c 0
 106 144 65 183 65 237 c 0
 65 291 106 330 164 330 c 0
EndSplineSet
PickledDataWithLists: "(dp0
Vcom.fontlab.hintData
p1
(dp2
Vvhints
p3
(lp4
(dp5
Vwidth
p6
L10L
sVposition
p7
L30L
sa(dp8
g6
L10L
sg7
L89L
sa(dp9
g6
L10L
sg7
L110L
sa(dp10
g6
L10L
sg7
L430L
sa(dp11
g6
L10L
sg7
L510L
sa(dp12
g6
L10L
sg7
L569L
sasVhhints
p13
(lp14
(dp15
g6
L10L
sg7
L-9L
sa(dp16
g6
L10L
sg7
L197L
sa(dp17
g6
L10L
sg7
L215L
sa(dp18
g6
L10L
sg7
L272L
sa(dp19
g6
L10L
sg7
L366L
sa(dp20
g6
L10L
sg7
L420L
sa(dp21
g6
L10L
sg7
L558L
sa(dp22
g6
L10L
sg7
L612L
sa(dp23
g6
L10L
sg7
L652L
sass."
EndChar

StartChar: uni0E11
Encoding: 417 3601 145
GlifName: uni0E_11
Width: 665
VWidth: 0
GlyphClass: 2
Flags: MW
LayerCount: 2
Fore
SplineSet
129 607 m 0
 187 607 228 568 228 514 c 0
 228 486 217 462 198 445 c 1
 260 466 296 531 303 598 c 1
 329 602 l 1
 344 573 357 545 360 500 c 1
 395 554 443 607 490 607 c 0
 559 607 570 543 570 493 c 2
 570 0 l 1
 506 0 l 1
 506 484 l 2
 506 526 498 553 470 554 c 1
 435 550 382 477 354 430 c 1
 324 322 209 279 209 150 c 2
 209 0 l 1
 145 0 l 1
 145 146 l 2
 145 322 314 348 314 490 c 0
 314 499 314 508 313 515 c 1
 289 457 239 410 153 410 c 0
 66 410 30 456 30 514 c 0
 30 568 71 607 129 607 c 0
129 573 m 0
 94 573 70 548 70 514 c 0
 70 480 94 455 129 455 c 0
 164 455 188 480 188 514 c 0
 188 548 164 573 129 573 c 0
EndSplineSet
PickledDataWithLists: "(dp0
Vcom.fontlab.hintData
p1
(dp2
Vvhints
p3
(lp4
(dp5
Vwidth
p6
L10L
sVposition
p7
L11L
sa(dp8
g6
L10L
sg7
L161L
sa(dp9
g6
L10L
sg7
L235L
sa(dp10
g6
L10L
sg7
L283L
sa(dp11
g6
L10L
sg7
L524L
sa(dp12
g6
L10L
sg7
L529L
sa(dp13
g6
L10L
sg7
L606L
sa(dp14
g6
L10L
sg7
L608L
sasVhhints
p15
(lp16
(dp17
g6
L10L
sg7
L-15L
sa(dp18
g6
L10L
sg7
L-8L
sa(dp19
g6
L10L
sg7
L398L
sa(dp20
g6
L10L
sg7
L602L
sa(dp21
g6
L10L
sg7
L611L
sass."
EndChar

StartChar: uni0E12
Encoding: 418 3602 146
GlifName: uni0E_12
Width: 960
VWidth: 0
GlyphClass: 2
Flags: MW
LayerCount: 2
Fore
SplineSet
330 382 m 0
 295 382 271 357 271 323 c 0
 271 289 295 264 330 264 c 0
 365 264 389 289 389 323 c 0
 389 357 365 382 330 382 c 0
502 145 m 0
 467 145 443 120 443 86 c 0
 443 52 467 27 502 27 c 0
 537 27 561 52 561 86 c 0
 561 120 537 145 502 145 c 0
239 611 m 1
 330 527 l 1
 421 611 l 1
 543 611 575 493 575 407 c 2
 575 220 l 2
 575 201 578 186 582 172 c 1
 678 164 749 114 800 59 c 1
 799 87 798 121 798 150 c 2
 798 600 l 1
 861 600 l 1
 861 0 l 1
 803 0 l 1
 755 62 684 120 595 131 c 1
 599 118 601 104 601 86 c 0
 601 32 560 -7 502 -7 c 0
 444 -7 403 32 403 86 c 0
 403 140 444 179 502 179 c 0
 511 179 520 178 528 176 c 1
 520 192 514 213 514 240 c 2
 514 407 l 2
 514 497 484 558 429 565 c 1
 339 486 l 1
 330 486 l 1
 321 486 l 1
 231 565 l 1
 176 558 144 497 144 407 c 0
 144 257 167 224 167 153 c 2
 167 93 l 2
 167 88 168 81 168 74 c 1
 221 142 312 177 362 234 c 1
 352 231 342 230 330 230 c 0
 272 230 231 269 231 323 c 0
 231 377 272 416 330 416 c 0
 388 416 429 377 429 323 c 0
 429 163 208 126 172 0 c 1
 100 0 l 1
 100 0 110 75 110 122 c 0
 110 229 85 251 85 407 c 0
 85 493 117 611 239 611 c 1
EndSplineSet
PickledDataWithLists: "(dp0
Vcom.fontlab.hintData
p1
(dp2
Vvhints
p3
(lp4
(dp5
Vwidth
p6
L10L
sVposition
p7
L64L
sa(dp8
g6
L10L
sg7
L146L
sa(dp9
g6
L10L
sg7
L322L
sa(dp10
g6
L10L
sg7
L328L
sa(dp11
g6
L10L
sg7
L375L
sa(dp12
g6
L10L
sg7
L445L
sa(dp13
g6
L10L
sg7
L535L
sa(dp14
g6
L10L
sg7
L605L
sa(dp15
g6
L10L
sg7
L781L
sa(dp16
g6
L10L
sg7
L789L
sa(dp17
g6
L10L
sg7
L861L
sa(dp18
g6
L10L
sg7
L871L
sasVhhints
p19
(lp20
(dp21
g6
L10L
sg7
L-19L
sa(dp22
g6
L10L
sg7
L-15L
sa(dp23
g6
L10L
sg7
L37L
sa(dp24
g6
L10L
sg7
L241L
sa(dp25
g6
L10L
sg7
L289L
sa(dp26
g6
L10L
sg7
L412L
sa(dp27
g6
L10L
sg7
L546L
sa(dp28
g6
L10L
sg7
L587L
sa(dp29
g6
L10L
sg7
L593L
sa(dp30
g6
L10L
sg7
L603L
sass."
EndChar

StartChar: uni0E13
Encoding: 419 3603 147
GlifName: uni0E_13
Width: 960
VWidth: 0
GlyphClass: 2
Flags: MW
LayerCount: 2
Fore
SplineSet
201 145 m 0
 166 145 142 120 142 86 c 0
 142 52 166 27 201 27 c 0
 236 27 260 52 260 86 c 0
 260 120 236 145 201 145 c 0
201 179 m 0
 259 179 300 140 300 86 c 0
 300 32 259 -7 201 -7 c 0
 143 -7 102 32 102 86 c 0
 102 131 116 166 116 210 c 2
 116 299 l 2
 116 355 143 388 189 400 c 1
 65 422 l 1
 79 525 163 617 315 617 c 0
 466 617 565 532 565 407 c 2
 565 150 l 2
 565 124 564 94 563 68 c 1
 612 128 681 177 770 181 c 1
 782 192 791 203 791 220 c 2
 791 600 l 1
 855 600 l 1
 855 230 l 2
 855 206 840 190 821 177 c 1
 867 168 898 133 898 86 c 0
 898 32 857 -7 799 -7 c 0
 741 -7 700 32 700 86 c 0
 700 103 704 119 711 132 c 1
 649 110 596 59 560 0 c 1
 502 0 l 1
 502 407 l 2
 502 512 427 568 315 568 c 0
 214 568 153 517 133 441 c 1
 290 412 l 1
 283 382 l 1
 279 383 262 384 253 384 c 0
 207 384 179 359 179 304 c 2
 179 240 l 2
 179 214 174 191 168 174 c 1
 178 177 189 179 201 179 c 0
799 145 m 0
 764 145 740 120 740 86 c 0
 740 52 764 27 799 27 c 0
 834 27 858 52 858 86 c 0
 858 120 834 145 799 145 c 0
EndSplineSet
PickledDataWithLists: "(dp0
Vcom.fontlab.hintData
p1
(dp2
Vvhints
p3
(lp4
(dp5
Vwidth
p6
L10L
sVposition
p7
L84L
sa(dp8
g6
L10L
sg7
L104L
sa(dp9
g6
L10L
sg7
L166L
sa(dp10
g6
L10L
sg7
L186L
sa(dp11
g6
L10L
sg7
L311L
sa(dp12
g6
L10L
sg7
L454L
sa(dp13
g6
L10L
sg7
L469L
sa(dp14
g6
L10L
sg7
L540L
sa(dp15
g6
L10L
sg7
L551L
sa(dp16
g6
L10L
sg7
L709L
sa(dp17
g6
L10L
sg7
L780L
sa(dp18
g6
L10L
sg7
L816L
sa(dp19
g6
L10L
sg7
L865L
sa(dp20
g6
L10L
sg7
L935L
sasVhhints
p21
(lp22
(dp23
g6
L10L
sg7
L-17L
sa(dp24
g6
L10L
sg7
L29L
sa(dp25
g6
L10L
sg7
L41L
sa(dp26
g6
L10L
sg7
L54L
sa(dp27
g6
L10L
sg7
L241L
sa(dp28
g6
L10L
sg7
L289L
sa(dp29
g6
L10L
sg7
L546L
sa(dp30
g6
L10L
sg7
L594L
sa(dp31
g6
L10L
sg7
L604L
sass."
EndChar

StartChar: uni0E14
Encoding: 420 3604 148
GlifName: uni0E_14
Width: 665
VWidth: 0
GlyphClass: 2
Flags: MW
LayerCount: 2
Fore
SplineSet
512 0 m 1
 512 110 l 2
 512 137 514 343 514 407 c 0
 514 512 440 568 330 568 c 0
 220 568 144 512 144 407 c 0
 144 257 167 224 167 153 c 2
 167 93 l 2
 167 88 168 81 168 74 c 1
 221 142 312 177 362 234 c 1
 352 231 342 230 330 230 c 0
 272 230 231 269 231 323 c 0
 231 377 272 416 330 416 c 0
 388 416 429 377 429 323 c 0
 429 163 208 126 172 0 c 1
 100 0 l 1
 100 0 110 75 110 122 c 0
 110 229 85 251 85 407 c 0
 85 532 182 617 330 617 c 0
 478 617 575 532 575 407 c 2
 575 0 l 1
 512 0 l 1
330 382 m 0
 295 382 271 357 271 323 c 0
 271 289 295 264 330 264 c 0
 365 264 389 289 389 323 c 0
 389 357 365 382 330 382 c 0
EndSplineSet
PickledDataWithLists: "(dp0
Vcom.fontlab.hintData
p1
(dp2
Vvhints
p3
(lp4
(dp5
Vwidth
p6
L10L
sVposition
p7
L60L
sa(dp8
g6
L10L
sg7
L149L
sa(dp9
g6
L10L
sg7
L306L
sa(dp10
g6
L10L
sg7
L394L
sa(dp11
g6
L10L
sg7
L495L
sa(dp12
g6
L10L
sg7
L501L
sa(dp13
g6
L10L
sg7
L584L
sa(dp14
g6
L10L
sg7
L589L
sasVhhints
p15
(lp16
(dp17
g6
L10L
sg7
L-23L
sa(dp18
g6
L10L
sg7
L-15L
sa(dp19
g6
L10L
sg7
L40L
sa(dp20
g6
L10L
sg7
L140L
sa(dp21
g6
L10L
sg7
L547L
sa(dp22
g6
L10L
sg7
L609L
sass."
EndChar

StartChar: uni0E15
Encoding: 421 3605 149
GlifName: uni0E_15
Width: 665
VWidth: 0
GlyphClass: 2
Flags: MW
LayerCount: 2
Fore
SplineSet
512 0 m 1
 512 110 l 2
 512 137 514 343 514 407 c 0
 514 497 484 558 429 565 c 1
 339 486 l 1
 330 486 l 1
 321 486 l 1
 231 565 l 1
 176 558 144 497 144 407 c 0
 144 257 167 224 167 153 c 2
 167 93 l 2
 167 88 168 81 168 74 c 1
 221 142 312 177 362 234 c 1
 352 231 342 230 330 230 c 0
 272 230 231 269 231 323 c 0
 231 377 272 416 330 416 c 0
 388 416 429 377 429 323 c 0
 429 163 208 126 172 0 c 1
 100 0 l 1
 100 0 110 75 110 122 c 0
 110 229 85 251 85 407 c 0
 85 493 117 611 239 611 c 1
 330 527 l 1
 421 611 l 1
 543 611 575 493 575 407 c 2
 575 0 l 1
 512 0 l 1
330 382 m 0
 295 382 271 357 271 323 c 0
 271 289 295 264 330 264 c 0
 365 264 389 289 389 323 c 0
 389 357 365 382 330 382 c 0
EndSplineSet
PickledDataWithLists: "(dp0
Vcom.fontlab.hintData
p1
(dp2
Vvhints
p3
(lp4
(dp5
Vwidth
p6
L10L
sVposition
p7
L64L
sa(dp8
g6
L10L
sg7
L146L
sa(dp9
g6
L10L
sg7
L309L
sa(dp10
g6
L10L
sg7
L332L
sa(dp11
g6
L10L
sg7
L337L
sa(dp12
g6
L10L
sg7
L391L
sa(dp13
g6
L10L
sg7
L405L
sa(dp14
g6
L10L
sg7
L513L
sa(dp15
g6
L10L
sg7
L597L
sa(dp16
g6
L10L
sg7
L602L
sasVhhints
p17
(lp18
(dp19
g6
L10L
sg7
L-21L
sa(dp20
g6
L10L
sg7
L-13L
sa(dp21
g6
L10L
sg7
L36L
sa(dp22
g6
L10L
sg7
L133L
sa(dp23
g6
L10L
sg7
L412L
sa(dp24
g6
L10L
sg7
L546L
sa(dp25
g6
L10L
sg7
L590L
sa(dp26
g6
L10L
sg7
L603L
sass."
EndChar

StartChar: uni0E16
Encoding: 422 3606 150
GlifName: uni0E_16
Width: 655
VWidth: 0
GlyphClass: 2
Flags: MW
LayerCount: 2
Fore
SplineSet
201 145 m 0
 166 145 142 120 142 86 c 0
 142 52 166 27 201 27 c 0
 236 27 260 52 260 86 c 0
 260 120 236 145 201 145 c 0
201 179 m 0
 259 179 300 140 300 86 c 0
 300 32 259 -7 201 -7 c 0
 143 -7 102 32 102 86 c 0
 102 131 116 166 116 210 c 2
 116 299 l 2
 116 355 143 388 189 400 c 1
 65 422 l 1
 79 525 163 617 315 617 c 0
 466 617 565 532 565 407 c 2
 565 0 l 1
 502 0 l 1
 502 407 l 2
 502 512 427 568 315 568 c 0
 214 568 153 517 133 441 c 1
 290 412 l 1
 283 382 l 1
 279 383 262 384 253 384 c 0
 207 384 179 359 179 304 c 2
 179 240 l 2
 179 214 174 191 168 174 c 1
 178 177 189 179 201 179 c 0
EndSplineSet
PickledDataWithLists: "(dp0
Vcom.fontlab.hintData
p1
(dp2
Vvhints
p3
(lp4
(dp5
Vwidth
p6
L10L
sVposition
p7
L81L
sa(dp8
g6
L10L
sg7
L86L
sa(dp9
g6
L10L
sg7
L111L
sa(dp10
g6
L10L
sg7
L169L
sa(dp11
g6
L10L
sg7
L199L
sa(dp12
g6
L10L
sg7
L315L
sa(dp13
g6
L10L
sg7
L465L
sa(dp14
g6
L10L
sg7
L476L
sa(dp15
g6
L10L
sg7
L556L
sa(dp16
g6
L10L
sg7
L564L
sasVhhints
p17
(lp18
(dp19
g6
L10L
sg7
L-19L
sa(dp20
g6
L10L
sg7
L43L
sa(dp21
g6
L10L
sg7
L56L
sa(dp22
g6
L10L
sg7
L544L
sa(dp23
g6
L10L
sg7
L606L
sass."
EndChar

StartChar: uni0E17
Encoding: 423 3607 151
GlifName: uni0E_17
Width: 660
VWidth: 0
GlyphClass: 2
Flags: MW
LayerCount: 2
Fore
SplineSet
125 455 m 0
 160 455 184 480 184 514 c 0
 184 548 160 573 125 573 c 0
 90 573 66 548 66 514 c 0
 66 480 90 455 125 455 c 0
125 421 m 0
 67 421 26 460 26 514 c 0
 26 568 67 607 125 607 c 0
 183 607 224 568 224 514 c 0
 224 469 198 434 198 390 c 2
 198 227 l 1
 247 374 338 607 461 607 c 0
 540 607 565 541 565 491 c 2
 565 0 l 1
 501 0 l 1
 501 481 l 2
 501 518 486 552 451 553 c 1
 348 537 232 246 198 127 c 1
 198 0 l 1
 135 0 l 1
 135 360 l 2
 135 385 141 406 148 423 c 1
 141 422 133 421 125 421 c 0
EndSplineSet
PickledDataWithLists: "(dp0
Vcom.fontlab.hintData
p1
(dp2
Vvhints
p3
(lp4
(dp5
Vwidth
p6
L10L
sVposition
p7
L58L
sa(dp8
g6
L10L
sg7
L104L
sa(dp9
g6
L10L
sg7
L479L
sa(dp10
g6
L10L
sg7
L484L
sa(dp11
g6
L10L
sg7
L561L
sa(dp12
g6
L10L
sg7
L566L
sasVhhints
p13
(lp14
(dp15
g6
L10L
sg7
L-13L
sa(dp16
g6
L10L
sg7
L-8L
sa(dp17
g6
L10L
sg7
L546L
sa(dp18
g6
L10L
sg7
L604L
sass."
EndChar

StartChar: uni0E18
Encoding: 424 3608 152
GlifName: uni0E_18
Width: 585
VWidth: 0
GlyphClass: 2
Flags: MW
AnchorPoint: "ThaiTone.mark" 565 0 basechar 0
LayerCount: 2
Fore
SplineSet
90 170 m 2
 90 300 l 1
 154 300 l 1
 154 170 l 2
 154 79 213 31 295 31 c 0
 377 31 437 79 437 170 c 2
 437 292 l 2
 437 370 327 414 80 414 c 1
 80 432 l 2
 80 545 161 617 276 617 c 0
 364 617 416 577 443 546 c 1
 449 559 l 1
 481 611 l 1
 530 601 l 1
 530 598 l 1
 456 500 l 1
 434 500 l 1
 418 524 374 573 285 573 c 0
 210 573 148 534 141 448 c 1
 370 443 500 399 500 299 c 2
 500 170 l 2
 500 62 421 -17 295 -17 c 0
 169 -17 90 62 90 170 c 2
EndSplineSet
PickledDataWithLists: "(dp0
Vcom.fontlab.hintData
p1
(dp2
Vvhints
p3
(lp4
(dp5
Vwidth
p6
L10L
sVposition
p7
L64L
sa(dp8
g6
L10L
sg7
L109L
sa(dp9
g6
L10L
sg7
L146L
sa(dp10
g6
L10L
sg7
L195L
sa(dp11
g6
L10L
sg7
L430L
sa(dp12
g6
L10L
sg7
L513L
sasVhhints
p13
(lp14
(dp15
g6
L10L
sg7
L-14L
sa(dp16
g6
L10L
sg7
L44L
sa(dp17
g6
L10L
sg7
L294L
sa(dp18
g6
L10L
sg7
L496L
sa(dp19
g6
L10L
sg7
L555L
sa(dp20
g6
L10L
sg7
L612L
sass."
EndChar

StartChar: uni0E19
Encoding: 425 3609 153
GlifName: uni0E_19
Width: 650
VWidth: 0
GlyphClass: 2
Flags: MW
LayerCount: 2
Fore
SplineSet
135 0 m 1
 135 360 l 2
 135 387 142 408 150 424 c 1
 142 422 134 421 125 421 c 0
 67 421 26 460 26 514 c 0
 26 568 67 607 125 607 c 0
 183 607 224 568 224 514 c 0
 224 458 198 436 198 380 c 2
 198 150 l 2
 198 121 197 87 196 59 c 1
 257 118 347 178 460 181 c 1
 472 192 481 203 481 220 c 2
 481 600 l 1
 545 600 l 1
 545 230 l 2
 545 206 530 190 511 177 c 1
 557 168 588 133 588 86 c 0
 588 32 547 -7 489 -7 c 0
 431 -7 390 32 390 86 c 0
 390 105 395 122 404 136 c 1
 317 116 241 56 193 0 c 1
 135 0 l 1
489 145 m 0
 454 145 430 120 430 86 c 0
 430 52 454 27 489 27 c 0
 524 27 548 52 548 86 c 0
 548 120 524 145 489 145 c 0
125 455 m 0
 160 455 184 480 184 514 c 0
 184 548 160 573 125 573 c 0
 90 573 66 548 66 514 c 0
 66 480 90 455 125 455 c 0
EndSplineSet
PickledDataWithLists: "(dp0
Vcom.fontlab.hintData
p1
(dp2
Vvhints
p3
(lp4
(dp5
Vwidth
p6
L10L
sVposition
p7
L64L
sa(dp8
g6
L10L
sg7
L84L
sa(dp9
g6
L10L
sg7
L168L
sa(dp10
g6
L10L
sg7
L387L
sa(dp11
g6
L10L
sg7
L457L
sa(dp12
g6
L10L
sg7
L491L
sa(dp13
g6
L10L
sg7
L550L
sa(dp14
g6
L10L
sg7
L625L
sasVhhints
p15
(lp16
(dp17
g6
L10L
sg7
L-27L
sa(dp18
g6
L10L
sg7
L-20L
sa(dp19
g6
L10L
sg7
L22L
sa(dp20
g6
L10L
sg7
L248L
sa(dp21
g6
L10L
sg7
L307L
sa(dp22
g6
L10L
sg7
L589L
sa(dp23
g6
L10L
sg7
L598L
sass."
EndChar

StartChar: uni0E1A
Encoding: 426 3610 154
GlifName: uni0E_1A_
Width: 700
VWidth: 0
GlyphClass: 2
Flags: MW
LayerCount: 2
Fore
SplineSet
120 455 m 0
 155 455 179 480 179 514 c 0
 179 548 155 573 120 573 c 0
 85 573 61 548 61 514 c 0
 61 480 85 455 120 455 c 0
120 421 m 0
 62 421 21 460 21 514 c 0
 21 568 62 607 120 607 c 0
 178 607 219 568 219 514 c 0
 219 469 193 434 193 390 c 2
 193 181 l 2
 193 84 262 32 365 32 c 0
 468 32 537 84 537 181 c 2
 537 600 l 1
 600 600 l 1
 600 181 l 2
 600 64 507 -17 365 -17 c 0
 223 -17 130 64 130 181 c 2
 130 360 l 2
 130 385 136 406 143 423 c 1
 136 422 128 421 120 421 c 0
EndSplineSet
PickledDataWithLists: "(dp0
Vcom.fontlab.hintData
p1
(dp2
Vvhints
p3
(lp4
(dp5
Vwidth
p6
L10L
sVposition
p7
L81L
sa(dp8
g6
L10L
sg7
L106L
sa(dp9
g6
L10L
sg7
L194L
sa(dp10
g6
L10L
sg7
L511L
sa(dp11
g6
L10L
sg7
L516L
sa(dp12
g6
L10L
sg7
L599L
sa(dp13
g6
L10L
sg7
L604L
sasVhhints
p14
(lp15
(dp16
g6
L10L
sg7
L-26L
sa(dp17
g6
L10L
sg7
L36L
sa(dp18
g6
L10L
sg7
L596L
sass."
EndChar

StartChar: uni0E1B
Encoding: 427 3611 155
GlifName: uni0E_1B_
Width: 700
VWidth: 0
GlyphClass: 2
Flags: MW
LayerCount: 2
Fore
SplineSet
120 455 m 0
 155 455 179 480 179 514 c 0
 179 548 155 573 120 573 c 0
 85 573 61 548 61 514 c 0
 61 480 85 455 120 455 c 0
120 421 m 0
 62 421 21 460 21 514 c 0
 21 568 62 607 120 607 c 0
 178 607 219 568 219 514 c 0
 219 469 193 434 193 390 c 2
 193 181 l 2
 193 84 262 32 365 32 c 0
 468 32 537 84 537 181 c 2
 537 810 l 1
 600 810 l 1
 600 181 l 2
 600 64 507 -17 365 -17 c 0
 223 -17 130 64 130 181 c 2
 130 360 l 2
 130 385 136 406 143 423 c 1
 136 422 128 421 120 421 c 0
EndSplineSet
PickledDataWithLists: "(dp0
Vcom.fontlab.hintData
p1
(dp2
Vvhints
p3
(lp4
(dp5
Vwidth
p6
L10L
sVposition
p7
L81L
sa(dp8
g6
L10L
sg7
L106L
sa(dp9
g6
L10L
sg7
L194L
sa(dp10
g6
L10L
sg7
L521L
sa(dp11
g6
L10L
sg7
L526L
sa(dp12
g6
L10L
sg7
L609L
sa(dp13
g6
L10L
sg7
L614L
sasVhhints
p14
(lp15
(dp16
g6
L10L
sg7
L-26L
sa(dp17
g6
L10L
sg7
L36L
sa(dp18
g6
L10L
sg7
L600L
sa(dp19
g6
L10L
sg7
L836L
sass."
EndChar

StartChar: uni0E1C
Encoding: 428 3612 156
GlifName: uni0E_1C_
Width: 715
VWidth: 0
GlyphClass: 2
Flags: MW
LayerCount: 2
Fore
SplineSet
553 138 m 2
 553 600 l 1
 615 600 l 1
 615 0 l 1
 556 0 l 1
 356 312 l 1
 156 0 l 1
 97 0 l 1
 97 310 l 2
 97 383 85 411 85 469 c 0
 85 556 131 607 215 607 c 0
 273 607 314 568 314 514 c 0
 314 460 273 421 215 421 c 0
 184 421 158 432 140 451 c 1
 143 403 159 381 159 315 c 2
 159 138 l 2
 159 115 157 91 154 72 c 1
 338 360 l 1
 356 360 l 1
 374 360 l 1
 558 72 l 1
 555 91 553 115 553 138 c 2
215 455 m 0
 250 455 274 480 274 514 c 0
 274 548 250 573 215 573 c 0
 180 573 156 548 156 514 c 0
 156 480 180 455 215 455 c 0
EndSplineSet
PickledDataWithLists: "(dp0
Vcom.fontlab.hintData
p1
(dp2
Vvhints
p3
(lp4
(dp5
Vwidth
p6
L10L
sVposition
p7
L64L
sa(dp8
g6
L10L
sg7
L148L
sa(dp9
g6
L10L
sg7
L372L
sa(dp10
g6
L10L
sg7
L559L
sa(dp11
g6
L10L
sg7
L643L
sa(dp12
g6
L10L
sg7
L653L
sasVhhints
p13
(lp14
(dp15
g6
L10L
sg7
L-14L
sa(dp16
g6
L10L
sg7
L-8L
sa(dp17
g6
L10L
sg7
L318L
sa(dp18
g6
L10L
sg7
L514L
sa(dp19
g6
L10L
sg7
L544L
sa(dp20
g6
L10L
sg7
L599L
sa(dp21
g6
L10L
sg7
L604L
sass."
EndChar

StartChar: uni0E1D
Encoding: 429 3613 157
GlifName: uni0E_1D_
Width: 715
VWidth: 0
GlyphClass: 2
Flags: MW
LayerCount: 2
Fore
SplineSet
553 138 m 2
 553 810 l 1
 615 810 l 1
 615 0 l 1
 556 0 l 1
 356 312 l 1
 156 0 l 1
 97 0 l 1
 97 310 l 2
 97 383 85 411 85 469 c 0
 85 556 131 607 215 607 c 0
 273 607 314 568 314 514 c 0
 314 460 273 421 215 421 c 0
 184 421 158 432 140 451 c 1
 143 403 159 381 159 315 c 2
 159 138 l 2
 159 115 157 91 154 72 c 1
 338 360 l 1
 356 360 l 1
 374 360 l 1
 558 72 l 1
 555 91 553 115 553 138 c 2
215 455 m 0
 250 455 274 480 274 514 c 0
 274 548 250 573 215 573 c 0
 180 573 156 548 156 514 c 0
 156 480 180 455 215 455 c 0
EndSplineSet
PickledDataWithLists: "(dp0
Vcom.fontlab.hintData
p1
(dp2
Vvhints
p3
(lp4
(dp5
Vwidth
p6
L10L
sVposition
p7
L64L
sa(dp8
g6
L10L
sg7
L148L
sa(dp9
g6
L10L
sg7
L372L
sa(dp10
g6
L10L
sg7
L559L
sa(dp11
g6
L10L
sg7
L643L
sa(dp12
g6
L10L
sg7
L653L
sasVhhints
p13
(lp14
(dp15
g6
L10L
sg7
L-14L
sa(dp16
g6
L10L
sg7
L-8L
sa(dp17
g6
L10L
sg7
L318L
sa(dp18
g6
L10L
sg7
L514L
sa(dp19
g6
L10L
sg7
L544L
sa(dp20
g6
L10L
sg7
L604L
sa(dp21
g6
L10L
sg7
L834L
sass."
EndChar

StartChar: uni0E1E
Encoding: 430 3614 158
GlifName: uni0E_1E_
Width: 735
VWidth: 0
GlyphClass: 2
Flags: MW
LayerCount: 2
Fore
SplineSet
635 600 m 1
 635 0 l 1
 581 0 l 1
 385 432 l 1
 189 0 l 1
 135 0 l 1
 135 360 l 2
 135 387 142 407 150 423 c 1
 142 421 134 421 125 421 c 0
 67 421 26 460 26 514 c 0
 26 568 67 607 125 607 c 0
 183 607 224 568 224 514 c 0
 224 465 196 432 196 383 c 2
 196 155 l 2
 196 138 195 119 193 104 c 1
 368 495 l 1
 385 495 l 1
 402 495 l 1
 577 107 l 1
 575 122 574 139 574 155 c 2
 574 600 l 1
 635 600 l 1
125 455 m 0
 160 455 184 480 184 514 c 0
 184 548 160 573 125 573 c 0
 90 573 66 548 66 514 c 0
 66 480 90 455 125 455 c 0
EndSplineSet
PickledDataWithLists: "(dp0
Vcom.fontlab.hintData
p1
(dp2
Vvhints
p3
(lp4
(dp5
Vwidth
p6
L10L
sVposition
p7
L58L
sa(dp8
g6
L10L
sg7
L104L
sa(dp9
g6
L10L
sg7
L182L
sa(dp10
g6
L10L
sg7
L556L
sa(dp11
g6
L10L
sg7
L656L
sasVhhints
p12
(lp13
(dp14
g6
L10L
sg7
L-12L
sa(dp15
g6
L10L
sg7
L540L
sa(dp16
g6
L10L
sg7
L604L
sass."
EndChar

StartChar: uni0E1F
Encoding: 431 3615 159
GlifName: uni0E_1F_
Width: 735
VWidth: 0
GlyphClass: 2
Flags: MW
LayerCount: 2
Fore
SplineSet
635 810 m 1
 635 0 l 1
 581 0 l 1
 385 432 l 1
 189 0 l 1
 135 0 l 1
 135 360 l 2
 135 387 142 407 150 423 c 1
 142 421 134 421 125 421 c 0
 67 421 26 460 26 514 c 0
 26 568 67 607 125 607 c 0
 183 607 224 568 224 514 c 0
 224 465 196 432 196 383 c 2
 196 155 l 2
 196 138 195 119 193 104 c 1
 368 495 l 1
 385 495 l 1
 402 495 l 1
 577 107 l 1
 575 122 574 139 574 155 c 2
 574 810 l 1
 635 810 l 1
125 455 m 0
 160 455 184 480 184 514 c 0
 184 548 160 573 125 573 c 0
 90 573 66 548 66 514 c 0
 66 480 90 455 125 455 c 0
EndSplineSet
PickledDataWithLists: "(dp0
Vcom.fontlab.hintData
p1
(dp2
Vvhints
p3
(lp4
(dp5
Vwidth
p6
L10L
sVposition
p7
L58L
sa(dp8
g6
L10L
sg7
L104L
sa(dp9
g6
L10L
sg7
L182L
sa(dp10
g6
L10L
sg7
L565L
sa(dp11
g6
L9L
sg7
L641L
sa(dp12
g6
L11L
sg7
L686L
sasVhhints
p13
(lp14
(dp15
g6
L10L
sg7
L-12L
sa(dp16
g6
L10L
sg7
L540L
sa(dp17
g6
L10L
sg7
L604L
sa(dp18
g6
L10L
sg7
L834L
sass."
EndChar

StartChar: uni0E20
Encoding: 432 3616 160
GlifName: uni0E_20
Width: 665
VWidth: 0
GlyphClass: 2
Flags: MW
LayerCount: 2
Fore
SplineSet
142 145 m 0
 107 145 83 120 83 86 c 0
 83 52 107 27 142 27 c 0
 177 27 201 52 201 86 c 0
 201 120 177 145 142 145 c 0
143 442 m 1
 330 412 l 1
 323 382 l 1
 319 383 302 384 293 384 c 0
 247 384 219 359 219 304 c 2
 219 210 l 2
 219 166 241 131 241 86 c 0
 241 32 200 -7 142 -7 c 0
 84 -7 43 32 43 86 c 0
 43 140 84 179 142 179 c 0
 151 179 160 178 168 176 c 1
 161 193 156 214 156 240 c 2
 156 299 l 2
 156 354 183 387 228 400 c 1
 75 422 l 1
 89 525 173 617 325 617 c 0
 476 617 575 532 575 407 c 2
 575 0 l 1
 512 0 l 1
 512 407 l 2
 512 512 437 568 325 568 c 0
 225 568 163 517 143 442 c 1
EndSplineSet
PickledDataWithLists: "(dp0
Vcom.fontlab.hintData
p1
(dp2
Vvhints
p3
(lp4
(dp5
Vwidth
p6
L10L
sVposition
p7
L26L
sa(dp8
g6
L10L
sg7
L81L
sa(dp9
g6
L10L
sg7
L131L
sa(dp10
g6
L10L
sg7
L219L
sa(dp11
g6
L10L
sg7
L465L
sa(dp12
g6
L10L
sg7
L476L
sa(dp13
g6
L10L
sg7
L556L
sa(dp14
g6
L10L
sg7
L564L
sasVhhints
p15
(lp16
(dp17
g6
L10L
sg7
L-16L
sa(dp18
g6
L10L
sg7
L66L
sa(dp19
g6
L10L
sg7
L544L
sa(dp20
g6
L10L
sg7
L606L
sass."
EndChar

StartChar: uni0E21
Encoding: 433 3617 161
GlifName: uni0E_21
Width: 645
VWidth: 0
GlyphClass: 2
Flags: MW
LayerCount: 2
Fore
SplineSet
145 145 m 0
 110 145 86 120 86 86 c 0
 86 52 110 27 145 27 c 0
 180 27 204 52 204 86 c 0
 204 120 180 145 145 145 c 0
135 455 m 0
 170 455 194 480 194 514 c 0
 194 548 170 573 135 573 c 0
 100 573 76 548 76 514 c 0
 76 480 100 455 135 455 c 0
135 421 m 0
 77 421 36 460 36 514 c 0
 36 568 77 607 135 607 c 0
 193 607 234 568 234 514 c 0
 234 458 208 436 208 380 c 2
 208 220 l 2
 208 203 211 189 216 176 c 1
 334 167 425 114 484 59 c 1
 483 87 482 121 482 150 c 2
 482 600 l 1
 545 600 l 1
 545 0 l 1
 487 0 l 1
 436 61 347 122 234 135 c 1
 240 121 244 106 244 86 c 0
 244 32 203 -7 145 -7 c 0
 87 -7 46 32 46 86 c 0
 46 140 87 179 145 179 c 0
 151 179 157 179 162 178 c 1
 153 194 145 214 145 240 c 2
 145 360 l 2
 145 387 152 408 160 424 c 1
 152 422 144 421 135 421 c 0
EndSplineSet
PickledDataWithLists: "(dp0
Vcom.fontlab.hintData
p1
(dp2
Vvhints
p3
(lp4
(dp5
Vwidth
p6
L10L
sVposition
p7
L25L
sa(dp8
g6
L10L
sg7
L56L
sa(dp9
g6
L10L
sg7
L100L
sa(dp10
g6
L10L
sg7
L200L
sa(dp11
g6
L10L
sg7
L280L
sa(dp12
g6
L10L
sg7
L476L
sa(dp13
g6
L10L
sg7
L484L
sa(dp14
g6
L10L
sg7
L556L
sa(dp15
g6
L10L
sg7
L566L
sasVhhints
p16
(lp17
(dp18
g6
L10L
sg7
L-27L
sa(dp19
g6
L10L
sg7
L243L
sa(dp20
g6
L10L
sg7
L297L
sa(dp21
g6
L10L
sg7
L528L
sa(dp22
g6
L10L
sg7
L548L
sa(dp23
g6
L10L
sg7
L588L
sa(dp24
g6
L10L
sg7
L602L
sass."
EndChar

StartChar: uni0E22
Encoding: 434 3618 162
GlifName: uni0E_22
Width: 645
VWidth: 0
GlyphClass: 2
Flags: MW
LayerCount: 2
Fore
SplineSet
231 455 m 0
 266 455 290 480 290 514 c 0
 290 548 266 573 231 573 c 0
 196 573 172 548 172 514 c 0
 172 480 196 455 231 455 c 0
231 421 m 0
 173 421 132 460 132 514 c 0
 132 515 132 515 132 516 c 1
 127 503 125 487 125 470 c 0
 125 371 216 335 322 335 c 1
 322 295 l 1
 227 295 143 267 143 174 c 0
 143 81 212 32 315 32 c 0
 418 32 487 84 487 181 c 2
 487 600 l 1
 550 600 l 1
 550 181 l 2
 550 64 457 -17 315 -17 c 0
 173 -17 80 59 80 172 c 0
 80 255 134 296 200 313 c 1
 134 336 80 388 80 468 c 0
 80 551 138 607 231 607 c 0
 289 607 330 568 330 514 c 0
 330 460 289 421 231 421 c 0
EndSplineSet
PickledDataWithLists: "(dp0
Vcom.fontlab.hintData
p1
(dp2
Vvhints
p3
(lp4
(dp5
Vwidth
p6
L10L
sVposition
p7
L44L
sa(dp8
g6
L10L
sg7
L114L
sa(dp9
g6
L10L
sg7
L126L
sa(dp10
g6
L10L
sg7
L196L
sa(dp11
g6
L10L
sg7
L335L
sa(dp12
g6
L10L
sg7
L352L
sa(dp13
g6
L10L
sg7
L474L
sa(dp14
g6
L10L
sg7
L562L
sasVhhints
p15
(lp16
(dp17
g6
L10L
sg7
L-26L
sa(dp18
g6
L10L
sg7
L36L
sa(dp19
g6
L10L
sg7
L517L
sa(dp20
g6
L10L
sg7
L546L
sa(dp21
g6
L10L
sg7
L596L
sa(dp22
g6
L10L
sg7
L604L
sass."
EndChar

StartChar: uni0E23
Encoding: 435 3619 163
GlifName: uni0E_23
Width: 530
VWidth: 0
GlyphClass: 2
Flags: MW
AnchorPoint: "ThaiBelow.mark" 500 0 basechar 0
AnchorPoint: "ThaiTone.mark" 510 0 basechar 0
AnchorPoint: "ThaiAbove.mark" 560 0 basechar 0
LayerCount: 2
Fore
SplineSet
393 547 m 1
 395 552 398 557 399 559 c 2
 432 611 l 1
 480 601 l 1
 480 598 l 1
 407 500 l 1
 385 500 l 1
 369 524 326 573 240 573 c 0
 167 573 108 534 101 448 c 1
 289 443 400 410 400 315 c 2
 400 176 l 1
 400 108 l 2
 400 41 362 -7 286 -7 c 0
 228 -7 187 32 187 86 c 0
 187 140 228 179 286 179 c 0
 307 179 327 174 342 165 c 1
 339 181 337 198 337 213 c 2
 337 309 l 2
 337 384 247 414 40 414 c 1
 40 432 l 2
 40 545 119 617 232 617 c 0
 317 617 367 578 393 547 c 1
286 145 m 0
 251 145 227 120 227 86 c 0
 227 52 251 27 286 27 c 0
 321 27 345 52 345 86 c 0
 345 120 321 145 286 145 c 0
EndSplineSet
PickledDataWithLists: "(dp0
Vcom.fontlab.hintData
p1
(dp2
Vvhints
p3
(lp4
(dp5
Vwidth
p6
L10L
sVposition
p7
L31L
sa(dp8
g6
L10L
sg7
L111L
sa(dp9
g6
L10L
sg7
L116L
sa(dp10
g6
L10L
sg7
L362L
sa(dp11
g6
L10L
sg7
L446L
sa(dp12
g6
L10L
sg7
L479L
sasVhhints
p13
(lp14
(dp15
g6
L10L
sg7
L-16L
sa(dp16
g6
L10L
sg7
L46L
sa(dp17
g6
L10L
sg7
L91L
sa(dp18
g6
L10L
sg7
L494L
sa(dp19
g6
L10L
sg7
L548L
sa(dp20
g6
L10L
sg7
L610L
sass."
EndChar

StartChar: uni0E24
Encoding: 436 3620 164
GlifName: uni0E_24
Width: 655
VWidth: 0
GlyphClass: 2
Flags: MW
LayerCount: 2
Fore
SplineSet
201 145 m 0
 166 145 142 120 142 86 c 0
 142 52 166 27 201 27 c 0
 236 27 260 52 260 86 c 0
 260 120 236 145 201 145 c 0
201 179 m 0
 259 179 300 140 300 86 c 0
 300 32 259 -7 201 -7 c 0
 143 -7 102 32 102 86 c 0
 102 131 116 166 116 210 c 2
 116 299 l 2
 116 355 143 388 189 400 c 1
 65 422 l 1
 79 525 163 617 315 617 c 0
 466 617 565 532 565 407 c 2
 565 -210 l 1
 502 -210 l 1
 502 407 l 2
 502 512 427 568 315 568 c 0
 214 568 153 517 133 441 c 1
 290 412 l 1
 283 382 l 1
 279 383 262 384 253 384 c 0
 207 384 179 359 179 304 c 2
 179 240 l 2
 179 214 174 191 168 174 c 1
 178 177 189 179 201 179 c 0
EndSplineSet
PickledDataWithLists: "(dp0
Vcom.fontlab.hintData
p1
(dp2
Vvhints
p3
(lp4
(dp5
Vwidth
p6
L10L
sVposition
p7
L81L
sa(dp8
g6
L10L
sg7
L86L
sa(dp9
g6
L10L
sg7
L111L
sa(dp10
g6
L10L
sg7
L169L
sa(dp11
g6
L10L
sg7
L199L
sa(dp12
g6
L10L
sg7
L315L
sa(dp13
g6
L10L
sg7
L465L
sa(dp14
g6
L10L
sg7
L476L
sa(dp15
g6
L10L
sg7
L556L
sa(dp16
g6
L10L
sg7
L564L
sasVhhints
p17
(lp18
(dp19
g6
L10L
sg7
L-246L
sa(dp20
g6
L10L
sg7
L-19L
sa(dp21
g6
L10L
sg7
L43L
sa(dp22
g6
L10L
sg7
L56L
sa(dp23
g6
L10L
sg7
L544L
sa(dp24
g6
L10L
sg7
L606L
sass."
EndChar

StartChar: uni0E240E45.liga
Encoding: 808 63617 165
GlifName: uni0E_240E_45.liga
Width: 950
VWidth: 0
GlyphClass: 3
Flags: MW
LayerCount: 2
Fore
SplineSet
201 145 m 0
 166 145 142 120 142 86 c 0
 142 52 166 27 201 27 c 0
 236 27 260 52 260 86 c 0
 260 120 236 145 201 145 c 0
201 179 m 0
 259 179 300 140 300 86 c 0
 300 32 259 -7 201 -7 c 0
 143 -7 102 32 102 86 c 0
 102 131 116 166 116 210 c 2
 116 299 l 2
 116 355 143 388 189 400 c 1
 65 422 l 1
 79 525 163 617 315 617 c 0
 412 617 487 582 529 524 c 1
 554 572 603 611 680 611 c 0
 790 611 855 539 855 444 c 2
 855 -210 l 1
 792 -210 l 1
 792 444 l 2
 792 524 743 563 678 563 c 0
 610 563 572 515 559 459 c 1
 563 443 565 425 565 407 c 2
 565 -210 l 1
 502 -210 l 1
 502 407 l 2
 502 512 427 568 315 568 c 0
 214 568 153 517 133 441 c 1
 290 412 l 1
 283 382 l 1
 279 383 262 384 253 384 c 0
 207 384 179 359 179 304 c 2
 179 240 l 2
 179 214 174 191 168 174 c 1
 178 177 189 179 201 179 c 0
EndSplineSet
PickledDataWithLists: "(dp0
Vcom.fontlab.hintData
p1
(dp2
Vvhints
p3
(lp4
(dp5
Vwidth
p6
L10L
sVposition
p7
L81L
sa(dp8
g6
L10L
sg7
L86L
sa(dp9
g6
L10L
sg7
L111L
sa(dp10
g6
L10L
sg7
L169L
sa(dp11
g6
L10L
sg7
L199L
sa(dp12
g6
L10L
sg7
L315L
sa(dp13
g6
L10L
sg7
L465L
sa(dp14
g6
L10L
sg7
L476L
sa(dp15
g6
L10L
sg7
L556L
sa(dp16
g6
L10L
sg7
L563L
sa(dp17
g6
L10L
sg7
L756L
sa(dp18
g6
L10L
sg7
L782L
sa(dp19
g6
L10L
sg7
L844L
sa(dp20
g6
L10L
sg7
L870L
sasVhhints
p21
(lp22
(dp23
g6
L10L
sg7
L-245L
sa(dp24
g6
L10L
sg7
L-19L
sa(dp25
g6
L10L
sg7
L43L
sa(dp26
g6
L10L
sg7
L56L
sa(dp27
g6
L10L
sg7
L544L
sa(dp28
g6
L10L
sg7
L606L
sass."
Ligature2: "Thai.liga subtable" uni0E24 uni200D uni0E45
Ligature2: "Thai.liga subtable" uni0E24 uni0E45
Colour: ff00ff
EndChar

StartChar: uni0E25
Encoding: 437 3621 166
GlifName: uni0E_25
Width: 635
VWidth: 0
GlyphClass: 2
Flags: MW
LayerCount: 2
Fore
SplineSet
85 105 m 2
 85 209 l 2
 85 280 122 352 230 352 c 0
 350 352 434 267 482 193 c 1
 482 416 l 2
 482 516 411 568 305 568 c 0
 200 568 140 509 128 424 c 1
 65 430 l 1
 78 529 159 617 305 617 c 0
 449 617 545 536 545 416 c 2
 545 0 l 1
 482 0 l 1
 482 119 l 1
 452 186 359 308 233 308 c 0
 174 308 145 268 145 217 c 0
 145 193 142 175 141 165 c 1
 156 174 175 179 196 179 c 0
 254 179 295 140 295 86 c 0
 295 32 254 -7 196 -7 c 0
 124 -7 85 41 85 105 c 2
196 145 m 0
 161 145 137 120 137 86 c 0
 137 52 161 27 196 27 c 0
 231 27 255 52 255 86 c 0
 255 120 231 145 196 145 c 0
EndSplineSet
PickledDataWithLists: "(dp0
Vcom.fontlab.hintData
p1
(dp2
Vvhints
p3
(lp4
(dp5
Vwidth
p6
L10L
sVposition
p7
L41L
sa(dp8
g6
L10L
sg7
L91L
sa(dp9
g6
L10L
sg7
L179L
sa(dp10
g6
L10L
sg7
L504L
sa(dp11
g6
L10L
sg7
L589L
sasVhhints
p12
(lp13
(dp14
g6
L10L
sg7
L-16L
sa(dp15
g6
L10L
sg7
L-6L
sa(dp16
g6
L10L
sg7
L296L
sa(dp17
g6
L10L
sg7
L414L
sa(dp18
g6
L10L
sg7
L549L
sa(dp19
g6
L10L
sg7
L610L
sass."
EndChar

StartChar: uni0E26
Encoding: 438 3622 167
GlifName: uni0E_26
Width: 670
VWidth: 0
GlyphClass: 2
Flags: MW
LayerCount: 2
Fore
SplineSet
142 145 m 0
 107 145 83 120 83 86 c 0
 83 52 107 27 142 27 c 0
 177 27 201 52 201 86 c 0
 201 120 177 145 142 145 c 0
143 442 m 1
 330 412 l 1
 323 382 l 1
 319 383 302 384 293 384 c 0
 247 384 219 359 219 304 c 2
 219 210 l 2
 219 166 241 131 241 86 c 0
 241 32 200 -7 142 -7 c 0
 84 -7 43 32 43 86 c 0
 43 140 84 179 142 179 c 0
 151 179 160 178 168 176 c 1
 161 193 156 214 156 240 c 2
 156 299 l 2
 156 354 183 387 228 400 c 1
 75 422 l 1
 89 525 173 617 325 617 c 0
 476 617 575 532 575 407 c 2
 575 -210 l 1
 512 -210 l 1
 512 407 l 2
 512 512 437 568 325 568 c 0
 225 568 163 517 143 442 c 1
EndSplineSet
PickledDataWithLists: "(dp0
Vcom.fontlab.hintData
p1
(dp2
Vvhints
p3
(lp4
(dp5
Vwidth
p6
L10L
sVposition
p7
L26L
sa(dp8
g6
L10L
sg7
L81L
sa(dp9
g6
L10L
sg7
L131L
sa(dp10
g6
L10L
sg7
L219L
sa(dp11
g6
L10L
sg7
L465L
sa(dp12
g6
L10L
sg7
L476L
sa(dp13
g6
L10L
sg7
L556L
sa(dp14
g6
L10L
sg7
L564L
sasVhhints
p15
(lp16
(dp17
g6
L10L
sg7
L-246L
sa(dp18
g6
L10L
sg7
L-16L
sa(dp19
g6
L10L
sg7
L66L
sa(dp20
g6
L10L
sg7
L544L
sa(dp21
g6
L10L
sg7
L606L
sass."
EndChar

StartChar: uni0E260E45.liga
Encoding: 809 63618 168
GlifName: uni0E_260E_45.liga
Width: 960
VWidth: 0
GlyphClass: 3
Flags: MW
LayerCount: 2
Fore
SplineSet
142 145 m 0
 107 145 83 120 83 86 c 0
 83 52 107 27 142 27 c 0
 177 27 201 52 201 86 c 0
 201 120 177 145 142 145 c 0
143 442 m 1
 330 412 l 1
 323 382 l 1
 319 383 302 384 293 384 c 0
 247 384 219 359 219 304 c 2
 219 210 l 2
 219 166 241 131 241 86 c 0
 241 32 200 -7 142 -7 c 0
 84 -7 43 32 43 86 c 0
 43 140 84 179 142 179 c 0
 151 179 160 178 168 176 c 1
 161 193 156 214 156 240 c 2
 156 299 l 2
 156 354 183 387 228 400 c 1
 75 422 l 1
 89 525 173 617 325 617 c 0
 422 617 497 582 539 524 c 1
 564 572 613 611 690 611 c 0
 800 611 865 539 865 444 c 2
 865 -210 l 1
 802 -210 l 1
 802 444 l 2
 802 524 753 563 688 563 c 0
 620 563 582 515 569 459 c 1
 573 443 575 425 575 407 c 2
 575 -210 l 1
 512 -210 l 1
 512 407 l 2
 512 512 437 568 325 568 c 0
 225 568 163 517 143 442 c 1
EndSplineSet
PickledDataWithLists: "(dp0
Vcom.fontlab.hintData
p1
(dp2
Vvhints
p3
(lp4
(dp5
Vwidth
p6
L10L
sVposition
p7
L26L
sa(dp8
g6
L10L
sg7
L81L
sa(dp9
g6
L10L
sg7
L131L
sa(dp10
g6
L10L
sg7
L219L
sa(dp11
g6
L10L
sg7
L465L
sa(dp12
g6
L10L
sg7
L476L
sa(dp13
g6
L10L
sg7
L556L
sa(dp14
g6
L10L
sg7
L563L
sa(dp15
g6
L10L
sg7
L756L
sa(dp16
g6
L10L
sg7
L782L
sa(dp17
g6
L10L
sg7
L844L
sa(dp18
g6
L10L
sg7
L870L
sasVhhints
p19
(lp20
(dp21
g6
L10L
sg7
L-245L
sa(dp22
g6
L10L
sg7
L-16L
sa(dp23
g6
L10L
sg7
L66L
sa(dp24
g6
L10L
sg7
L544L
sa(dp25
g6
L10L
sg7
L606L
sass."
Ligature2: "Thai.liga subtable" uni0E26 uni200D uni0E45
Ligature2: "Thai.liga subtable" uni0E26 uni0E45
Colour: ff00ff
EndChar

StartChar: uni0E27
Encoding: 439 3623 169
GlifName: uni0E_27
Width: 535
VWidth: 0
GlyphClass: 2
Flags: MW
AnchorPoint: "ThaiAbove.mark" 545 0 basechar 0
LayerCount: 2
Fore
SplineSet
30 458 m 1
 42 539 110 617 235 617 c 0
 361 617 440 538 440 430 c 2
 440 176 l 1
 440 108 l 2
 440 41 402 -7 326 -7 c 0
 268 -7 227 32 227 86 c 0
 227 140 268 179 326 179 c 0
 347 179 367 174 382 165 c 1
 379 181 377 198 377 213 c 2
 377 430 l 2
 377 521 317 568 235 568 c 0
 152 568 104 520 93 452 c 1
 30 458 l 1
326 145 m 0
 291 145 267 120 267 86 c 0
 267 52 291 27 326 27 c 0
 361 27 385 52 385 86 c 0
 385 120 361 145 326 145 c 0
EndSplineSet
PickledDataWithLists: "(dp0
Vcom.fontlab.hintData
p1
(dp2
Vvhints
p3
(lp4
(dp5
Vwidth
p6
L10L
sVposition
p7
L21L
sa(dp8
g6
L10L
sg7
L168L
sa(dp9
g6
L10L
sg7
L255L
sa(dp10
g6
L10L
sg7
L411L
sa(dp11
g6
L10L
sg7
L499L
sasVhhints
p12
(lp13
(dp14
g6
L10L
sg7
L-15L
sa(dp15
g6
L10L
sg7
L46L
sa(dp16
g6
L10L
sg7
L136L
sa(dp17
g6
L10L
sg7
L394L
sa(dp18
g6
L9L
sg7
L552L
sa(dp19
g6
L10L
sg7
L614L
sass."
EndChar

StartChar: uni0E28
Encoding: 440 3624 170
GlifName: uni0E_28
Width: 680
VWidth: 0
GlyphClass: 2
Flags: MW
LayerCount: 2
Fore
SplineSet
330 382 m 0
 295 382 271 357 271 323 c 0
 271 289 295 264 330 264 c 0
 365 264 389 289 389 323 c 0
 389 357 365 382 330 382 c 0
321 416 m 1
 362 456 408 499 452 535 c 1
 421 557 379 568 330 568 c 0
 220 568 146 512 146 407 c 0
 146 294 156 244 161 198 c 1
 182 278 218 351 259 389 c 0
 275 404 296 414 321 416 c 1
478 512 m 1
 439 482 398 447 362 412 c 1
 402 400 429 366 429 323 c 0
 429 269 388 230 330 230 c 0
 284 230 248 255 236 292 c 1
 210 248 187 186 177 110 c 1
 170 0 l 1
 100 0 l 1
 100 0 110 75 110 122 c 0
 110 229 85 251 85 407 c 0
 85 532 182 617 330 617 c 0
 395 617 450 600 492 571 c 1
 529 603 573 635 624 641 c 1
 635 586 l 1
 597 583 561 568 525 543 c 1
 557 508 575 461 575 407 c 2
 575 0 l 1
 512 0 l 1
 512 110 l 2
 512 137 514 343 514 407 c 0
 514 451 501 486 478 512 c 1
EndSplineSet
PickledDataWithLists: "(dp0
Vcom.fontlab.hintData
p1
(dp2
Vvhints
p3
(lp4
(dp5
Vwidth
p6
L10L
sVposition
p7
L59L
sa(dp8
g6
L10L
sg7
L142L
sa(dp9
g6
L10L
sg7
L439L
sa(dp10
g6
L10L
sg7
L508L
sa(dp11
g6
L10L
sg7
L590L
sa(dp12
g6
L10L
sg7
L637L
sasVhhints
p13
(lp14
(dp15
g6
L10L
sg7
L-18L
sa(dp16
g6
L10L
sg7
L-4L
sa(dp17
g6
L10L
sg7
L551L
sa(dp18
g6
L10L
sg7
L608L
sa(dp19
g6
L10L
sg7
L654L
sass."
EndChar

StartChar: uni0E29
Encoding: 441 3625 171
GlifName: uni0E_29
Width: 710
VWidth: 0
GlyphClass: 2
Flags: MW
LayerCount: 2
Fore
SplineSet
120 455 m 0
 155 455 179 480 179 514 c 0
 179 548 155 573 120 573 c 0
 85 573 61 548 61 514 c 0
 61 480 85 455 120 455 c 0
120 421 m 0
 62 421 21 460 21 514 c 0
 21 568 62 607 120 607 c 0
 178 607 219 568 219 514 c 0
 219 469 193 434 193 390 c 2
 193 181 l 2
 193 84 262 32 365 32 c 0
 468 32 537 84 537 181 c 2
 537 262 l 1
 505 257 470 254 432 254 c 0
 360 254 308 284 308 345 c 0
 308 387 340 417 385 417 c 0
 430 417 462 387 462 345 c 0
 462 320 451 299 432 286 c 1
 437 286 442 287 447 287 c 0
 479 287 509 290 537 296 c 1
 537 600 l 1
 600 600 l 1
 600 313 l 1
 631 323 659 335 684 348 c 1
 696 311 l 1
 668 297 636 286 600 276 c 1
 600 181 l 2
 600 64 507 -17 365 -17 c 0
 223 -17 130 64 130 181 c 2
 130 360 l 2
 130 385 136 406 143 423 c 1
 136 422 128 421 120 421 c 0
385 389 m 0
 359 389 340 371 340 345 c 0
 340 319 359 301 385 301 c 0
 411 301 430 319 430 345 c 0
 430 371 411 389 385 389 c 0
EndSplineSet
PickledDataWithLists: "(dp0
Vcom.fontlab.hintData
p1
(dp2
Vvhints
p3
(lp4
(dp5
Vwidth
p6
L10L
sVposition
p7
L84L
sa(dp8
g6
L10L
sg7
L109L
sa(dp9
g6
L10L
sg7
L191L
sa(dp10
g6
L10L
sg7
L312L
sa(dp11
g6
L10L
sg7
L375L
sa(dp12
g6
L10L
sg7
L524L
sa(dp13
g6
L10L
sg7
L529L
sa(dp14
g6
L10L
sg7
L606L
sa(dp15
g6
L10L
sg7
L708L
sasVhhints
p16
(lp17
(dp18
g6
L10L
sg7
L-24L
sa(dp19
g6
L10L
sg7
L34L
sa(dp20
g6
L10L
sg7
L391L
sa(dp21
g6
L10L
sg7
L439L
sa(dp22
g6
L10L
sg7
L561L
sa(dp23
g6
L10L
sg7
L599L
sa(dp24
g6
L10L
sg7
L609L
sa(dp25
g6
L10L
sg7
L629L
sass."
EndChar

StartChar: uni0E2A
Encoding: 442 3626 172
GlifName: uni0E_2A_
Width: 650
VWidth: 0
GlyphClass: 2
Flags: MW
LayerCount: 2
Fore
SplineSet
85 105 m 2
 85 209 l 2
 85 280 122 352 229 352 c 1
 275 404 355 480 424 537 c 1
 394 558 353 568 305 568 c 0
 200 568 140 509 128 424 c 1
 65 430 l 1
 78 529 159 617 305 617 c 0
 369 617 423 601 464 573 c 1
 501 604 544 635 594 641 c 1
 605 586 l 1
 568 583 532 568 497 544 c 1
 528 510 545 467 545 416 c 2
 545 0 l 1
 482 0 l 1
 482 119 l 1
 452 186 359 308 233 308 c 0
 174 308 145 268 145 217 c 0
 145 193 142 175 141 165 c 1
 156 174 175 179 196 179 c 0
 254 179 295 140 295 86 c 0
 295 32 254 -7 196 -7 c 0
 124 -7 85 41 85 105 c 2
196 145 m 0
 161 145 137 120 137 86 c 0
 137 52 161 27 196 27 c 0
 231 27 255 52 255 86 c 0
 255 120 231 145 196 145 c 0
271 349 m 1
 369 333 440 258 482 193 c 1
 482 416 l 2
 482 456 471 489 450 513 c 1
 387 464 317 399 271 349 c 1
EndSplineSet
PickledDataWithLists: "(dp0
Vcom.fontlab.hintData
p1
(dp2
Vvhints
p3
(lp4
(dp5
Vwidth
p6
L10L
sVposition
p7
L54L
sa(dp8
g6
L10L
sg7
L94L
sa(dp9
g6
L10L
sg7
L136L
sa(dp10
g6
L10L
sg7
L176L
sa(dp11
g6
L10L
sg7
L504L
sa(dp12
g6
L10L
sg7
L586L
sa(dp13
g6
L10L
sg7
L616L
sasVhhints
p14
(lp15
(dp16
g6
L10L
sg7
L-14L
sa(dp17
g6
L10L
sg7
L-4L
sa(dp18
g6
L10L
sg7
L294L
sa(dp19
g6
L10L
sg7
L370L
sa(dp20
g6
L10L
sg7
L429L
sa(dp21
g6
L10L
sg7
L548L
sa(dp22
g6
L10L
sg7
L606L
sa(dp23
g6
L10L
sg7
L654L
sass."
EndChar

StartChar: uni0E2B
Encoding: 443 3627 173
GlifName: uni0E_2B_
Width: 660
VWidth: 0
GlyphClass: 2
Flags: MW
LayerCount: 2
Fore
SplineSet
489 455 m 0
 524 455 548 480 548 514 c 0
 548 548 524 573 489 573 c 0
 454 573 430 548 430 514 c 0
 430 480 454 455 489 455 c 0
125 455 m 0
 160 455 184 480 184 514 c 0
 184 548 160 573 125 573 c 0
 90 573 66 548 66 514 c 0
 66 480 90 455 125 455 c 0
125 421 m 0
 67 421 26 460 26 514 c 0
 26 568 67 607 125 607 c 0
 183 607 224 568 224 514 c 0
 224 469 198 434 198 390 c 2
 198 201 l 1
 250 297 336 395 437 434 c 1
 408 450 390 478 390 514 c 0
 390 568 431 607 489 607 c 0
 547 607 588 568 588 514 c 0
 588 468 558 434 514 424 c 1
 541 409 565 389 565 360 c 2
 565 0 l 1
 502 0 l 1
 502 370 l 2
 502 384 494 396 483 406 c 1
 360 375 237 232 198 103 c 1
 198 0 l 1
 135 0 l 1
 135 360 l 2
 135 385 141 406 148 423 c 1
 141 422 133 421 125 421 c 0
EndSplineSet
PickledDataWithLists: "(dp0
Vcom.fontlab.hintData
p1
(dp2
Vvhints
p3
(lp4
(dp5
Vwidth
p6
L10L
sVposition
p7
L84L
sa(dp8
g6
L10L
sg7
L166L
sa(dp9
g6
L11L
sg7
L191L
sa(dp10
g6
L10L
sg7
L320L
sa(dp11
g6
L10L
sg7
L395L
sa(dp12
g6
L10L
sg7
L493L
sa(dp13
g6
L10L
sg7
L525L
sa(dp14
g6
L10L
sg7
L600L
sa(dp15
g6
L10L
sg7
L638L
sasVhhints
p16
(lp17
(dp18
g6
L10L
sg7
L-24L
sa(dp19
g6
L10L
sg7
L-12L
sa(dp20
g6
L10L
sg7
L553L
sa(dp21
g6
L10L
sg7
L589L
sa(dp22
g6
L10L
sg7
L602L
sass."
EndChar

StartChar: uni0E2C
Encoding: 444 3628 174
GlifName: uni0E_2C_
Width: 760
VWidth: 0
GlyphClass: 2
Flags: MW
AnchorPoint: "ThaiBelow.mark" 720 0 basechar 0
AnchorPoint: "ThaiTone.mark" 720 0 basechar 0
AnchorPoint: "ThaiAbove.mark" 720 0 basechar 0
LayerCount: 2
Fore
SplineSet
574 155 m 2
 574 430 l 2
 574 440 576 449 578 457 c 1
 567 453 554 451 541 451 c 0
 483 451 442 490 442 544 c 0
 442 598 483 637 541 637 c 0
 599 637 640 598 640 544 c 0
 640 541 640 538 640 535 c 1
 660 555 671 582 675 627 c 1
 716 623 l 1
 707 555 676 520 638 496 c 1
 637 480 635 464 635 440 c 2
 635 0 l 1
 581 0 l 1
 385 402 l 1
 189 0 l 1
 135 0 l 1
 135 360 l 2
 135 387 142 407 150 423 c 1
 142 421 134 421 125 421 c 0
 67 421 26 460 26 514 c 0
 26 568 67 607 125 607 c 0
 183 607 224 568 224 514 c 0
 224 465 196 432 196 383 c 2
 196 155 l 2
 196 135 194 114 192 98 c 1
 368 465 l 1
 385 465 l 1
 402 465 l 1
 578 100 l 1
 576 115 574 136 574 155 c 2
541 485 m 0
 576 485 600 510 600 544 c 0
 600 578 576 603 541 603 c 0
 506 603 482 578 482 544 c 0
 482 510 506 485 541 485 c 0
125 455 m 0
 160 455 184 480 184 514 c 0
 184 548 160 573 125 573 c 0
 90 573 66 548 66 514 c 0
 66 480 90 455 125 455 c 0
EndSplineSet
PickledDataWithLists: "(dp0
Vcom.fontlab.hintData
p1
(dp2
Vvhints
p3
(lp4
(dp5
Vwidth
p6
L10L
sVposition
p7
L58L
sa(dp8
g6
L10L
sg7
L104L
sa(dp9
g6
L10L
sg7
L185L
sa(dp10
g6
L10L
sg7
L367L
sa(dp11
g6
L10L
sg7
L430L
sa(dp12
g6
L10L
sg7
L587L
sa(dp13
g6
L10L
sg7
L661L
sa(dp14
g6
L10L
sg7
L760L
sasVhhints
p15
(lp16
(dp17
g6
L10L
sg7
L-18L
sa(dp18
g6
L10L
sg7
L-13L
sa(dp19
g6
L10L
sg7
L329L
sa(dp20
g6
L10L
sg7
L391L
sa(dp21
g6
L10L
sg7
L439L
sa(dp22
g6
L10L
sg7
L561L
sa(dp23
g6
L10L
sg7
L604L
sa(dp24
g6
L10L
sg7
L609L
sa(dp25
g6
L10L
sg7
L629L
sass."
EndChar

StartChar: uni0E2D
Encoding: 445 3629 175
GlifName: uni0E_2D_
Width: 635
VWidth: 0
GlyphClass: 2
Flags: MW
LayerCount: 2
Fore
SplineSet
65 430 m 1
 78 529 159 617 305 617 c 0
 449 617 545 536 545 416 c 2
 545 175 l 2
 545 61 456 -17 320 -17 c 0
 184 -17 95 61 95 175 c 2
 95 267 l 2
 95 321 136 360 194 360 c 0
 252 360 293 321 293 267 c 0
 293 213 252 174 194 174 c 0
 180 174 166 177 154 181 c 1
 155 179 155 177 155 175 c 0
 155 81 224 32 320 32 c 0
 416 32 482 81 482 175 c 2
 482 416 l 2
 482 516 411 568 305 568 c 0
 200 568 140 509 128 424 c 1
 65 430 l 1
194 326 m 0
 159 326 135 301 135 267 c 0
 135 233 159 208 194 208 c 0
 229 208 253 233 253 267 c 0
 253 301 229 326 194 326 c 0
EndSplineSet
PickledDataWithLists: "(dp0
Vcom.fontlab.hintData
p1
(dp2
Vvhints
p3
(lp4
(dp5
Vwidth
p6
L10L
sVposition
p7
L50L
sa(dp8
g6
L10L
sg7
L61L
sa(dp9
g6
L10L
sg7
L149L
sa(dp10
g6
L10L
sg7
L289L
sa(dp11
g6
L10L
sg7
L481L
sa(dp12
g6
L10L
sg7
L569L
sasVhhints
p13
(lp14
(dp15
g6
L10L
sg7
L-19L
sa(dp16
g6
L10L
sg7
L43L
sa(dp17
g6
L10L
sg7
L215L
sa(dp18
g6
L10L
sg7
L230L
sa(dp19
g6
L10L
sg7
L292L
sa(dp20
g6
L10L
sg7
L414L
sa(dp21
g6
L9L
sg7
L549L
sa(dp22
g6
L10L
sg7
L611L
sass."
EndChar

StartChar: uni0E2E
Encoding: 446 3630 176
GlifName: uni0E_2E_
Width: 640
VWidth: 0
GlyphClass: 2
Flags: MW
LayerCount: 2
Fore
SplineSet
189 326 m 0
 154 326 130 301 130 267 c 0
 130 233 154 208 189 208 c 0
 224 208 248 233 248 267 c 0
 248 301 224 326 189 326 c 0
189 360 m 0
 247 360 288 321 288 267 c 0
 288 213 247 174 189 174 c 0
 175 174 161 177 149 181 c 1
 150 179 150 177 150 175 c 0
 150 81 219 32 315 32 c 0
 411 32 477 81 477 175 c 2
 477 300 l 2
 477 364 481 389 481 423 c 0
 481 433 480 442 479 451 c 1
 444 425 387 402 289 402 c 0
 154 402 70 445 70 495 c 0
 70 550 142 617 287 617 c 0
 396 617 467 572 499 527 c 1
 518 556 531 599 533 635 c 1
 590 630 l 1
 588 582 562 526 524 494 c 1
 533 475 540 449 540 423 c 2
 540 175 l 2
 540 61 451 -17 315 -17 c 0
 179 -17 90 61 90 175 c 2
 90 267 l 2
 90 321 131 360 189 360 c 0
129 495 m 0
 129 469 175 442 289 442 c 0
 382 442 437 464 467 490 c 1
 440 545 378 575 289 575 c 0
 184 575 129 534 129 495 c 0
EndSplineSet
PickledDataWithLists: "(dp0
Vcom.fontlab.hintData
p1
(dp2
Vvhints
p3
(lp4
(dp5
Vwidth
p6
L10L
sVposition
p7
L54L
sa(dp8
g6
L10L
sg7
L64L
sa(dp9
g6
L10L
sg7
L136L
sa(dp10
g6
L10L
sg7
L146L
sa(dp11
g6
L10L
sg7
L286L
sa(dp12
g6
L10L
sg7
L484L
sa(dp13
g6
L10L
sg7
L566L
sa(dp14
g6
L10L
sg7
L616L
sasVhhints
p15
(lp16
(dp17
g6
L10L
sg7
L-18L
sa(dp18
g6
L10L
sg7
L40L
sa(dp19
g6
L10L
sg7
L216L
sa(dp20
g6
L10L
sg7
L233L
sa(dp21
g6
L10L
sg7
L289L
sa(dp22
g6
L10L
sg7
L363L
sa(dp23
g6
L10L
sg7
L420L
sa(dp24
g6
L10L
sg7
L552L
sa(dp25
g6
L10L
sg7
L610L
sa(dp26
g6
L10L
sg7
L654L
sass."
EndChar

StartChar: uni0E2F
Encoding: 447 3631 177
GlifName: uni0E_2F_
Width: 495
VWidth: 0
GlyphClass: 2
Flags: MW
LayerCount: 2
Fore
SplineSet
154 573 m 0
 119 573 95 548 95 514 c 0
 95 480 119 455 154 455 c 0
 189 455 213 480 213 514 c 0
 213 548 189 573 154 573 c 0
154 607 m 0
 212 607 253 568 253 514 c 0
 253 486 241 462 222 445 c 1
 304 461 344 525 352 596 c 1
 383 600 l 1
 403 573 405 538 405 483 c 2
 405 138 l 2
 405 26 284 -2 166 -17 c 1
 157 29 l 1
 269 44 342 60 342 138 c 2
 342 436 l 2
 342 459 346 473 350 488 c 1
 318 443 263 410 184 410 c 0
 94 410 55 456 55 514 c 0
 55 568 96 607 154 607 c 0
EndSplineSet
PickledDataWithLists: "(dp0
Vcom.fontlab.hintData
p1
(dp2
Vvhints
p3
(lp4
(dp5
Vwidth
p6
L10L
sVposition
p7
L31L
sa(dp8
g6
L10L
sg7
L119L
sa(dp9
g6
L10L
sg7
L153L
sa(dp10
g6
L10L
sg7
L356L
sa(dp11
g6
L10L
sg7
L356L
sa(dp12
g6
L10L
sg7
L434L
sa(dp13
g6
L10L
sg7
L439L
sasVhhints
p14
(lp15
(dp16
g6
L10L
sg7
L-16L
sa(dp17
g6
L10L
sg7
L394L
sa(dp18
g6
L10L
sg7
L456L
sa(dp19
g6
L10L
sg7
L589L
sa(dp20
g6
L10L
sg7
L596L
sass."
EndChar

StartChar: uni0E30
Encoding: 448 3632 178
GlifName: uni0E_30
Width: 540
VWidth: 0
GlyphClass: 2
Flags: MW
LayerCount: 2
Fore
SplineSet
174 519 m 0
 139 519 115 494 115 460 c 0
 115 426 139 401 174 401 c 0
 209 401 233 426 233 460 c 0
 233 494 209 519 174 519 c 0
174 553 m 0
 232 553 273 514 273 460 c 0
 273 431 260 406 240 389 c 1
 289 389 l 2
 366 389 405 446 410 534 c 1
 465 527 l 1
 460 428 403 352 290 352 c 2
 215 352 l 2
 120 352 75 400 75 460 c 0
 75 514 116 553 174 553 c 0
174 219 m 0
 139 219 115 194 115 160 c 0
 115 126 139 101 174 101 c 0
 209 101 233 126 233 160 c 0
 233 194 209 219 174 219 c 0
174 253 m 0
 232 253 273 214 273 160 c 0
 273 131 260 106 240 89 c 1
 289 89 l 2
 366 89 405 146 410 234 c 1
 465 227 l 1
 460 128 403 52 290 52 c 2
 215 52 l 2
 120 52 75 100 75 160 c 0
 75 214 116 253 174 253 c 0
EndSplineSet
PickledDataWithLists: "(dp0
Vcom.fontlab.hintData
p1
(dp2
Vvhints
p3
(lp4
(dp5
Vwidth
p6
L10L
sVposition
p7
L51L
sa(dp8
g6
L10L
sg7
L60L
sa(dp9
g6
L10L
sg7
L139L
sa(dp10
g6
L10L
sg7
L144L
sa(dp11
g6
L10L
sg7
L154L
sa(dp12
g6
L10L
sg7
L450L
sasVhhints
p13
(lp14
(dp15
g6
L10L
sg7
L60L
sa(dp16
g6
L10L
sg7
L122L
sa(dp17
g6
L10L
sg7
L228L
sa(dp18
g6
L10L
sg7
L360L
sa(dp19
g6
L10L
sg7
L421L
sa(dp20
g6
L10L
sg7
L536L
sass."
EndChar

StartChar: uni0E31
Encoding: 449 3633 179
GlifName: uni0E_31
Width: 0
VWidth: 0
GlyphClass: 4
Flags: MW
AnchorPoint: "ThaiExtendedAbove.mkmk" 0 0 basemark 0
AnchorPoint: "ThaiAbove.mark" 0 0 mark 0
LayerCount: 2
Fore
SplineSet
-270 855 m 0
 -297 855 -315 836 -315 810 c 0
 -315 784 -297 765 -270 765 c 0
 -243 765 -225 784 -225 810 c 0
 -225 836 -243 855 -270 855 c 0
-270 885 m 0
 -223 885 -190 854 -190 810 c 0
 -190 780 -206 756 -230 744 c 1
 -221 744 -211 744 -202 744 c 2
 -172 744 l 2
 -104 744 -50 779 -50 872 c 1
 0 867 l 1
 0 768 -69 710 -165 710 c 2
 -215 710 l 2
 -299 710 -350 746 -350 810 c 0
 -350 854 -317 885 -270 885 c 0
EndSplineSet
PickledDataWithLists: "(dp0
Vcom.fontlab.hintData
p1
(dp2
Vvhints
p3
(lp4
(dp5
Vwidth
p6
L10L
sVposition
p7
L-391L
sa(dp8
g6
L10L
sg7
L-313L
sa(dp9
g6
L10L
sg7
L-306L
sa(dp10
g6
L10L
sg7
L55L
sasVhhints
p11
(lp12
(dp13
g6
L10L
sg7
L717L
sa(dp14
g6
L10L
sg7
L772L
sa(dp15
g6
L10L
sg7
L882L
sa(dp16
g6
L10L
sg7
L952L
sass."
Substitution2: "Thai.sl subtable" uni0E31.sl
EndChar

StartChar: uni0E32
Encoding: 450 3634 180
GlifName: uni0E_32
Width: 485
VWidth: 0
GlyphClass: 2
Flags: MW
LayerCount: 2
Fore
SplineSet
30 475 m 1
 40 547 99 617 210 617 c 0
 322 617 390 545 390 450 c 2
 390 0 l 1
 327 0 l 1
 327 450 l 2
 327 530 277 568 210 568 c 0
 143 568 102 529 93 469 c 1
 30 475 l 1
EndSplineSet
PickledDataWithLists: "(dp0
Vcom.fontlab.hintData
p1
(dp2
Vvhints
p3
(lp4
(dp5
Vwidth
p6
L10L
sVposition
p7
L15L
sa(dp8
g6
L10L
sg7
L291L
sa(dp9
g6
L10L
sg7
L312L
sa(dp10
g6
L10L
sg7
L379L
sa(dp11
g6
L10L
sg7
L400L
sasVhhints
p12
(lp13
(dp14
g6
L10L
sg7
L-25L
sa(dp15
g6
L10L
sg7
L399L
sa(dp16
g6
L10L
sg7
L545L
sa(dp17
g6
L10L
sg7
L606L
sass."
EndChar

StartChar: uni0E34
Encoding: 452 3636 182
GlifName: uni0E_34
Width: 0
VWidth: 0
GlyphClass: 4
Flags: MW
AnchorPoint: "ThaiExtendedAbove.mkmk" 0 0 basemark 0
AnchorPoint: "ThaiAbove.mark" 0 0 mark 0
LayerCount: 2
Fore
SplineSet
-456 764 m 1
 -167 719 l 1
 -193 767 -248 844 -355 844 c 0
 -408 844 -447 816 -456 764 c 1
-120 699 m 1
 -127 685 l 1
 -510 742 l 1
 -510 816 -458 880 -357 880 c 0
 -200 880 -138 739 -120 699 c 1
EndSplineSet
PickledDataWithLists: "(dp0
Vcom.fontlab.hintData
p1
(dp2
Vvhints
p3
(lp4
(dp5
Vwidth
p6
L10L
sVposition
p7
L-534L
sa(dp8
g6
L10L
sg7
L-456L
sasVhhints
p9
(lp10
(dp11
g6
L10L
sg7
L682L
sa(dp12
g6
L9L
sg7
L871L
sa(dp13
g6
L10L
sg7
L919L
sass."
Substitution2: "Thai.sl subtable" uni0E34.sl
EndChar

StartChar: uni0E35
Encoding: 453 3637 183
GlifName: uni0E_35
Width: 0
VWidth: 0
GlyphClass: 4
Flags: MW
AnchorPoint: "ThaiExtendedAbove.mkmk" 0 0 basemark 0
AnchorPoint: "ThaiAbove.mark" 0 0 mark 0
LayerCount: 2
Fore
SplineSet
-159 798 m 2
 -159 885 l 1
 -110 877 l 1
 -110 691 l 1
 -118 680 l 1
 -510 737 l 1
 -510 811 -459 875 -361 875 c 0
 -252 875 -186 799 -151 743 c 1
 -155 760 -159 780 -159 798 c 2
-456 759 m 1
 -155 712 l 1
 -182 760 -244 839 -356 839 c 0
 -409 839 -448 811 -456 759 c 1
EndSplineSet
PickledDataWithLists: "(dp0
Vcom.fontlab.hintData
p1
(dp2
Vvhints
p3
(lp4
(dp5
Vwidth
p6
L10L
sVposition
p7
L-530L
sa(dp8
g6
L10L
sg7
L-460L
sa(dp9
g6
L10L
sg7
L-189L
sa(dp10
g6
L10L
sg7
L-175L
sa(dp11
g6
L10L
sg7
L-116L
sasVhhints
p12
(lp13
(dp14
g6
L10L
sg7
L691L
sa(dp15
g6
L10L
sg7
L861L
sa(dp16
g6
L10L
sg7
L909L
sa(dp17
g6
L10L
sg7
L929L
sass."
Substitution2: "Thai.sl subtable" uni0E35.sl
EndChar

StartChar: uni0E36
Encoding: 454 3638 184
GlifName: uni0E_36
Width: 0
VWidth: 0
GlyphClass: 4
Flags: MW
AnchorPoint: "ThaiExtendedAbove.mkmk" 0 0 basemark 0
AnchorPoint: "ThaiAbove.mark" 0 0 mark 0
LayerCount: 2
Fore
SplineSet
-189 844 m 0
 -224 844 -248 819 -248 785 c 0
 -248 751 -224 726 -189 726 c 0
 -154 726 -130 751 -130 785 c 0
 -130 819 -154 844 -189 844 c 0
-189 878 m 0
 -131 878 -90 839 -90 785 c 0
 -90 731 -131 692 -189 692 c 0
 -206 692 -222 695 -235 701 c 1
 -510 737 l 1
 -510 811 -459 875 -361 875 c 0
 -322 875 -291 862 -268 844 c 1
 -250 865 -222 878 -189 878 c 0
-283 818 m 1
 -302 831 -325 839 -356 839 c 0
 -409 839 -448 811 -456 759 c 1
 -272 733 l 1
 -282 748 -288 765 -288 785 c 0
 -288 797 -287 808 -283 818 c 1
EndSplineSet
PickledDataWithLists: "(dp0
Vcom.fontlab.hintData
p1
(dp2
Vvhints
p3
(lp4
(dp5
Vwidth
p6
L10L
sVposition
p7
L-544L
sa(dp8
g6
L10L
sg7
L-466L
sa(dp9
g6
L10L
sg7
L-208L
sa(dp10
g6
L10L
sg7
L-134L
sa(dp11
g6
L10L
sg7
L-84L
sasVhhints
p12
(lp13
(dp14
g6
L10L
sg7
L689L
sa(dp15
g6
L10L
sg7
L723L
sa(dp16
g6
L21L
sg7
L824L
sa(dp17
g6
L10L
sg7
L861L
sa(dp18
g6
L10L
sg7
L892L
sa(dp19
g6
L10L
sg7
L909L
sass."
Substitution2: "Thai.sl subtable" uni0E36.sl
EndChar

StartChar: uni0E37
Encoding: 455 3639 185
GlifName: uni0E_37
Width: 0
VWidth: 0
GlyphClass: 4
Flags: MW
AnchorPoint: "ThaiExtendedAbove.mkmk" 0 0 basemark 0
AnchorPoint: "ThaiAbove.mark" 0 0 mark 0
LayerCount: 2
Fore
SplineSet
-260 848 m 2
 -260 910 l 1
 -218 901 l 1
 -218 722 l 1
 -144 710 l 1
 -148 721 -152 737 -152 758 c 2
 -152 885 l 1
 -110 876 l 1
 -110 691 l 1
 -119 680 l 1
 -510 737 l 1
 -510 811 -461 875 -370 875 c 0
 -314 875 -279 850 -257 820 c 1
 -259 829 -260 839 -260 848 c 2
-236 724 m 1
 -252 774 -282 839 -365 839 c 0
 -412 839 -448 811 -456 759 c 1
 -236 724 l 1
EndSplineSet
PickledDataWithLists: "(dp0
Vcom.fontlab.hintData
p1
(dp2
Vvhints
p3
(lp4
(dp5
Vwidth
p6
L10L
sVposition
p7
L-554L
sa(dp8
g6
L10L
sg7
L-476L
sa(dp9
g6
L10L
sg7
L-280L
sa(dp10
g6
L10L
sg7
L-218L
sa(dp11
g6
L10L
sg7
L-159L
sa(dp12
g6
L10L
sg7
L-148L
sa(dp13
g6
L10L
sg7
L-100L
sasVhhints
p14
(lp15
(dp16
g6
L10L
sg7
L698L
sa(dp17
g6
L10L
sg7
L861L
sa(dp18
g6
L10L
sg7
L909L
sa(dp19
g6
L10L
sg7
L922L
sa(dp20
g6
L10L
sg7
L932L
sass."
Substitution2: "Thai.sl subtable" uni0E37.sl
EndChar

StartChar: uni0E38
Encoding: 456 3640 186
GlifName: uni0E_38
Width: 0
VWidth: 0
GlyphClass: 4
Flags: MW
AnchorPoint: "ThaiExtendedBelow.mkmk" 0 0 mark 0
AnchorPoint: "ThaiExtendedBelow.mkmk" 0 -280 basemark 0
AnchorPoint: "ThaiBelow.mark" 0 0 mark 0
LayerCount: 2
Fore
SplineSet
-180 -105 m 0
 -207 -105 -225 -124 -225 -150 c 0
 -225 -176 -207 -195 -180 -195 c 0
 -153 -195 -135 -176 -135 -150 c 0
 -135 -124 -153 -105 -180 -105 c 0
-155 -305 m 1
 -155 -245 l 2
 -155 -235 -152 -227 -149 -220 c 1
 -158 -223 -169 -225 -180 -225 c 0
 -227 -225 -260 -194 -260 -150 c 0
 -260 -106 -227 -75 -180 -75 c 0
 -133 -75 -100 -106 -100 -150 c 0
 -100 -191 -108 -203 -108 -233 c 2
 -108 -305 l 1
 -155 -305 l 1
EndSplineSet
PickledDataWithLists: "(dp0
Vcom.fontlab.hintData
p1
(dp2
Vvhints
p3
(lp4
(dp5
Vwidth
p6
L10L
sVposition
p7
L-285L
sa(dp8
g6
L10L
sg7
L-185L
sa(dp9
g6
L10L
sg7
L-104L
sasVhhints
p10
(lp11
(dp12
g6
L10L
sg7
L-322L
sa(dp13
g6
L10L
sg7
L-172L
sa(dp14
g6
L10L
sg7
L-98L
sass."
Substitution2: "ThaiBV.sd subtable" uni0E38.sd
EndChar

StartChar: uni0E39
Encoding: 457 3641 187
GlifName: uni0E_39
Width: 0
VWidth: 0
GlyphClass: 4
Flags: MW
AnchorPoint: "ThaiExtendedBelow.mkmk" 0 0 mark 0
AnchorPoint: "ThaiExtendedBelow.mkmk" 0 -280 basemark 0
AnchorPoint: "ThaiBelow.mark" -30 0 mark 0
LayerCount: 2
Fore
SplineSet
-340 -105 m 0
 -367 -105 -385 -124 -385 -150 c 0
 -385 -176 -367 -195 -340 -195 c 0
 -313 -195 -295 -176 -295 -150 c 0
 -295 -124 -313 -105 -340 -105 c 0
-315 -251 m 2
 -315 -228 l 2
 -315 -226 -314 -224 -314 -222 c 1
 -322 -224 -331 -225 -340 -225 c 0
 -387 -225 -420 -194 -420 -150 c 0
 -420 -106 -387 -75 -340 -75 c 0
 -293 -75 -260 -106 -260 -150 c 0
 -260 -188 -271 -199 -271 -223 c 2
 -271 -245 l 2
 -271 -265 -254 -278 -212 -278 c 0
 -170 -278 -153 -265 -153 -245 c 2
 -153 -81 l 1
 -107 -81 l 1
 -107 -248 l 2
 -107 -290 -153 -310 -212 -310 c 0
 -271 -310 -315 -293 -315 -251 c 2
EndSplineSet
PickledDataWithLists: "(dp0
Vcom.fontlab.hintData
p1
(dp2
Vvhints
p3
(lp4
(dp5
Vwidth
p6
L10L
sVposition
p7
L-401L
sa(dp8
g6
L10L
sg7
L-115L
sasVhhints
p9
(lp10
(dp11
g6
L10L
sg7
L-331L
sa(dp12
g6
L21L
sg7
L-267L
sa(dp13
g6
L10L
sg7
L-154L
sa(dp14
g6
L10L
sg7
L-106L
sass."
Substitution2: "ThaiBV.sd subtable" uni0E39.sd
EndChar

StartChar: uni0E3A
Encoding: 458 3642 188
GlifName: uni0E_3A_
Width: 0
VWidth: 0
GlyphClass: 4
Flags: MW
AnchorPoint: "ThaiExtendedBelow.mkmk" 0 0 mark 0
AnchorPoint: "ThaiExtendedBelow.mkmk" 0 -210 basemark 0
AnchorPoint: "ThaiBelow.mark" 0 0 mark 0
LayerCount: 2
Fore
SplineSet
-150 -89 m 0
 -113 -89 -85 -113 -85 -150 c 0
 -85 -187 -113 -211 -150 -211 c 0
 -187 -211 -215 -187 -215 -150 c 0
 -215 -113 -187 -89 -150 -89 c 0
EndSplineSet
PickledDataWithLists: "(dp0
Vcom.fontlab.hintData
p1
(dp2
Vvhints
p3
(lp4
(dp5
Vwidth
p6
L10L
sVposition
p7
L-229L
sa(dp8
g6
L10L
sg7
L-81L
sasVhhints
p9
(lp10
(dp11
g6
L10L
sg7
L-231L
sa(dp12
g6
L10L
sg7
L-110L
sass."
Substitution2: "ThaiBV.sd subtable" uni0E3A.sd
EndChar

StartChar: uni0E3F
Encoding: 459 3647 189
GlifName: uni0E_3F_
Width: 720
VWidth: 0
GlyphClass: 2
Flags: MW
LayerCount: 2
Fore
SplineSet
438 426 m 1
 555 401 635 331 635 216 c 0
 635 76 517 0 357 -8 c 1
 357 -120 l 1
 305 -120 l 1
 305 -9 l 1
 213 -8 139 -3 105 0 c 1
 105 780 l 1
 137 783 203 789 294 789 c 0
 298 789 301 789 305 789 c 2
 305 900 l 1
 357 900 l 1
 357 785 l 1
 473 769 560 706 560 595 c 0
 560 509 509 454 438 426 c 1
172 734 m 1
 172 432 l 1
 207 434 252 437 305 437 c 1
 305 737 l 1
 299 737 294 737 288 737 c 0
 236 737 200 736 172 734 c 1
172 47 m 1
 205 45 250 43 305 43 c 1
 305 388 l 1
 250 388 205 386 172 384 c 1
 172 47 l 1
357 442 m 1
 430 458 492 505 492 590 c 0
 492 671 438 716 357 731 c 1
 357 442 l 1
357 44 m 1
 477 52 566 104 566 216 c 0
 566 328 477 379 357 387 c 1
 357 44 l 1
EndSplineSet
PickledDataWithLists: "(dp0
Vcom.fontlab.hintData
p1
(dp2
Vvhints
p3
(lp4
(dp5
Vwidth
p6
L10L
sVposition
p7
L26L
sa(dp8
g6
L10L
sg7
L116L
sa(dp9
g6
L10L
sg7
L121L
sa(dp10
g6
L10L
sg7
L223L
sa(dp11
g6
L10L
sg7
L343L
sa(dp12
g6
L10L
sg7
L350L
sa(dp13
g6
L10L
sg7
L407L
sa(dp14
g6
L10L
sg7
L412L
sa(dp15
g6
L10L
sg7
L537L
sa(dp16
g6
L10L
sg7
L636L
sa(dp17
g6
L10L
sg7
L735L
sasVhhints
p18
(lp19
(dp20
g6
L10L
sg7
L-127L
sa(dp21
g6
L10L
sg7
L-22L
sa(dp22
g6
L10L
sg7
L49L
sa(dp23
g6
L10L
sg7
L395L
sa(dp24
g6
L10L
sg7
L634L
sa(dp25
g6
L10L
sg7
L661L
sa(dp26
g6
L10L
sg7
L916L
sass."
EndChar

StartChar: uni0E40
Encoding: 460 3648 190
GlifName: uni0E_40
Width: 330
VWidth: 0
GlyphClass: 2
Flags: MW
LayerCount: 2
Fore
SplineSet
204 145 m 0
 169 145 145 120 145 86 c 0
 145 52 169 27 204 27 c 0
 239 27 263 52 263 86 c 0
 263 120 239 145 204 145 c 0
204 179 m 0
 262 179 303 140 303 86 c 0
 303 32 262 -7 204 -7 c 0
 146 -7 105 32 105 86 c 0
 105 131 119 166 119 210 c 2
 119 600 l 1
 182 600 l 1
 182 240 l 2
 182 214 177 191 171 174 c 1
 181 177 192 179 204 179 c 0
EndSplineSet
PickledDataWithLists: "(dp0
Vcom.fontlab.hintData
p1
(dp2
Vvhints
p3
(lp4
(dp5
Vwidth
p6
L10L
sVposition
p7
L116L
sa(dp8
g6
L10L
sg7
L121L
sa(dp9
g6
L10L
sg7
L204L
sa(dp10
g6
L10L
sg7
L209L
sa(dp11
g6
L10L
sg7
L244L
sasVhhints
p12
(lp13
(dp14
g6
L10L
sg7
L-30L
sa(dp15
g6
L10L
sg7
L586L
sass."
EndChar

StartChar: uni0E42
Encoding: 462 3650 192
GlifName: uni0E_42
Width: 380
VWidth: 0
GlyphClass: 2
Flags: MW
LayerCount: 2
Fore
SplineSet
245 179 m 0
 303 179 344 140 344 86 c 0
 344 32 303 -7 245 -7 c 0
 187 -7 146 32 146 86 c 0
 146 131 160 166 160 210 c 2
 160 640 l 2
 160 695 147 725 2 725 c 1
 2 743 l 2
 2 844 69 911 172 911 c 0
 246 911 292 872 316 841 c 1
 322 853 l 1
 354 905 l 1
 403 895 l 1
 403 892 l 1
 329 794 l 1
 307 794 l 1
 292 818 257 868 179 868 c 0
 116 868 66 832 61 756 c 1
 190 749 223 710 223 640 c 2
 223 240 l 2
 223 214 218 191 212 174 c 1
 222 177 233 179 245 179 c 0
245 145 m 0
 210 145 186 120 186 86 c 0
 186 52 210 27 245 27 c 0
 280 27 304 52 304 86 c 0
 304 120 280 145 245 145 c 0
EndSplineSet
PickledDataWithLists: "(dp0
Vcom.fontlab.hintData
p1
(dp2
Vvhints
p3
(lp4
(dp5
Vwidth
p6
L10L
sVposition
p7
L37L
sa(dp8
g6
L10L
sg7
L165L
sa(dp9
g6
L10L
sg7
L175L
sa(dp10
g6
L10L
sg7
L248L
sa(dp11
g6
L10L
sg7
L257L
sa(dp12
g6
L10L
sg7
L268L
sa(dp13
g6
L10L
sg7
L517L
sasVhhints
p14
(lp15
(dp16
g6
L10L
sg7
L-29L
sa(dp17
g6
L10L
sg7
L924L
sa(dp18
g6
L10L
sg7
L984L
sass."
EndChar

StartChar: uni0E43
Encoding: 463 3651 193
GlifName: uni0E_43
Width: 380
VWidth: 0
GlyphClass: 2
Flags: MW
LayerCount: 2
Fore
SplineSet
115 837 m 0
 80 837 56 812 56 778 c 0
 56 744 80 719 115 719 c 0
 150 719 174 744 174 778 c 0
 174 812 150 837 115 837 c 0
245 145 m 0
 210 145 186 120 186 86 c 0
 186 52 210 27 245 27 c 0
 280 27 304 52 304 86 c 0
 304 120 280 145 245 145 c 0
245 179 m 0
 303 179 344 140 344 86 c 0
 344 32 303 -7 245 -7 c 0
 187 -7 146 32 146 86 c 0
 146 131 160 166 160 210 c 2
 160 510 l 2
 160 653 297 661 297 777 c 0
 297 840 251 876 175 876 c 0
 157 876 141 874 126 870 c 1
 178 865 214 828 214 778 c 0
 214 724 173 685 115 685 c 0
 57 685 16 724 16 778 c 0
 16 849 75 911 180 911 c 0
 282 911 346 856 346 773 c 0
 346 647 223 638 223 510 c 2
 223 240 l 2
 223 214 218 191 212 174 c 1
 222 177 233 179 245 179 c 0
EndSplineSet
PickledDataWithLists: "(dp0
Vcom.fontlab.hintData
p1
(dp2
Vvhints
p3
(lp4
(dp5
Vwidth
p6
L10L
sVposition
p7
L1L
sa(dp8
g6
L10L
sg7
L82L
sa(dp9
g6
L10L
sg7
L189L
sa(dp10
g6
L10L
sg7
L232L
sa(dp11
g6
L10L
sg7
L270L
sa(dp12
g6
L10L
sg7
L279L
sa(dp13
g6
L10L
sg7
L311L
sasVhhints
p14
(lp15
(dp16
g6
L10L
sg7
L-24L
sa(dp17
g6
L10L
sg7
L642L
sa(dp18
g6
L10L
sg7
L948L
sa(dp19
g6
L10L
sg7
L1002L
sass."
EndChar

StartChar: uni0E44
Encoding: 464 3652 194
GlifName: uni0E_44
Width: 380
VWidth: 0
GlyphClass: 2
Flags: MW
LayerCount: 2
Fore
SplineSet
245 145 m 0
 210 145 186 120 186 86 c 0
 186 52 210 27 245 27 c 0
 280 27 304 52 304 86 c 0
 304 120 280 145 245 145 c 0
245 179 m 0
 303 179 344 140 344 86 c 0
 344 32 303 -7 245 -7 c 0
 187 -7 146 32 146 86 c 0
 146 131 160 166 160 210 c 2
 160 530 l 2
 160 656 310 770 310 837 c 0
 310 854 299 872 274 872 c 0
 250 869 230 843 219 825 c 0
 200 794 145 710 145 710 c 1
 121 710 l 1
 2 891 l 1
 2 894 l 1
 45 907 l 1
 116 794 l 2
 123 781 130 767 135 755 c 1
 149 779 171 817 189 846 c 0
 203 869 225 907 279 907 c 0
 337 907 356 867 356 838 c 0
 356 752 223 666 223 530 c 2
 223 240 l 2
 223 214 218 191 212 174 c 1
 222 177 233 179 245 179 c 0
EndSplineSet
PickledDataWithLists: "(dp0
Vcom.fontlab.hintData
p1
(dp2
Vvhints
p3
(lp4
(dp5
Vwidth
p6
L10L
sVposition
p7
L-47L
sa(dp8
g6
L10L
sg7
L152L
sa(dp9
g6
L10L
sg7
L234L
sa(dp10
g6
L10L
sg7
L415L
sasVhhints
p11
(lp12
(dp13
g6
L10L
sg7
L-28L
sa(dp14
g6
L10L
sg7
L849L
sa(dp15
g6
L10L
sg7
L906L
sa(dp16
g6
L10L
sg7
L1003L
sass."
EndChar

StartChar: uni0E45
Encoding: 465 3653 195
GlifName: uni0E_45
Width: 485
VWidth: 0
GlyphClass: 2
Flags: MW
LayerCount: 2
Fore
SplineSet
30 475 m 1
 40 547 99 617 210 617 c 0
 322 617 390 545 390 450 c 2
 390 -210 l 1
 327 -210 l 1
 327 450 l 2
 327 530 277 568 210 568 c 0
 143 568 102 529 93 469 c 1
 30 475 l 1
EndSplineSet
PickledDataWithLists: "(dp0
Vcom.fontlab.hintData
p1
(dp2
Vvhints
p3
(lp4
(dp5
Vwidth
p6
L10L
sVposition
p7
L15L
sa(dp8
g6
L10L
sg7
L291L
sa(dp9
g6
L10L
sg7
L312L
sa(dp10
g6
L10L
sg7
L379L
sa(dp11
g6
L10L
sg7
L400L
sasVhhints
p12
(lp13
(dp14
g6
L10L
sg7
L-245L
sa(dp15
g6
L10L
sg7
L399L
sa(dp16
g6
L10L
sg7
L545L
sa(dp17
g6
L10L
sg7
L606L
sass."
EndChar

StartChar: uni0E46
Encoding: 466 3654 196
GlifName: uni0E_46
Width: 590
VWidth: 0
Flags: MW
LayerCount: 2
Fore
SplineSet
209 396 m 0
 174 396 150 371 150 337 c 0
 150 303 174 278 209 278 c 0
 244 278 268 303 268 337 c 0
 268 371 244 396 209 396 c 0
209 430 m 0
 267 430 308 391 308 337 c 0
 308 283 267 244 209 244 c 0
 112 244 65 327 65 423 c 0
 65 530 125 600 190 611 c 1
 280 526 l 1
 370 611 l 1
 435 600 495 530 495 423 c 2
 495 -210 l 1
 432 -210 l 1
 432 423 l 2
 432 484 409 533 370 556 c 1
 286 480 l 1
 280 480 l 1
 274 480 l 1
 186 560 l 1
 143 539 118 487 118 423 c 0
 118 409 119 396 121 382 c 1
 137 411 169 430 209 430 c 0
EndSplineSet
PickledDataWithLists: "(dp0
Vcom.fontlab.hintData
p1
(dp2
Vvhints
p3
(lp4
(dp5
Vwidth
p6
L10L
sVposition
p7
L54L
sa(dp8
g6
L10L
sg7
L136L
sa(dp9
g6
L10L
sg7
L262L
sa(dp10
g6
L10L
sg7
L434L
sa(dp11
g6
L10L
sg7
L444L
sa(dp12
g6
L10L
sg7
L516L
sa(dp13
g6
L10L
sg7
L526L
sasVhhints
p14
(lp15
(dp16
g6
L10L
sg7
L-244L
sa(dp17
g6
L10L
sg7
L216L
sa(dp18
g6
L10L
sg7
L274L
sa(dp19
g6
L10L
sg7
L390L
sa(dp20
g6
L10L
sg7
L536L
sa(dp21
g6
L10L
sg7
L588L
sa(dp22
g6
L10L
sg7
L594L
sass."
EndChar

StartChar: uni0E47
Encoding: 467 3655 197
GlifName: uni0E_47
Width: 0
VWidth: 0
GlyphClass: 4
Flags: MW
AnchorPoint: "ThaiExtendedAbove.mkmk" -80 0 basemark 0
AnchorPoint: "ThaiAbove.mark" 0 0 mark 0
LayerCount: 2
Fore
SplineSet
-183 786 m 0
 -209 786 -228 768 -228 742 c 0
 -228 716 -209 698 -183 698 c 0
 -157 698 -138 716 -138 742 c 0
 -138 768 -157 786 -183 786 c 0
-183 814 m 0
 -138 814 -106 784 -106 742 c 0
 -106 700 -138 670 -183 670 c 0
 -228 670 -260 700 -260 742 c 0
 -260 745 -260 748 -260 751 c 2
 -310 677 l 1
 -380 677 -435 711 -435 785 c 0
 -435 859 -380 893 -310 893 c 2
 -190 893 l 2
 -152 893 -119 898 -103 913 c 1
 -85 882 l 1
 -110 862 -148 859 -188 859 c 2
 -310 859 l 2
 -358 859 -393 838 -393 785 c 0
 -393 738 -365 716 -325 712 c 1
 -267 795 l 1
 -261 795 l 1
 -247 783 l 1
 -234 802 -211 814 -183 814 c 0
EndSplineSet
PickledDataWithLists: "(dp0
Vcom.fontlab.hintData
p1
(dp2
Vvhints
p3
(lp4
(dp5
Vwidth
p6
L10L
sVposition
p7
L-460L
sa(dp8
g6
L10L
sg7
L-390L
sa(dp9
g6
L10L
sg7
L-265L
sa(dp10
g6
L10L
sg7
L-100L
sa(dp11
g6
L10L
sg7
L-71L
sasVhhints
p12
(lp13
(dp14
g6
L10L
sg7
L691L
sa(dp15
g6
L10L
sg7
L739L
sa(dp16
g6
L10L
sg7
L806L
sa(dp17
g6
L10L
sg7
L861L
sa(dp18
g6
L10L
sg7
L909L
sa(dp19
g6
L10L
sg7
L929L
sass."
Substitution2: "Thai.sul subtable" uni0E47.sul
Substitution2: "Thai.su subtable" uni0E47.su
Substitution2: "Thai.sl subtable" uni0E47.sl
EndChar

StartChar: uni0E48
Encoding: 468 3656 198
GlifName: uni0E_48
Width: 0
VWidth: 0
GlyphClass: 4
Flags: MW
AnchorPoint: "ThaiExtendedAbove.mkmk" 0 0 mark 0
AnchorPoint: "ThaiExtendedAbove.mkmk" 0 240 basemark 0
LayerCount: 2
Fore
SplineSet
-159 945 m 1
 -159 1120 l 1
 -110 1120 l 1
 -110 936 l 1
 -159 945 l 1
EndSplineSet
PickledDataWithLists: "(dp0
Vcom.fontlab.hintData
p1
(dp2
Vvhints
p3
(lp4
(dp5
Vwidth
p6
L10L
sVposition
p7
L-127L
sasVhhints
p8
(lp9
(dp10
g6
L10L
sg7
L985L
sa(dp11
g6
L10L
sg7
L1197L
sass."
Substitution2: "Thai.sl subtable" uni0E48.sl
Substitution2: "Thai.sdl subtable" uni0E48.sdl
Substitution2: "Thai.sd subtable" uni0E48.sd
Substitution2: "ThaiT.0E4D subtable" uni0E4D
EndChar

StartChar: uni0E49
Encoding: 469 3657 199
GlifName: uni0E_49
Width: 0
VWidth: 0
GlyphClass: 4
Flags: MW
AnchorPoint: "ThaiExtendedAbove.mkmk" 0 0 mark 0
AnchorPoint: "ThaiExtendedAbove.mkmk" 0 240 basemark 0
LayerCount: 2
Fore
SplineSet
-273 1092 m 0
 -291 1092 -304 1080 -304 1059 c 0
 -304 1038 -291 1026 -273 1026 c 0
 -255 1026 -242 1038 -242 1059 c 0
 -242 1080 -255 1092 -273 1092 c 0
-235 958 m 2
 -231 977 -231 1003 -231 1021 c 1
 -241 1010 -256 1004 -273 1004 c 0
 -306 1004 -330 1027 -330 1059 c 0
 -330 1091 -306 1114 -273 1114 c 0
 -229 1114 -205 1084 -201 1034 c 0
 -200 1024 -200 1014 -200 1006 c 0
 -200 995 -200 985 -201 977 c 1
 -136 984 -101 1028 -97 1111 c 1
 -50 1105 l 1
 -54 1014 -108 950 -216 950 c 2
 -235 950 l 1
 -235 958 l 2
EndSplineSet
PickledDataWithLists: "(dp0
Vcom.fontlab.hintData
p1
(dp2
Vvhints
p3
(lp4
(dp5
Vwidth
p6
L10L
sVposition
p7
L-309L
sa(dp8
g6
L10L
sg7
L-263L
sa(dp9
g6
L10L
sg7
L-247L
sa(dp10
g6
L10L
sg7
L-188L
sa(dp11
g6
L10L
sg7
L7L
sasVhhints
p12
(lp13
(dp14
g6
L10L
sg7
L990L
sa(dp15
g6
L10L
sg7
L1197L
sass."
Substitution2: "Thai.sl subtable" uni0E49.sl
Substitution2: "Thai.sdl subtable" uni0E49.sdl
Substitution2: "Thai.sd subtable" uni0E49.sd
Substitution2: "ThaiT.0E4D subtable" uni0E4D
EndChar

StartChar: uni0E4A
Encoding: 470 3658 200
GlifName: uni0E_4A_
Width: 0
VWidth: 0
GlyphClass: 4
Flags: MW
AnchorPoint: "ThaiExtendedAbove.mkmk" 0 0 mark 0
AnchorPoint: "ThaiExtendedAbove.mkmk" 0 240 basemark 0
LayerCount: 2
Fore
SplineSet
-224 1030 m 0
 -242 1030 -255 1018 -255 997 c 0
 -255 976 -242 964 -224 964 c 0
 -206 964 -193 976 -193 997 c 0
 -193 1018 -206 1030 -224 1030 c 0
-224 1052 m 0
 -191 1052 -167 1029 -167 997 c 0
 -167 965 -191 942 -224 942 c 0
 -275 942 -299 980 -299 1028 c 0
 -299 1085 -258 1114 -229 1117 c 1
 -180 1085 l 1
 -132 1117 l 1
 -103 1114 -67 1085 -67 1028 c 0
 -67 1009 -73 993 -82 980 c 1
 -50 1001 -33 1043 -28 1095 c 1
 10 1089 l 1
 2 1010 -48 948 -138 945 c 1
 -143 967 l 1
 -117 975 -100 994 -100 1028 c 0
 -100 1061 -114 1079 -133 1087 c 1
 -177 1059 l 1
 -180 1059 l 1
 -183 1059 l 1
 -229 1088 l 1
 -247 1081 -261 1066 -264 1038 c 1
 -254 1047 -240 1052 -224 1052 c 0
EndSplineSet
PickledDataWithLists: "(dp0
Vcom.fontlab.hintData
p1
(dp2
Vvhints
p3
(lp4
(dp5
Vwidth
p6
L10L
sVposition
p7
L-365L
sa(dp8
g6
L10L
sg7
L-305L
sa(dp9
g6
L10L
sg7
L-243L
sa(dp10
g6
L10L
sg7
L-152L
sa(dp11
g6
L10L
sg7
L-130L
sa(dp12
g6
L10L
sg7
L-79L
sa(dp13
g6
L10L
sg7
L24L
sasVhhints
p14
(lp15
(dp16
g6
L10L
sg7
L980L
sa(dp17
g6
L10L
sg7
L1097L
sa(dp18
g6
L10L
sg7
L1185L
sa(dp19
g6
L10L
sg7
L1195L
sass."
Substitution2: "Thai.sl subtable" uni0E4A.sl
Substitution2: "Thai.sdl subtable" uni0E4A.sdl
Substitution2: "Thai.sd subtable" uni0E4A.sd
Substitution2: "ThaiT.0E4D subtable" uni0E4D
EndChar

StartChar: uni0E4B
Encoding: 471 3659 201
GlifName: uni0E_4B_
Width: 0
VWidth: 0
GlyphClass: 4
Flags: MW
AnchorPoint: "ThaiExtendedAbove.mkmk" 0 0 mark 0
AnchorPoint: "ThaiExtendedAbove.mkmk" 0 240 basemark 0
LayerCount: 2
Fore
SplineSet
-250 1015 m 1
 -250 1046 l 1
 -158 1046 l 1
 -158 1120 l 1
 -113 1120 l 1
 -113 1046 l 1
 -20 1046 l 1
 -20 1015 l 1
 -113 1015 l 1
 -113 936 l 1
 -158 944 l 1
 -158 1015 l 1
 -250 1015 l 1
EndSplineSet
PickledDataWithLists: "(dp0
Vcom.fontlab.hintData
p1
(dp2
Vvhints
p3
(lp4
(dp5
Vwidth
p6
L10L
sVposition
p7
L-193L
sa(dp8
g6
L10L
sg7
L-131L
sa(dp9
g6
L10L
sg7
L-23L
sasVhhints
p10
(lp11
(dp12
g6
L10L
sg7
L985L
sa(dp13
g6
L10L
sg7
L1073L
sa(dp14
g6
L10L
sg7
L1078L
sa(dp15
g6
L10L
sg7
L1117L
sa(dp16
g6
L10L
sg7
L1122L
sa(dp17
g6
L10L
sg7
L1207L
sass."
Substitution2: "Thai.sl subtable" uni0E4B.sl
Substitution2: "Thai.sdl subtable" uni0E4B.sdl
Substitution2: "Thai.sd subtable" uni0E4B.sd
Substitution2: "ThaiT.0E4D subtable" uni0E4D
EndChar

StartChar: uni0E4C
Encoding: 472 3660 202
GlifName: uni0E_4C_
Width: 0
VWidth: 0
GlyphClass: 4
Flags: MW
AnchorPoint: "ThaiExtendedAbove.mkmk" 0 0 mark 0
AnchorPoint: "ThaiExtendedAbove.mkmk" 0 240 basemark 0
LayerCount: 2
Fore
SplineSet
-180 1072 m 0
 -207 1072 -225 1053 -225 1027 c 0
 -225 1001 -207 982 -180 982 c 0
 -153 982 -135 1001 -135 1027 c 0
 -135 1053 -153 1072 -180 1072 c 0
-260 1027 m 0
 -260 1071 -234 1106 -177 1106 c 2
 -150 1106 l 2
 -92 1106 -69 1125 -69 1170 c 1
 -20 1165 l 1
 -20 1117 -51 1084 -119 1078 c 1
 -107 1065 -100 1047 -100 1027 c 0
 -100 983 -133 952 -180 952 c 0
 -227 952 -260 983 -260 1027 c 0
EndSplineSet
PickledDataWithLists: "(dp0
Vcom.fontlab.hintData
p1
(dp2
Vvhints
p3
(lp4
(dp5
Vwidth
p6
L10L
sVposition
p7
L-277L
sa(dp8
g6
L10L
sg7
L-200L
sa(dp9
g6
L10L
sg7
L-185L
sa(dp10
g6
L10L
sg7
L-10L
sasVhhints
p11
(lp12
(dp13
g6
L10L
sg7
L978L
sa(dp14
g6
L10L
sg7
L1212L
sass."
Substitution2: "Thai.sl subtable" uni0E4C.sl
Substitution2: "Thai.sdl subtable" uni0E4C.sdl
Substitution2: "Thai.sd subtable" uni0E4C.sd
Substitution2: "ThaiT.0E4D subtable" uni0E4D
EndChar

StartChar: uni0E4D
Encoding: 473 3661 203
GlifName: uni0E_4D_
Width: 0
VWidth: 0
GlyphClass: 4
Flags: MW
AnchorPoint: "ThaiExtendedAbove.mkmk" 0 0 basemark 0
AnchorPoint: "ThaiAbove.mark" 0 0 mark 0
LayerCount: 2
Fore
SplineSet
-180 873 m 0
 -122 873 -81 834 -81 780 c 0
 -81 726 -122 687 -180 687 c 0
 -238 687 -279 726 -279 780 c 0
 -279 834 -238 873 -180 873 c 0
-180 839 m 0
 -215 839 -239 814 -239 780 c 0
 -239 746 -215 721 -180 721 c 0
 -145 721 -121 746 -121 780 c 0
 -121 814 -145 839 -180 839 c 0
EndSplineSet
PickledDataWithLists: "(dp0
Vcom.fontlab.hintData
p1
(dp2
Vvhints
p3
(lp4
(dp5
Vwidth
p6
L10L
sVposition
p7
L-282L
sa(dp8
g6
L10L
sg7
L-218L
sa(dp9
g6
L10L
sg7
L-122L
sa(dp10
g6
L10L
sg7
L-58L
sasVhhints
p11
(lp12
(dp13
g6
L10L
sg7
L703L
sa(dp14
g6
L10L
sg7
L747L
sa(dp15
g6
L10L
sg7
L863L
sa(dp16
g6
L10L
sg7
L907L
sass."
Substitution2: "Thai.sul subtable" uni0E4D.sul
Substitution2: "Thai.su subtable" uni0E4D.su
Substitution2: "Thai.sl subtable" uni0E4D.sl
Substitution2: "Thai0E4D.0E4B subtable" uni0E4B
Substitution2: "Thai0E4D.0E4A subtable" uni0E4A
Substitution2: "Thai0E4D.0E49 subtable" uni0E49
Substitution2: "Thai0E4D.0E48 subtable" uni0E48
EndChar

StartChar: uni0E4E
Encoding: 474 3662 204
GlifName: uni0E_4E_
Width: 0
VWidth: 0
GlyphClass: 4
Flags: MW
AnchorPoint: "ThaiExtendedAbove.mkmk" 0 -240 mark 0
AnchorPoint: "ThaiAbove.mark" 0 0 mark 0
LayerCount: 2
Fore
SplineSet
-350 754 m 0
 -350 791 -320 826 -271 826 c 0
 -266 826 -261 825 -257 824 c 1
 -258 828 -259 833 -259 837 c 0
 -259 874 -232 910 -183 910 c 0
 -160 910 -137 899 -121 883 c 2
 -80 839 l 1
 -105 817 l 1
 -152 864 l 2
 -164 876 -174 879 -183 879 c 0
 -202 879 -224 864 -224 837 c 0
 -224 824 -219 812 -209 801 c 2
 -167 757 l 1
 -193 735 l 1
 -241 783 l 2
 -253 795 -262 797 -271 797 c 0
 -290 797 -311 781 -311 754 c 0
 -311 741 -306 728 -294 716 c 2
 -252 673 l 1
 -278 650 l 1
 -325 697 l 2
 -341 713 -350 735 -350 754 c 0
EndSplineSet
PickledDataWithLists: "(dp0
Vcom.fontlab.hintData
p1
(dp2
Vvhints
p3
(lp4
(dp5
Vwidth
p6
L10L
sVposition
p7
L-400L
sa(dp8
g6
L10L
sg7
L-363L
sa(dp9
g6
L10L
sg7
L-335L
sa(dp10
g6
L10L
sg7
L-298L
sa(dp11
g6
L10L
sg7
L-211L
sa(dp12
g6
L10L
sg7
L-192L
sa(dp13
g6
L10L
sg7
L-141L
sasVhhints
p14
(lp15
(dp16
g6
L10L
sg7
L661L
sa(dp17
g6
L10L
sg7
L709L
sa(dp18
g6
L10L
sg7
L805L
sa(dp19
g6
L10L
sg7
L853L
sa(dp20
g6
L10L
sg7
L930L
sa(dp21
g6
L10L
sg7
L943L
sa(dp22
g6
L10L
sg7
L989L
sass."
Substitution2: "Thai.sl subtable" uni0E4E.sl
EndChar

StartChar: uni0E4F
Encoding: 475 3663 205
GlifName: uni0E_4F_
Width: 660
VWidth: 0
GlyphClass: 2
Flags: MW
LayerCount: 2
Fore
SplineSet
330 359 m 0
 295 359 271 334 271 300 c 0
 271 266 295 241 330 241 c 0
 365 241 389 266 389 300 c 0
 389 334 365 359 330 359 c 0
330 393 m 0
 388 393 429 354 429 300 c 0
 429 246 388 207 330 207 c 0
 272 207 231 246 231 300 c 0
 231 354 272 393 330 393 c 0
330 64 m 0
 179 64 85 167 85 300 c 0
 85 433 179 536 330 536 c 0
 481 536 575 433 575 300 c 0
 575 167 481 64 330 64 c 0
330 101 m 0
 450 101 530 180 530 300 c 0
 530 420 450 499 330 499 c 0
 210 499 130 420 130 300 c 0
 130 180 210 101 330 101 c 0
EndSplineSet
PickledDataWithLists: "(dp0
Vcom.fontlab.hintData
p1
(dp2
Vvhints
p3
(lp4
(dp5
Vwidth
p6
L10L
sVposition
p7
L80L
sa(dp8
g6
L10L
sg7
L150L
sa(dp9
g6
L10L
sg7
L267L
sa(dp10
g6
L10L
sg7
L472L
sa(dp11
g6
L10L
sg7
L477L
sa(dp12
g6
L10L
sg7
L488L
sa(dp13
g6
L10L
sg7
L590L
sa(dp14
g6
L10L
sg7
L660L
sasVhhints
p15
(lp16
(dp17
g6
L10L
sg7
L1L
sa(dp18
g6
L10L
sg7
L49L
sa(dp19
g6
L10L
sg7
L199L
sa(dp20
g6
L10L
sg7
L391L
sa(dp21
g6
L10L
sg7
L523L
sa(dp22
g6
L10L
sg7
L531L
sa(dp23
g6
L10L
sg7
L543L
sa(dp24
g6
L10L
sg7
L579L
sass."
EndChar

StartChar: uni0E4F.extra
Encoding: 807 63616 206
GlifName: uni0E_4F_.extra
Width: 660
VWidth: 0
GlyphClass: 3
Flags: MW
LayerCount: 2
Fore
SplineSet
390 880 m 1
 443 880 l 1
 435 630 l 1
 399 630 l 1
 390 880 l 1
217 880 m 1
 270 880 l 1
 261 630 l 1
 225 630 l 1
 217 880 l 1
EndSplineSet
Refer: 205 3663 S 1 0 0 1 0 0 2
PickledDataWithLists: "(dp0
Vcom.fontlab.hintData
p1
(dp2
Vvhints
p3
(lp4
(dp5
Vwidth
p6
L10L
sVposition
p7
L80L
sa(dp8
g6
L10L
sg7
L150L
sa(dp9
g6
L10L
sg7
L227L
sa(dp10
g6
L10L
sg7
L267L
sa(dp11
g6
L10L
sg7
L316L
sa(dp12
g6
L10L
sg7
L424L
sa(dp13
g6
L10L
sg7
L433L
sa(dp14
g6
L10L
sg7
L472L
sa(dp15
g6
L10L
sg7
L477L
sa(dp16
g6
L10L
sg7
L488L
sa(dp17
g6
L10L
sg7
L513L
sa(dp18
g6
L10L
sg7
L590L
sa(dp19
g6
L10L
sg7
L660L
sasVhhints
p20
(lp21
(dp22
g6
L10L
sg7
L1L
sa(dp23
g6
L10L
sg7
L49L
sa(dp24
g6
L10L
sg7
L199L
sa(dp25
g6
L10L
sg7
L391L
sa(dp26
g6
L10L
sg7
L523L
sa(dp27
g6
L10L
sg7
L531L
sa(dp28
g6
L10L
sg7
L543L
sa(dp29
g6
L10L
sg7
L579L
sa(dp30
g6
L10L
sg7
L668L
sa(dp31
g6
L10L
sg7
L673L
sa(dp32
g6
L10L
sg7
L947L
sass."
Ligature2: "Thai.extra subtable" uni0E4F uni200D uni0E48 uni200D uni0E48
Ligature2: "Thai.extra subtable" uni0E4F uni0E48 uni0E48
Ligature2: "Thai.liga subtable" uni0E4F uni200D period uni200D period
Ligature2: "Thai.liga subtable" uni0E4F period period
Colour: ff00ff
EndChar

StartChar: uni0E50
Encoding: 476 3664 207
GlifName: uni0E_50
Width: 720
VWidth: 0
GlyphClass: 2
Flags: MW
LayerCount: 2
Fore
SplineSet
80 286 m 2
 80 314 l 2
 80 463 153 617 360 617 c 0
 567 617 640 463 640 314 c 2
 640 286 l 2
 640 137 567 -17 360 -17 c 0
 153 -17 80 137 80 286 c 2
360 32 m 0
 512 32 577 142 577 286 c 2
 577 314 l 2
 577 458 512 568 360 568 c 0
 208 568 143 458 143 314 c 2
 143 286 l 2
 143 142 208 32 360 32 c 0
EndSplineSet
PickledDataWithLists: "(dp0
Vcom.fontlab.hintData
p1
(dp2
Vvhints
p3
(lp4
(dp5
Vwidth
p6
L10L
sVposition
p7
L61L
sa(dp8
g6
L10L
sg7
L149L
sa(dp9
g6
L10L
sg7
L561L
sa(dp10
g6
L10L
sg7
L649L
sasVhhints
p11
(lp12
(dp13
g6
L10L
sg7
L-26L
sa(dp14
g6
L10L
sg7
L36L
sa(dp15
g6
L10L
sg7
L533L
sa(dp16
g6
L10L
sg7
L544L
sa(dp17
g6
L10L
sg7
L571L
sa(dp18
g6
L10L
sg7
L606L
sass."
EndChar

StartChar: uni0E51
Encoding: 477 3665 208
GlifName: uni0E_51
Width: 720
VWidth: 0
GlyphClass: 2
Flags: MW
LayerCount: 2
Fore
SplineSet
80 337 m 0
 80 471 162 617 360 617 c 0
 567 617 640 462 640 319 c 2
 640 297 l 2
 640 142 506 -19 305 -33 c 1
 299 14 l 1
 458 25 578 160 578 297 c 2
 578 319 l 2
 578 456 513 569 360 569 c 0
 214 569 140 463 140 337 c 0
 140 258 193 194 277 194 c 0
 328 194 368 214 393 242 c 1
 383 239 372 237 360 237 c 0
 302 237 261 276 261 330 c 0
 261 384 302 423 360 423 c 0
 418 423 459 384 459 330 c 0
 459 243 401 154 270 154 c 0
 142 154 80 254 80 337 c 0
360 389 m 0
 325 389 301 364 301 330 c 0
 301 296 325 271 360 271 c 0
 395 271 419 296 419 330 c 0
 419 364 395 389 360 389 c 0
EndSplineSet
PickledDataWithLists: "(dp0
Vcom.fontlab.hintData
p1
(dp2
Vvhints
p3
(lp4
(dp5
Vwidth
p6
L10L
sVposition
p7
L61L
sa(dp8
g6
L10L
sg7
L149L
sa(dp9
g6
L10L
sg7
L290L
sa(dp10
g6
L10L
sg7
L311L
sa(dp11
g6
L10L
sg7
L399L
sa(dp12
g6
L10L
sg7
L561L
sa(dp13
g6
L10L
sg7
L649L
sasVhhints
p14
(lp15
(dp16
g6
L10L
sg7
L-36L
sa(dp17
g6
L10L
sg7
L144L
sa(dp18
g6
L10L
sg7
L206L
sa(dp19
g6
L10L
sg7
L320L
sa(dp20
g6
L10L
sg7
L544L
sa(dp21
g6
L10L
sg7
L606L
sass."
EndChar

StartChar: uni0E52
Encoding: 478 3666 209
GlifName: uni0E_52
Width: 810
VWidth: 0
GlyphClass: 2
Flags: MW
LayerCount: 2
Fore
SplineSet
95 174 m 2
 95 750 l 1
 157 750 l 1
 157 174 l 2
 157 100 213 47 277 47 c 2
 545 47 l 2
 609 47 665 100 665 174 c 2
 665 423 l 2
 665 485 642 534 602 557 c 1
 516 480 l 1
 510 480 l 1
 504 480 l 1
 416 560 l 1
 373 539 348 487 348 423 c 0
 348 409 349 396 351 382 c 1
 367 411 399 430 439 430 c 0
 497 430 538 391 538 337 c 0
 538 283 497 244 439 244 c 0
 342 244 295 327 295 423 c 0
 295 530 355 600 420 611 c 1
 510 526 l 1
 600 611 l 1
 665 600 725 530 725 423 c 2
 725 174 l 2
 725 86 659 0 543 0 c 2
 277 0 l 2
 161 0 95 86 95 174 c 2
439 396 m 0
 404 396 380 371 380 337 c 0
 380 303 404 278 439 278 c 0
 474 278 498 303 498 337 c 0
 498 371 474 396 439 396 c 0
EndSplineSet
PickledDataWithLists: "(dp0
Vcom.fontlab.hintData
p1
(dp2
Vvhints
p3
(lp4
(dp5
Vwidth
p6
L10L
sVposition
p7
L89L
sa(dp8
g6
L10L
sg7
L101L
sa(dp9
g6
L10L
sg7
L183L
sa(dp10
g6
L10L
sg7
L249L
sa(dp11
g6
L10L
sg7
L331L
sa(dp12
g6
L10L
sg7
L463L
sa(dp13
g6
L10L
sg7
L528L
sa(dp14
g6
L10L
sg7
L634L
sa(dp15
g6
L10L
sg7
L716L
sa(dp16
g6
L10L
sg7
L721L
sasVhhints
p17
(lp18
(dp19
g6
L10L
sg7
L6L
sa(dp20
g6
L10L
sg7
L14L
sa(dp21
g6
L10L
sg7
L65L
sa(dp22
g6
L10L
sg7
L72L
sa(dp23
g6
L10L
sg7
L216L
sa(dp24
g6
L10L
sg7
L274L
sa(dp25
g6
L10L
sg7
L390L
sa(dp26
g6
L10L
sg7
L536L
sa(dp27
g6
L10L
sg7
L583L
sa(dp28
g6
L10L
sg7
L594L
sa(dp29
g6
L10L
sg7
L794L
sass."
EndChar

StartChar: uni0E53
Encoding: 479 3667 210
GlifName: uni0E_53
Width: 720
VWidth: 0
GlyphClass: 2
Flags: MW
LayerCount: 2
Fore
SplineSet
234 145 m 0
 199 145 175 120 175 86 c 0
 175 52 199 27 234 27 c 0
 269 27 293 52 293 86 c 0
 293 120 269 145 234 145 c 0
234 179 m 0
 292 179 333 140 333 86 c 0
 333 32 292 -7 234 -7 c 0
 175 -7 134 24 115 60 c 0
 97 94 90 147 90 193 c 2
 90 433 l 2
 90 525 125 617 232 617 c 0
 294 617 338 577 360 521 c 1
 382 577 426 617 488 617 c 0
 595 617 630 525 630 433 c 2
 630 177 l 2
 630 85 611 33 557 -7 c 1
 512 27 l 1
 549 55 568 89 568 177 c 2
 568 433 l 2
 568 522 539 570 485 570 c 0
 432 570 389 512 389 433 c 2
 389 225 l 1
 331 225 l 1
 331 433 l 2
 331 512 288 570 235 570 c 0
 181 570 152 522 152 433 c 2
 152 189 l 2
 152 171 152 154 152 140 c 1
 169 164 198 179 234 179 c 0
EndSplineSet
PickledDataWithLists: "(dp0
Vcom.fontlab.hintData
p1
(dp2
Vvhints
p3
(lp4
(dp5
Vwidth
p6
L10L
sVposition
p7
L61L
sa(dp8
g6
L10L
sg7
L149L
sa(dp9
g6
L10L
sg7
L378L
sa(dp10
g6
L10L
sg7
L500L
sa(dp11
g6
L10L
sg7
L561L
sa(dp12
g6
L10L
sg7
L649L
sasVhhints
p13
(lp14
(dp15
g6
L10L
sg7
L-21L
sa(dp16
g6
L10L
sg7
L-15L
sa(dp17
g6
L10L
sg7
L41L
sa(dp18
g6
L10L
sg7
L77L
sa(dp19
g6
L10L
sg7
L237L
sa(dp20
g6
L10L
sg7
L606L
sass."
EndChar

StartChar: uni0E54
Encoding: 480 3668 211
GlifName: uni0E_54
Width: 720
VWidth: 0
GlyphClass: 2
Flags: MW
LayerCount: 2
Fore
SplineSet
507 354 m 0
 472 354 448 329 448 295 c 0
 448 261 472 236 507 236 c 0
 542 236 566 261 566 295 c 0
 566 329 542 354 507 354 c 0
80 293 m 2
 80 309 l 2
 80 462 175 593 356 603 c 0
 396 605 451 610 473 613 c 0
 563 624 617 630 627 753 c 1
 690 747 l 1
 679 610 601 580 483 566 c 0
 457 563 403 558 361 556 c 0
 226 548 143 445 143 309 c 2
 143 293 l 2
 143 161 216 47 359 47 c 2
 464 47 l 1
 411 82 374 143 374 222 c 0
 374 323 417 388 507 388 c 0
 565 388 606 349 606 295 c 0
 606 241 565 202 507 202 c 0
 470 202 440 217 423 243 c 1
 422 235 422 227 422 218 c 0
 422 109 510 47 586 47 c 2
 640 47 l 1
 640 0 l 1
 359 0 l 2
 162 0 80 149 80 293 c 2
EndSplineSet
PickledDataWithLists: "(dp0
Vcom.fontlab.hintData
p1
(dp2
Vvhints
p3
(lp4
(dp5
Vwidth
p6
L10L
sVposition
p7
L61L
sa(dp8
g6
L10L
sg7
L149L
sa(dp9
g6
L10L
sg7
L400L
sa(dp10
g6
L10L
sg7
L488L
sa(dp11
g6
L10L
sg7
L527L
sa(dp12
g6
L10L
sg7
L591L
sa(dp13
g6
L10L
sg7
L662L
sa(dp14
g6
L10L
sg7
L679L
sasVhhints
p15
(lp16
(dp17
g6
L10L
sg7
L0L
sa(dp18
g6
L10L
sg7
L63L
sa(dp19
g6
L10L
sg7
L351L
sa(dp20
g6
L10L
sg7
L796L
sass."
EndChar

StartChar: uni0E55
Encoding: 481 3669 212
GlifName: uni0E_55
Width: 720
VWidth: 0
GlyphClass: 2
Flags: MW
LayerCount: 2
Fore
SplineSet
398 725 m 0
 363 725 339 700 339 666 c 0
 339 632 363 607 398 607 c 0
 433 607 457 632 457 666 c 0
 457 700 433 725 398 725 c 0
398 759 m 0
 456 759 497 720 497 666 c 0
 497 641 488 619 473 603 c 1
 483 603 493 603 502 603 c 0
 582 606 621 650 627 753 c 1
 690 747 l 1
 684 630 618 566 512 561 c 0
 497 561 480 560 464 560 c 0
 436 560 410 561 402 563 c 0
 221 552 143 455 143 309 c 2
 143 293 l 2
 143 161 216 47 359 47 c 2
 464 47 l 1
 411 82 374 143 374 222 c 0
 374 323 417 388 507 388 c 0
 565 388 606 349 606 295 c 0
 606 241 565 202 507 202 c 0
 470 202 440 217 423 243 c 1
 422 235 422 227 422 218 c 0
 422 109 510 47 586 47 c 2
 640 47 l 1
 640 0 l 1
 359 0 l 2
 162 0 80 149 80 293 c 2
 80 309 l 2
 80 454 157 571 330 597 c 1
 311 614 299 638 299 666 c 0
 299 720 340 759 398 759 c 0
507 354 m 0
 472 354 448 329 448 295 c 0
 448 261 472 236 507 236 c 0
 542 236 566 261 566 295 c 0
 566 329 542 354 507 354 c 0
EndSplineSet
PickledDataWithLists: "(dp0
Vcom.fontlab.hintData
p1
(dp2
Vvhints
p3
(lp4
(dp5
Vwidth
p6
L10L
sVposition
p7
L61L
sa(dp8
g6
L10L
sg7
L149L
sa(dp9
g6
L10L
sg7
L224L
sa(dp10
g6
L10L
sg7
L301L
sa(dp11
g6
L10L
sg7
L394L
sa(dp12
g6
L10L
sg7
L400L
sa(dp13
g6
L10L
sg7
L471L
sa(dp14
g6
L10L
sg7
L488L
sa(dp15
g6
L10L
sg7
L527L
sa(dp16
g6
L10L
sg7
L594L
sa(dp17
g6
L10L
sg7
L662L
sa(dp18
g6
L10L
sg7
L677L
sasVhhints
p19
(lp20
(dp21
g6
L10L
sg7
L0L
sa(dp22
g6
L10L
sg7
L62L
sa(dp23
g6
L10L
sg7
L351L
sa(dp24
g6
L10L
sg7
L506L
sa(dp25
g6
L10L
sg7
L564L
sa(dp26
g6
L10L
sg7
L701L
sa(dp27
g6
L10L
sg7
L754L
sa(dp28
g6
L10L
sg7
L794L
sass."
EndChar

StartChar: uni0E56
Encoding: 482 3670 213
GlifName: uni0E_56
Width: 720
VWidth: 0
GlyphClass: 2
Flags: MW
LayerCount: 2
Fore
SplineSet
219 219 m 0
 184 219 160 194 160 160 c 0
 160 126 184 101 219 101 c 0
 254 101 278 126 278 160 c 0
 278 194 254 219 219 219 c 0
219 253 m 0
 277 253 318 214 318 160 c 0
 318 108 281 70 227 67 c 1
 256 47 301 30 373 30 c 0
 512 30 577 142 577 286 c 2
 577 314 l 2
 577 458 514 567 377 567 c 0
 265 567 197 489 188 417 c 1
 137 421 l 1
 80 747 l 1
 145 754 l 1
 177 506 l 1
 209 567 275 617 378 617 c 0
 568 617 640 463 640 314 c 2
 640 286 l 2
 640 137 569 -17 377 -17 c 0
 177 -17 120 94 120 160 c 0
 120 214 161 253 219 253 c 0
EndSplineSet
PickledDataWithLists: "(dp0
Vcom.fontlab.hintData
p1
(dp2
Vvhints
p3
(lp4
(dp5
Vwidth
p6
L10L
sVposition
p7
L31L
sa(dp8
g6
L10L
sg7
L123L
sa(dp9
g6
L10L
sg7
L211L
sa(dp10
g6
L10L
sg7
L298L
sa(dp11
g6
L10L
sg7
L561L
sa(dp12
g6
L10L
sg7
L649L
sasVhhints
p13
(lp14
(dp15
g6
L10L
sg7
L-16L
sa(dp16
g6
L10L
sg7
L46L
sa(dp17
g6
L10L
sg7
L316L
sa(dp18
g6
L10L
sg7
L481L
sa(dp19
g6
L10L
sg7
L544L
sa(dp20
g6
L10L
sg7
L606L
sa(dp21
g6
L10L
sg7
L795L
sass."
EndChar

StartChar: uni0E57
Encoding: 483 3671 214
GlifName: uni0E_57
Width: 905
VWidth: 0
GlyphClass: 2
Flags: MW
LayerCount: 2
Fore
SplineSet
234 145 m 0
 199 145 175 120 175 86 c 0
 175 52 199 27 234 27 c 0
 269 27 293 52 293 86 c 0
 293 120 269 145 234 145 c 0
234 179 m 0
 292 179 333 140 333 86 c 0
 333 32 292 -7 234 -7 c 0
 175 -7 134 24 115 60 c 0
 97 94 90 147 90 193 c 2
 90 433 l 2
 90 525 125 617 232 617 c 0
 294 617 338 577 360 521 c 1
 382 577 426 617 488 617 c 0
 595 617 627 525 627 433 c 2
 627 177 l 2
 627 113 616 69 592 34 c 1
 680 48 752 99 752 185 c 2
 752 750 l 1
 810 750 l 1
 810 185 l 2
 810 70 710 -7 551 -7 c 1
 512 27 l 1
 549 55 568 89 568 177 c 2
 568 433 l 2
 568 522 539 570 485 570 c 0
 432 570 389 512 389 433 c 2
 389 225 l 1
 331 225 l 1
 331 433 l 2
 331 512 288 570 235 570 c 0
 181 570 152 522 152 433 c 2
 152 189 l 2
 152 171 152 154 152 140 c 1
 169 164 198 179 234 179 c 0
EndSplineSet
PickledDataWithLists: "(dp0
Vcom.fontlab.hintData
p1
(dp2
Vvhints
p3
(lp4
(dp5
Vwidth
p6
L10L
sVposition
p7
L61L
sa(dp8
g6
L10L
sg7
L149L
sa(dp9
g6
L10L
sg7
L378L
sa(dp10
g6
L10L
sg7
L505L
sa(dp11
g6
L10L
sg7
L561L
sa(dp12
g6
L10L
sg7
L639L
sa(dp13
g6
L10L
sg7
L716L
sa(dp14
g6
L10L
sg7
L799L
sasVhhints
p15
(lp16
(dp17
g6
L10L
sg7
L-21L
sa(dp18
g6
L10L
sg7
L-15L
sa(dp19
g6
L10L
sg7
L41L
sa(dp20
g6
L10L
sg7
L77L
sa(dp21
g6
L10L
sg7
L237L
sa(dp22
g6
L10L
sg7
L606L
sa(dp23
g6
L10L
sg7
L625L
sass."
EndChar

StartChar: uni0E58
Encoding: 484 3672 215
GlifName: uni0E_58
Width: 750
VWidth: 0
GlyphClass: 2
Flags: MW
LayerCount: 2
Fore
SplineSet
541 354 m 0
 506 354 482 329 482 295 c 0
 482 261 506 236 541 236 c 0
 576 236 600 261 600 295 c 0
 600 329 576 354 541 354 c 0
80 293 m 2
 80 310 l 2
 80 454 175 580 356 590 c 0
 396 592 466 597 488 600 c 0
 574 611 617 631 627 754 c 1
 690 747 l 1
 679 605 610 567 498 553 c 0
 472 550 403 545 361 543 c 0
 226 535 143 443 143 310 c 2
 143 293 l 2
 143 191 186 131 197 71 c 1
 334 250 l 1
 385 250 l 1
 385 123 414 39 500 39 c 0
 577 39 610 115 610 213 c 0
 610 217 610 222 610 226 c 1
 593 211 569 202 541 202 c 0
 483 202 442 241 442 295 c 0
 442 349 483 388 541 388 c 0
 642 388 661 291 661 213 c 0
 661 110 623 -7 500 -7 c 0
 389 -7 348 88 340 190 c 1
 197 0 l 1
 145 0 l 1
 145 29 l 2
 145 102 80 173 80 293 c 2
EndSplineSet
PickledDataWithLists: "(dp0
Vcom.fontlab.hintData
p1
(dp2
Vvhints
p3
(lp4
(dp5
Vwidth
p6
L10L
sVposition
p7
L61L
sa(dp8
g6
L10L
sg7
L149L
sa(dp9
g6
L10L
sg7
L369L
sa(dp10
g6
L10L
sg7
L435L
sa(dp11
g6
L10L
sg7
L556L
sa(dp12
g6
L10L
sg7
L581L
sa(dp13
g6
L10L
sg7
L591L
sa(dp14
g6
L10L
sg7
L669L
sa(dp15
g6
L10L
sg7
L679L
sasVhhints
p16
(lp17
(dp18
g6
L10L
sg7
L4L
sa(dp19
g6
L10L
sg7
L66L
sa(dp20
g6
L10L
sg7
L246L
sa(dp21
g6
L10L
sg7
L315L
sa(dp22
g6
L10L
sg7
L796L
sass."
EndChar

StartChar: uni0E59
Encoding: 485 3673 216
GlifName: uni0E_59
Width: 720
VWidth: 0
GlyphClass: 2
Flags: MW
LayerCount: 2
Fore
SplineSet
536 199 m 0
 501 199 477 174 477 140 c 0
 477 106 501 81 536 81 c 0
 571 81 595 106 595 140 c 0
 595 174 571 199 536 199 c 0
191 440 m 0
 191 519 254 568 344 577 c 0
 394 582 449 584 470 587 c 0
 558 598 607 614 617 753 c 1
 680 746 l 1
 669 592 592 556 480 542 c 0
 452 539 395 537 348 532 c 0
 289 525 249 495 249 438 c 0
 249 396 272 376 290 367 c 1
 310 369 331 370 354 370 c 2
 564 370 l 1
 564 322 l 1
 354 322 l 2
 185 322 133 253 133 174 c 0
 133 98 185 29 354 29 c 0
 424 29 470 37 503 51 c 1
 463 63 437 97 437 140 c 0
 437 194 478 233 536 233 c 0
 594 233 635 194 635 140 c 0
 635 58 560 -17 354 -17 c 0
 147 -17 70 74 70 174 c 0
 70 253 115 326 231 356 c 1
 209 374 191 401 191 440 c 0
EndSplineSet
PickledDataWithLists: "(dp0
Vcom.fontlab.hintData
p1
(dp2
Vvhints
p3
(lp4
(dp5
Vwidth
p6
L10L
sVposition
p7
L61L
sa(dp8
g6
L10L
sg7
L149L
sa(dp9
g6
L10L
sg7
L205L
sa(dp10
g6
L10L
sg7
L293L
sa(dp11
g6
L10L
sg7
L531L
sa(dp12
g6
L10L
sg7
L619L
sa(dp13
g6
L10L
sg7
L679L
sasVhhints
p14
(lp15
(dp16
g6
L10L
sg7
L-26L
sa(dp17
g6
L10L
sg7
L36L
sa(dp18
g6
L10L
sg7
L155L
sa(dp19
g6
L10L
sg7
L314L
sa(dp20
g6
L10L
sg7
L370L
sa(dp21
g6
L10L
sg7
L796L
sass."
EndChar

StartChar: uni0E5A
Encoding: 486 3674 217
GlifName: uni0E_5A_
Width: 675
VWidth: 0
GlyphClass: 2
Flags: MW
LayerCount: 2
Fore
SplineSet
575 0 m 1
 519 0 l 1
 519 600 l 1
 575 600 l 1
 575 0 l 1
154 573 m 0
 119 573 95 548 95 514 c 0
 95 480 119 455 154 455 c 0
 189 455 213 480 213 514 c 0
 213 548 189 573 154 573 c 0
154 607 m 0
 212 607 253 568 253 514 c 0
 253 486 241 462 222 445 c 1
 304 461 344 525 352 596 c 1
 376 600 l 1
 396 573 398 538 398 483 c 2
 398 138 l 2
 398 26 284 -2 166 -17 c 1
 157 29 l 1
 269 44 342 60 342 138 c 2
 342 436 l 2
 342 459 346 473 350 488 c 1
 318 443 263 410 184 410 c 0
 94 410 55 456 55 514 c 0
 55 568 96 607 154 607 c 0
EndSplineSet
PickledDataWithLists: "(dp0
Vcom.fontlab.hintData
p1
(dp2
Vvhints
p3
(lp4
(dp5
Vwidth
p6
L10L
sVposition
p7
L34L
sa(dp8
g6
L10L
sg7
L116L
sa(dp9
g6
L10L
sg7
L136L
sa(dp10
g6
L10L
sg7
L334L
sa(dp11
g6
L10L
sg7
L334L
sa(dp12
g6
L10L
sg7
L411L
sa(dp13
g6
L10L
sg7
L416L
sa(dp14
g6
L10L
sg7
L504L
sa(dp15
g6
L10L
sg7
L509L
sa(dp16
g6
L10L
sg7
L586L
sa(dp17
g6
L10L
sg7
L592L
sasVhhints
p18
(lp19
(dp20
g6
L10L
sg7
L-14L
sa(dp21
g6
L10L
sg7
L7L
sa(dp22
g6
L10L
sg7
L396L
sa(dp23
g6
L10L
sg7
L454L
sa(dp24
g6
L10L
sg7
L588L
sa(dp25
g6
L10L
sg7
L594L
sass."
EndChar

StartChar: uni0E5B
Encoding: 487 3675 218
GlifName: uni0E_5B_
Width: 900
VWidth: 0
GlyphClass: 2
Flags: MW
LayerCount: 2
Fore
SplineSet
85 300 m 0
 85 433 179 536 330 536 c 1
 330 499 l 1
 210 499 130 420 130 300 c 0
 130 180 210 101 330 101 c 0
 450 101 530 180 530 300 c 0
 530 360 506 414 480 444 c 1
 513 468 l 1
 530 449 545 421 556 393 c 2
 636 193 l 1
 674 429 l 1
 699 432 l 1
 761 314 l 1
 855 314 l 1
 855 286 l 1
 745 286 l 1
 696 377 l 1
 657 143 l 1
 625 140 l 1
 569 276 l 1
 559 155 472 64 330 64 c 0
 179 64 85 167 85 300 c 0
330 359 m 0
 295 359 271 334 271 300 c 0
 271 266 295 241 330 241 c 0
 365 241 389 266 389 300 c 0
 389 334 365 359 330 359 c 0
330 393 m 0
 388 393 429 354 429 300 c 0
 429 246 388 207 330 207 c 0
 272 207 231 246 231 300 c 0
 231 354 272 393 330 393 c 0
EndSplineSet
PickledDataWithLists: "(dp0
Vcom.fontlab.hintData
p1
(dp2
Vvhints
p3
(lp4
(dp5
Vwidth
p6
L10L
sVposition
p7
L80L
sa(dp8
g6
L10L
sg7
L150L
sa(dp9
g6
L10L
sg7
L306L
sa(dp10
g6
L10L
sg7
L430L
sa(dp11
g6
L10L
sg7
L500L
sa(dp12
g6
L16L
sg7
L633L
sa(dp13
g6
L10L
sg7
L639L
sa(dp14
g6
L10L
sg7
L1147L
sasVhhints
p15
(lp16
(dp17
g6
L10L
sg7
L1L
sa(dp18
g6
L10L
sg7
L49L
sa(dp19
g6
L10L
sg7
L124L
sa(dp20
g6
L10L
sg7
L191L
sa(dp21
g6
L10L
sg7
L239L
sa(dp22
g6
L10L
sg7
L261L
sa(dp23
g6
L10L
sg7
L302L
sa(dp24
g6
L10L
sg7
L427L
sa(dp25
g6
L10L
sg7
L513L
sa(dp26
g6
L10L
sg7
L531L
sa(dp27
g6
L10L
sg7
L579L
sass."
EndChar

StartChar: uni0E48.sd
Encoding: 817 63627 222
GlifName: uni0E_48.sd
Width: 0
VWidth: 0
GlyphClass: 4
Flags: MW
AnchorPoint: "ThaiExtendedAbove.mkmk" 0 0 basemark 0
AnchorPoint: "ThaiTone.mark" 0 0 mark 0
LayerCount: 2
Fore
SplineSet
-162 699 m 1
 -162 880 l 1
 -110 880 l 1
 -110 690 l 1
 -162 699 l 1
EndSplineSet
PickledDataWithLists: "(dp0
Vcom.fontlab.hintData
p1
(dp2
Vvhints
p3
(lp4
(dp5
Vwidth
p6
L10L
sVposition
p7
L-127L
sasVhhints
p8
(lp9
(dp10
g6
L10L
sg7
L715L
sa(dp11
g6
L10L
sg7
L927L
sass."
Substitution2: "Thai.su subtable" uni0E48
EndChar

